# Blender v2.68 (sub 0) OBJ File: ''
# www.blender.org
mtllib goggles_moo.mtl
o goggles_moo.001_goggles_moo
v -6.454914 6.958110 -0.000003
v -6.755346 6.064751 1.018193
v -6.402270 5.712377 -1.881764
v -7.925491 5.826406 -0.000003
v -7.770627 5.522696 -0.765115
v -6.998963 6.205115 -0.000003
v -7.770628 5.522695 0.765110
v -6.402271 5.712377 1.881760
v -5.561451 7.037420 2.544676
v -5.996861 3.938901 1.131711
v -7.905858 5.371771 -0.000002
v -6.051161 3.727349 -0.000002
v -5.996860 3.938902 -1.131716
v -5.771074 5.020122 -2.762287
v -5.561450 7.037420 -2.544681
v -6.755346 6.064751 -1.018198
v 0.000000 8.000000 -6.000000
v -2.261213 7.601287 -5.543277
v -2.487803 9.892855 -5.121320
v -0.398714 10.261218 -5.543277
v -4.313894 7.239344 -4.459369
v -5.442229 9.371910 2.121318
v -2.261219 7.601286 5.543275
v -4.313898 7.239344 4.459366
v -2.487808 9.892854 5.121319
v -0.398715 10.261217 5.543276
v -0.000002 8.000000 5.999999
v 3.728580 8.657450 4.618662
v 1.690377 10.629580 5.121320
v -4.152728 5.056600 4.443557
v -1.763576 5.043494 5.428263
v 0.447937 5.459612 5.713425
v 0.447939 5.459612 -5.713426
v 2.514657 5.954871 -5.541438
v -1.763571 5.043495 -5.428264
v -4.152724 5.056600 -4.443560
v 3.560201 12.909522 -0.000000
v 3.394184 12.658824 2.095603
v 4.194887 9.905433 3.769635
v 4.644800 11.150525 2.121321
v 3.914567 11.021765 -3.348822
v 4.644803 11.150526 -2.121320
v 4.194891 9.905434 -3.769634
v 4.422320 8.779775 3.943908
v 3.914564 11.021764 3.348823
v 3.461424 10.941864 3.919690
v 1.690379 10.629581 -5.121320
v 3.461426 10.941865 -3.919688
v 5.459060 8.962580 2.360302
v 3.394185 12.658824 -2.095602
v 5.060347 11.223798 -0.000000
v -0.736728 12.178185 4.242640
v 1.580570 12.258855 3.919688
v -2.335650 11.896252 3.919688
v -4.258854 9.580570 3.919687
v -5.857775 9.298638 -0.000002
v -4.596865 11.497539 -1.623590
v -3.691147 11.657241 -3.000001
v -5.442225 9.371910 -2.121322
v -4.258849 9.580571 -3.919690
v -0.736727 12.178185 -4.242641
v 5.459064 8.962580 -2.360301
v 5.442228 6.628090 -2.295338
v 5.829081 6.846091 -0.892374
v 6.341107 7.780987 -0.437647
v 6.341105 7.780987 0.437648
v 5.741510 7.363162 1.633074
v 5.857776 6.701362 0.000001
v 6.381179 7.791566 0.000000
v 5.829081 6.846091 0.892376
v 4.850542 6.523760 -3.268286
v 2.514655 5.954871 5.541438
v 2.480332 4.051404 4.735580
v 0.866779 3.681713 4.838524
v -0.736849 3.299151 4.470212
v 3.785785 4.231454 -3.835194
v 3.728581 8.657450 -4.618661
v 2.261218 8.398714 -5.543277
v 4.636488 7.606448 -3.828380
v 4.116233 6.394281 4.241234
v 2.261215 8.398713 5.543277
v 4.636487 7.606448 3.828381
v 5.442227 6.628090 2.295340
v 4.850542 6.523760 3.268287
v 3.785784 4.231452 3.835196
v 4.636065 4.219786 1.961542
v -0.736845 3.299150 -4.470213
v -2.339236 3.016666 -3.624457
v 4.116233 6.394282 -4.241233
v 4.819978 4.066288 -0.000000
v 5.043341 5.461556 -2.128439
v 5.199822 5.025012 0.000000
v 5.908845 9.041889 0.000000
v 5.741511 7.363161 -1.633072
v 4.422322 8.779775 -3.943907
v 5.043340 5.461555 2.128441
v 0.366891 2.323378 2.736241
v -2.339239 3.016666 3.624454
v -0.657827 2.011133 1.133387
v -0.839953 1.922863 -0.000001
v 0.366893 2.323379 -2.736242
v 2.141409 2.682782 3.000387
v 2.896356 2.798554 2.686611
v 3.468751 2.798235 1.679666
v 3.814562 2.795912 -0.000000
v 3.468752 2.798236 -1.679665
v 4.636065 4.219785 -1.961541
v 2.896357 2.798555 -2.686610
v 2.141410 2.682784 -3.000386
v 1.461375 2.554693 -2.961687
v -3.762341 2.747153 -1.961543
v -3.783167 2.574278 -0.000002
v -0.657826 2.011134 -1.133389
v -0.305107 2.164249 2.094228
v 1.461375 2.554692 2.961686
v 1.773753 2.081319 -0.000000
v -4.060016 3.757227 -3.566209
v -5.908161 4.342028 -2.024073
v -4.060019 3.757228 3.566206
v -5.908161 4.342027 2.024068
v -5.771072 5.020122 2.762282
v 0.866780 3.681713 -4.838525
v -0.305105 2.164250 -2.094229
v 2.480334 4.051404 -4.735580
v -3.762343 2.747151 1.961539
v -3.534562 14.675182 -2.240000
v -0.962580 13.459063 -2.296101
v -0.969402 14.019790 -2.000000
v -5.317739 14.006670 -5.080000
v -9.984192 16.956036 -5.973334
v -7.433712 16.137596 -5.786666
v -10.181650 17.218307 -5.077333
v -7.723643 16.566460 -4.518667
v -5.265637 15.914611 -3.960000
v -2.335647 11.896253 -3.919689
v -2.561501 13.177130 -1.623589
v -3.051672 13.090699 -0.878680
v -4.914909 11.441459 -0.000002
v -4.596865 11.497539 1.623586
v -3.223796 13.060349 -0.000001
v -3.691150 11.657241 2.999998
v 1.580570 12.258856 -3.919690
v -0.459585 13.686194 -4.799999
v -0.454826 12.791780 -5.080000
v -5.691910 15.339897 -3.040000
v -7.936779 16.279102 -4.058667
v -0.962581 13.459064 2.296100
v -3.534563 14.675184 2.240002
v -0.969401 14.019792 2.000000
v -3.166235 15.381964 3.400001
v -0.454825 12.791781 5.080001
v -3.508965 13.898948 2.880002
v -3.166347 12.847477 4.680001
v -2.684011 13.509782 5.800002
v -7.474196 15.677641 -5.986668
v -7.650966 15.481350 -5.526668
v -4.964198 14.399244 -6.000000
v 1.416242 13.790967 0.000000
v -1.827909 13.306481 -2.121320
v -3.051672 13.090699 0.878679
v -1.024268 13.808911 0.000000
v -2.561502 13.177129 1.623587
v -0.807266 14.478606 -2.760000
v 1.371908 13.442232 -2.121321
v -2.684011 13.509780 -5.800000
v -2.686486 14.647496 -5.400001
v -4.883226 15.319160 -5.599999
v -3.166347 12.847476 -4.679999
v -3.508965 13.898946 -2.880000
v -3.166235 15.381956 -3.400000
v 1.371908 13.442230 2.121320
v -0.807265 14.478608 2.760001
v -0.459584 13.686195 4.800000
v -1.827911 13.306481 2.121320
v -5.645477 14.681838 -3.600000
v -7.913564 15.950070 -4.338666
v -4.964195 14.399242 6.000001
v -5.265635 15.914612 3.960001
v -5.691908 15.339897 3.040001
v -5.645476 14.681840 3.600001
v -7.936779 16.279102 4.058671
v -5.317737 14.006672 5.080001
v -7.650963 15.481353 5.526670
v -7.474194 15.677634 5.986670
v -7.433708 16.137596 5.786670
v -7.723642 16.566458 4.518670
v -10.181650 17.218306 5.077339
v -4.883224 15.319160 5.600001
v -2.686486 14.647499 5.400002
v -7.913561 15.950073 4.338670
v -9.984190 16.956034 5.973339
v 2.645226 1.300000 -4.020001
v 1.652579 1.587106 -4.379534
v 0.588743 1.754213 -4.514215
v -0.902248 1.806563 -4.406563
v -0.902248 2.207107 -3.807106
v -2.569596 1.400000 -4.099998
v -2.569596 1.706563 -3.641195
v -2.569596 0.341196 -4.406562
v -0.902248 -0.000000 -4.541253
v -0.902247 -0.000000 -1.658745
v 1.652580 0.273281 -1.428208
v 1.652580 1.587107 -1.820466
v 4.145949 0.867108 -2.807107
v 2.645226 1.606563 -2.602099
v 4.145949 0.867108 -3.392895
v -0.902248 0.307106 -4.807107
v 0.588743 -0.000000 -4.660001
v 0.588744 -0.000000 -1.539997
v 2.645227 1.300000 -2.180000
v 4.487542 0.440001 -3.100002
v 2.645226 1.606563 -3.597901
v 1.652579 1.997160 -3.792479
v 1.652579 1.997161 -2.407521
v 0.588743 2.187759 -3.865368
v 0.588743 0.285366 -4.947760
v 1.652579 0.273281 -4.771791
v 2.645226 0.261196 -4.406565
v 4.145949 0.701197 -3.641197
v 4.145949 0.332894 -3.807108
v -0.902247 1.806563 -1.793435
v 0.588744 2.187759 -2.334632
v -0.902247 2.207106 -2.392891
v -2.569596 1.706563 -2.558802
v 4.145949 0.160001 -3.696989
v 0.581510 1.751131 -1.686535
v -0.902247 0.307107 -1.392890
v -2.569596 1.400000 -2.099997
v 1.652580 -0.000000 -1.688563
v 1.652579 -0.000000 -4.511436
v 2.645226 0.000000 -4.203087
v 2.645227 0.000000 -1.996913
v 0.588744 0.285367 -1.252238
v -2.569596 0.080000 -1.996911
v -2.569596 0.341196 -1.793434
v 4.145949 0.332894 -2.392894
v 2.645227 0.261196 -1.793437
v 4.145949 0.160001 -2.503015
v -3.033980 0.480000 -3.099998
v -2.569596 0.080000 -4.203085
v 4.145949 0.701197 -2.558805
v 2.645226 1.606563 2.602098
v 4.145948 0.701197 2.558804
v 1.652579 1.587106 1.820465
v 1.652579 1.997160 2.407520
v 0.588743 2.187759 2.334631
v 0.588743 1.754213 1.685784
v -2.569596 0.080000 1.996915
v 0.588744 0.000000 4.660002
v 0.588744 0.285367 4.947761
v 1.652580 0.273281 4.771791
v 2.645226 1.606563 3.597900
v 4.145948 0.867108 2.807106
v -0.902248 -0.000000 1.658746
v -2.569596 0.341196 1.793438
v 2.645227 0.261196 4.406563
v 2.645227 1.300000 4.019999
v 4.145948 0.701197 3.641196
v 4.145948 0.867108 3.392894
v 4.487542 0.440001 3.100000
v -0.902248 2.207107 2.392893
v -2.569596 1.706563 2.558805
v -2.569596 1.706563 3.641197
v -2.569596 1.400000 2.100001
v -0.902248 0.307106 1.392892
v 0.588743 0.285366 1.252239
v -0.902248 1.806563 1.793436
v 1.652579 0.273281 1.428207
v 2.645226 0.261196 1.793435
v 2.645226 1.300000 2.179998
v 1.652580 1.587107 4.379533
v 1.652579 1.997161 3.792478
v -0.902247 1.806563 4.406564
v 0.588744 2.187759 3.865367
v -0.902247 2.207106 3.807108
v -2.569596 1.400000 4.100002
v 1.652579 0.000000 1.688563
v 4.145948 0.332894 2.392892
v 4.145948 0.160001 2.503012
v 0.581510 1.751131 4.513464
v -2.569596 0.341196 4.406566
v 0.588743 0.000000 1.539998
v 2.645227 -0.000000 4.203086
v 1.652580 0.000000 4.511436
v 2.645226 -0.000000 1.996912
v -0.902247 0.307107 4.807109
v 4.145948 0.160001 3.696986
v 4.145948 0.332894 3.807107
v -3.033980 0.480000 3.100002
v -0.902247 -0.000000 4.541254
v -2.569596 0.080000 4.203089
v 0.000001 6.999998 -10.378464
v -1.039229 6.999998 -10.100002
v 0.000001 6.427947 -9.500002
v 0.600001 6.427947 -9.339232
v 1.039232 6.999998 -10.100002
v 1.039231 6.427947 -8.900002
v 2.078462 6.999998 -8.300002
v 1.800001 6.999998 -9.339232
v 1.200001 6.427947 -8.300002
v 1.800001 6.999998 -7.260772
v 1.039231 6.999998 -6.500002
v 0.000000 6.427947 -7.100002
v -0.599999 6.427947 -7.260772
v -1.799999 6.999998 -7.260772
v -1.799999 8.999998 -7.260773
v -2.078460 8.999998 -8.300002
v -0.599999 9.732049 -7.260773
v -1.039230 8.999998 -6.500002
v 1.039231 8.999998 -6.500002
v 0.000000 8.999998 -6.221541
v 0.600001 9.732049 -7.260773
v 1.800001 8.999998 -7.260773
v 1.039231 9.732049 -7.700003
v 2.078462 8.999998 -8.300002
v 1.200001 9.732049 -8.300002
v 1.039231 9.732049 -8.900002
v 1.800001 8.999998 -9.339232
v -2.078460 6.999998 -8.300002
v -1.039230 6.999998 -6.500002
v 0.000000 8.000000 -5.900000
v 0.000000 6.999998 -6.221541
v 2.078462 7.999998 -7.100002
v 1.200001 7.999998 -6.221541
v -2.399999 7.999998 -8.300002
v -2.078460 7.999998 -7.100002
v -1.199999 7.999998 -6.221541
v 2.400001 7.999998 -8.300002
v 1.039232 8.999998 -10.100002
v 0.000001 8.999998 -10.378464
v 0.000001 9.999998 -8.300003
v -0.599999 9.732049 -9.339232
v 1.039232 6.427947 -7.700002
v -1.039229 6.427947 -8.900002
v -1.199999 6.427947 -8.300002
v -0.599999 6.427947 -9.339232
v -1.199999 9.732049 -8.300002
v -1.039229 9.732049 -8.900002
v -1.039229 9.732049 -7.700003
v 1.400001 7.391725 -10.032053
v 0.800001 7.391725 -10.378464
v -1.199999 7.999998 -10.378464
v 1.200001 7.999998 -10.378464
v 0.800001 8.608273 -10.378464
v -1.039229 8.999998 -10.100002
v 0.000001 9.732049 -9.500002
v 0.000001 9.732049 -7.100002
v 0.600001 9.732049 -9.339232
v 0.600001 6.427947 -7.260772
v -1.039229 6.427947 -7.700002
v 0.000001 6.427947 9.500002
v -2.078460 6.999999 8.300002
v -1.199999 6.427948 8.300002
v 0.600001 6.427948 7.260772
v 1.039232 6.427948 7.700002
v 1.039231 6.999999 6.500002
v 1.800001 6.999999 7.260772
v 2.078462 6.999999 8.300002
v 1.039231 6.427948 8.900002
v 1.800001 6.999998 9.339232
v -1.799999 6.999999 7.260772
v -1.799999 8.999998 7.260773
v -1.039229 9.732050 7.700003
v 0.600001 9.732050 9.339232
v 1.039232 8.999998 10.100002
v 0.000001 9.732050 9.500002
v -1.039229 8.999998 10.100002
v -1.799999 8.999998 9.339232
v -1.199999 9.732050 8.300002
v -2.078460 8.999998 8.300002
v -1.039229 9.732050 8.900001
v 2.200001 7.391726 8.646412
v 2.400001 7.999999 8.300002
v 2.078462 7.999999 7.100001
v 0.600001 9.732050 7.260773
v 0.000001 9.732050 7.100001
v 1.039231 8.999998 6.500001
v 1.200001 7.999999 6.221540
v 0.000000 8.000000 5.900000
v -1.199999 7.999999 6.221540
v 0.000000 6.999999 6.221541
v -1.039230 6.999999 6.500002
v 1.400001 8.608274 10.032053
v 1.039231 9.732050 8.900001
v 1.200001 9.732050 8.300002
v 1.800001 8.999998 7.260773
v -1.039230 8.999998 6.500001
v -2.078460 7.999999 7.100001
v -1.039229 6.427948 7.700002
v -0.599999 6.427948 7.260772
v 0.000000 6.427948 7.100002
v 1.039232 6.999998 10.100002
v 1.400001 7.391724 10.032053
v -0.599999 9.732050 7.260773
v 0.000000 8.999998 6.221540
v 0.000001 8.999998 10.378463
v 0.800001 8.608274 10.378463
v 1.039231 9.732050 7.700003
v -0.799999 7.391726 10.378464
v -1.039229 6.999998 10.100002
v 0.000001 6.999998 10.378464
v -2.199999 7.391725 8.646412
v -1.199999 7.999998 10.378464
v -0.599999 9.732050 9.339232
v 0.000001 9.999998 8.300003
v -1.399999 8.608271 10.032053
v 1.800001 8.999998 9.339232
v 2.078462 8.999998 8.300002
v -0.599999 6.427947 9.339232
v -1.039229 6.427948 8.900002
v 0.600001 6.427947 9.339232
v 1.200001 6.427948 8.300002
v 5.855412 8.481238 -2.901152
v 5.653368 8.024898 -3.050941
v 5.192133 8.988704 -3.513096
v 5.583000 9.050476 -3.174108
v 5.234194 9.993274 -2.926307
v 5.551357 9.389303 -3.069857
v 5.607842 9.643789 -2.827542
v 6.198723 9.070227 -1.415210
v 6.252300 8.496544 -1.591721
v 6.156662 8.065660 -2.001999
v 6.209150 8.759801 -2.039315
v 5.937438 7.893023 -2.536111
v 6.023188 8.403351 -2.597085
v 4.825990 8.107194 -3.519813
v 5.848873 7.455001 -2.476594
v 5.465853 7.632810 -3.170755
v 5.872420 7.621410 -1.623331
v 6.144459 7.687769 -1.756437
v 6.273409 8.268746 -1.203247
v 6.201170 9.042257 -0.965253
v 6.001370 8.202386 -1.070142
v 5.947100 9.801042 -1.106225
v 5.675061 9.734683 -0.973119
v 4.900669 10.286825 -3.002707
v 5.196256 10.519595 -2.282549
v 4.628631 10.220467 -2.869601
v 5.098028 8.173553 -3.652919
v 4.571919 8.865978 -3.660784
v 5.980970 7.672547 -2.548430
v 5.641986 7.829913 -3.162781
v 6.356696 8.392734 -1.421482
v 6.292763 9.077312 -1.210852
v 6.067904 9.748857 -1.335615
v 5.742368 10.227431 -1.762343
v 5.579276 10.341784 -1.588389
v 5.403385 10.384797 -2.376694
v 5.141783 10.178790 -3.014054
v 4.843957 8.932339 -3.793891
v 4.771719 9.705850 -3.555897
v 5.316452 8.308486 -3.589509
v 5.380567 8.425943 -3.408543
v 5.937438 7.893023 -2.536110
v 6.156662 8.065659 -2.001998
v 6.242572 7.878554 -1.911070
v 6.010289 9.632987 -1.519763
v 5.453418 10.165908 -2.392195
v 5.027659 9.664611 -3.503642
v 5.138557 9.562387 -3.336585
v 5.091592 8.980032 -3.714273
v 5.098772 8.402517 -3.176163
v 5.348103 8.035972 -2.849326
v 5.653367 8.024896 -3.050941
v 5.808099 8.073226 -1.890624
v 5.895508 8.467044 -1.515642
v 6.252299 8.496544 -1.591720
v 5.674318 9.505718 -1.449875
v 5.737488 10.034035 -1.877364
v 5.234194 9.993272 -2.926306
v 4.964991 9.835010 -2.735414
v 4.877581 9.441192 -3.110396
v 5.099386 7.889761 -2.779883
v 5.607735 7.915443 -2.378786
v 5.383457 7.757887 -2.265052
v 5.846541 8.991372 -1.354316
v 5.183507 9.898899 -1.606306
v 5.456307 9.497851 -1.248705
v 5.424987 9.872264 -1.776712
v 5.165355 9.992792 -2.247252
v 4.899436 10.030772 -2.121137
v 4.584575 9.427251 -3.065527
v 4.638152 8.853568 -3.242038
v 4.926548 8.916863 -3.271722
v 4.826585 8.290808 -3.137485
v 5.602681 7.930522 -1.730940
v 5.698318 8.361408 -1.320662
v 5.456638 9.599750 -1.036528
v 5.644741 8.935091 -1.144152
v 5.131104 10.078321 -1.463257
v 4.792120 10.235688 -2.077608
v 4.530518 10.029681 -2.714968
v 4.416394 9.515502 -3.204555
v 4.680212 9.858137 -2.655249
v 4.705186 8.159377 -3.290423
v 5.193814 7.566451 -3.037649
v 5.030721 7.680804 -2.863695
v 5.576834 7.388641 -2.343488
v 5.369705 7.523438 -2.249344
v 5.745430 8.243625 -1.122396
v 5.631307 7.729445 -1.611984
v 5.929132 8.975898 -0.832147
v 5.681498 8.928204 -0.911765
v 5.307237 10.275426 -1.455283
v 4.924217 10.453235 -2.149443
v 4.499681 9.639489 -3.422791
v 4.480327 8.830923 -3.415187
v 5.583000 9.050476 3.174108
v 5.653368 8.024898 3.050941
v 5.937438 7.893023 2.536111
v 6.023188 8.403351 2.597085
v 6.152665 8.505313 2.281631
v 6.156662 8.065660 2.001999
v 6.177507 9.098625 1.935065
v 6.209150 8.759801 2.039315
v 6.252300 8.496544 1.591721
v 6.066216 9.430999 1.996815
v 5.905095 9.667864 2.208020
v 5.737319 9.745751 2.512087
v 5.607842 9.643789 2.827542
v 5.453418 10.165908 2.392195
v 5.234194 9.993274 2.926307
v 5.138557 9.562387 3.336585
v 5.872420 7.621410 1.623331
v 5.383457 7.757887 2.265052
v 5.631307 7.729445 1.611984
v 5.602681 7.930522 1.730940
v 5.607735 7.915443 2.378786
v 5.937438 7.893023 2.536110
v 6.156662 8.065659 2.001998
v 5.848873 7.455001 2.476594
v 5.681498 8.928204 0.911765
v 5.675061 9.734683 0.973119
v 5.456638 9.599751 1.036528
v 5.456307 9.497851 1.248705
v 5.674318 9.505718 1.449875
v 5.929132 8.975898 0.832147
v 5.698318 8.361408 1.320662
v 5.644741 8.935091 1.144152
v 5.895508 8.467044 1.515642
v 6.252299 8.496544 1.591720
v 5.846541 8.991372 1.354316
v 6.356696 8.392734 1.421482
v 6.198723 9.070227 1.415210
v 6.292763 9.077313 1.210852
v 6.273409 8.268746 1.203247
v 6.201170 9.042257 0.965253
v 5.745430 8.243625 1.122396
v 5.808099 8.073226 1.890624
v 6.242572 7.878554 1.911070
v 6.144459 7.687769 1.756437
v 6.001370 8.202386 1.070142
v 4.825990 8.107194 3.519813
v 4.571919 8.865978 3.660784
v 5.098772 8.402517 3.176163
v 4.638152 8.853568 3.242038
v 4.705186 8.159377 3.290423
v 4.480327 8.830923 3.415187
v 4.843957 8.932339 3.793891
v 5.091592 8.980032 3.714273
v 5.027659 9.664611 3.503642
v 4.771720 9.705851 3.555897
v 5.192133 8.988704 3.513096
v 4.926548 8.916863 3.271722
v 4.416394 9.515502 3.204555
v 4.499681 9.639489 3.422791
v 5.141783 10.178790 3.014054
v 5.234194 9.993272 2.926306
v 4.877581 9.441192 3.110396
v 4.584575 9.427251 3.065527
v 4.680212 9.858137 2.655249
v 4.530518 10.029681 2.714968
v 4.628631 10.220468 2.869601
v 4.900669 10.286825 3.002707
v 5.196256 10.519595 2.282549
v 4.964991 9.835011 2.735414
v 4.792120 10.235688 2.077608
v 4.924217 10.453235 2.149443
v 5.403385 10.384797 2.376694
v 5.742368 10.227431 1.762343
v 5.165355 9.992792 2.247252
v 5.737488 10.034035 1.877364
v 5.424987 9.872264 1.776712
v 4.899436 10.030772 2.121137
v 5.131104 10.078321 1.463257
v 5.307237 10.275426 1.455283
v 5.947100 9.801042 1.106225
v 5.579276 10.341785 1.588389
v 6.067904 9.748858 1.335615
v 6.010289 9.632987 1.519763
v 5.183507 9.898899 1.606306
v 4.826585 8.290808 3.137485
v 5.030721 7.680804 2.863695
v 5.099386 7.889761 2.779883
v 5.380567 8.425943 3.408543
v 5.348103 8.035972 2.849326
v 5.653367 8.024896 3.050941
v 5.316452 8.308486 3.589509
v 5.098028 8.173553 3.652919
v 5.465853 7.632810 3.170755
v 5.576834 7.388641 2.343488
v 5.369705 7.523438 2.249344
v 5.641986 7.829913 3.162781
v 5.980970 7.672547 2.548430
v 5.193814 7.566451 3.037649
v -5.799835 8.532251 0.890868
v -6.129281 8.495521 0.943272
v -6.261467 7.414516 0.965679
v 5.966821 9.661633 -0.623105
v 5.578842 9.692760 -0.559008
v 5.672876 8.478119 -0.559008
v 5.714282 8.557119 -0.569074
v 5.631664 9.624267 0.569074
v 5.672876 8.478119 0.559008
v 5.578842 9.692760 0.559008
v 5.966821 9.661633 0.623105
v -5.799835 8.532251 -0.890868
v -5.924195 7.452119 -0.912030
v -5.750486 7.460492 -2.380598
v -4.432403 7.527214 -4.440465
v -5.421676 7.497152 -2.273301
v -2.333792 7.673581 5.282859
v 2.258972 8.185634 5.459368
v -0.199232 8.988827 5.765819
v 4.258701 8.379015 -3.869128
v 4.446494 9.542916 -4.138199
v 4.229533 8.309158 -3.842839
v 4.539335 8.343699 -4.138199
v -4.439113 8.605378 -4.337434
v -0.091956 7.923525 -5.902779
v -2.493409 8.733045 5.482848
v -4.439113 8.605378 4.337434
v -2.389051 8.744680 5.160283
v -4.216880 8.630155 4.082053
v 5.708066 9.608275 0.000000
v 5.714282 8.557119 0.569074
v 5.694292 8.718102 -3.112357
v 5.979393 9.098734 -2.603095
v 6.152665 8.505313 -2.281631
v 6.177507 9.098625 -1.935065
v 6.066216 9.430999 -1.996815
v 5.905095 9.667864 -2.208020
v -5.405288 8.576240 -2.220554
v 2.097149 9.244852 5.332696
v -0.199232 8.988827 6.104983
v 4.827335 9.595467 3.553249
v 4.446494 9.542916 4.138199
v 4.920176 8.396247 3.553249
v 4.572132 8.357446 3.296298
v 4.479291 9.556664 3.296298
v 4.016055 9.494519 3.750813
v 4.229533 8.309158 3.842839
v 4.539335 8.343699 4.138199
v 4.417543 9.473083 4.111628
v -5.757159 8.594736 0.883375
v -6.401303 8.548173 0.000000
v -6.568282 7.310560 0.000000
v -6.419643 7.350545 0.973350
v -6.295305 8.547503 0.950765
v -5.871435 7.398902 0.904359
v -5.924195 7.452119 0.912030
v -5.421676 7.497152 2.273301
v -5.750486 7.460492 2.380598
v 3.634642 8.339008 4.503540
v -5.815496 8.608865 0.000000
v -5.970000 7.356161 0.000000
v -0.199232 8.988827 -5.765819
v -2.389051 8.744680 -5.160283
v -2.333792 7.673581 -5.282859
v -6.419643 7.350545 -0.973350
v -5.757159 8.594736 -0.883375
v -6.295305 8.547503 -0.950765
v 6.049438 8.594486 -0.623105
v -5.871435 7.398902 -0.904359
v 6.049438 8.594486 0.623105
v 6.053798 9.649327 0.000000
v 6.126075 8.655040 0.000000
v 5.780343 8.613988 0.000000
v -4.216880 8.630155 -4.082053
v 3.440899 9.394670 4.399045
v -2.493409 8.733045 -5.482848
v -0.199232 8.988827 -6.104983
v 2.097149 9.244852 -5.332696
v 2.201507 9.256488 -5.655261
v -2.440629 7.661669 -5.613087
v 2.365810 8.197545 -5.789595
v -0.091957 7.923525 -6.250000
v 2.258972 8.185634 -5.459368
v 3.837859 8.361665 -4.784447
v 3.634642 8.339008 -4.503540
v 3.724324 9.426270 4.766722
v 2.365810 8.197545 5.789595
v 2.201507 9.256488 5.655261
v 6.102268 8.525993 -0.633130
v 5.979181 8.512268 -1.216666
v 4.500160 8.405936 4.111628
v 3.724324 9.426269 -4.766722
v 3.837859 8.361665 4.784447
v -5.726469 8.540431 -2.325362
v -6.261467 7.414516 -0.965679
v -6.129281 8.495521 -0.943272
v -5.726469 8.540431 2.325362
v -5.405288 8.576240 2.220554
v 4.479291 9.556664 -3.296298
v 4.016055 9.494519 -3.750813
v 4.572132 8.357446 -3.296298
v 4.054533 9.433748 -3.776492
v 4.417543 9.473083 -4.111628
v 4.920176 8.396247 -3.553249
v -4.432403 7.527214 4.440465
v -4.204892 7.552580 4.179018
v -2.440629 7.661669 5.613087
v 5.556136 8.465103 1.110125
v 6.102268 8.525993 0.633130
v 5.979181 8.512268 1.216666
v 6.008233 9.740632 0.633131
v 5.462100 9.679744 1.110125
v 5.885148 9.726910 1.216665
v -0.091956 7.923525 5.902779
v -0.091957 7.923525 6.250000
v 5.556136 8.465103 -1.110125
v 5.737319 9.745751 -2.512087
v 4.827335 9.595467 -3.553249
v 6.008233 9.740632 -0.633131
v 5.885148 9.726910 -1.216665
v 5.462100 9.679744 -1.110125
v 5.551357 9.389303 3.069857
v 5.694292 8.718102 3.112357
v 5.979393 9.098734 2.603095
v 5.855412 8.481238 2.901152
v 5.631664 9.624267 -0.569074
v -4.204892 7.552580 -4.179018
v 4.054533 9.433748 3.776492
v 4.258701 8.379015 3.869128
v 3.440899 9.394669 -4.399045
v 4.500160 8.405936 -4.111628
v 0.000001 7.999998 -11.900002
v -0.799999 7.391726 -10.378464
v -2.199999 7.391725 -8.646412
v -1.799999 6.999998 -9.339232
v 1.400001 8.608273 -10.032053
v 2.200001 8.608271 -8.646412
v 3.117692 7.999998 -10.100002
v -0.799999 8.608271 -10.378464
v -2.199999 8.608273 -8.646412
v -3.117690 7.999998 -10.100002
v -1.799999 8.999998 -9.339232
v -1.399999 8.608271 -10.032053
v 2.200001 7.391726 -8.646412
v -1.399999 7.391726 -10.032053
v 1.200001 7.999998 10.378464
v -1.799999 6.999998 9.339232
v -2.399999 7.999999 8.300002
v -3.117690 7.999998 10.100002
v 3.117692 7.999998 10.100002
v 2.200001 8.608271 8.646412
v 0.800001 7.391724 10.378464
v 0.000001 7.999998 11.900002
v -1.399999 7.391726 10.032053
v -0.799999 8.608271 10.378463
v -2.199999 8.608274 8.646412
vt 0.678897 0.243545
vt 0.684552 0.243545
vt 0.684552 0.182001
vt 0.382582 0.787012
vt 0.485602 0.643506
vt 0.459301 0.787012
vt 0.650468 0.295720
vt 0.638692 0.243545
vt 0.632021 0.295720
vt 0.773048 0.966818
vt 0.776183 0.956320
vt 0.773048 0.957944
vt 0.782453 0.956320
vt 0.783908 0.945822
vt 0.783908 0.953903
vt 0.914047 0.047519
vt 0.955994 0.047519
vt 0.914047 0.027941
vt 0.754458 0.469183
vt 0.754458 0.438549
vt 0.848602 0.438549
vt 0.585043 0.151415
vt 0.573243 0.130204
vt 0.576159 0.182478
vt 0.596617 0.162360
vt 0.610262 0.184543
vt 0.610262 0.167199
vt 0.623908 0.162360
vt 0.610262 0.161515
vt 0.635481 0.151415
vt 0.620516 0.152777
vt 0.647282 0.130204
vt 0.637388 0.112943
vt 0.600008 0.152777
vt 0.583136 0.112943
vt 0.581833 0.243545
vt 0.610262 0.243545
vt 0.644366 0.182478
vt 0.595095 0.102714
vt 0.610262 0.149422
vt 0.610262 0.097383
vt 0.625429 0.102714
vt 0.660782 0.212773
vt 0.663118 0.182001
vt 0.672161 0.182001
vt 0.662793 0.243545
vt 0.690673 0.182001
vt 0.670026 0.182001
vt 0.550499 0.182001
vt 0.557731 0.243545
vt 0.535972 0.182001
vt 0.541627 0.243545
vt 0.529851 0.182001
vt 0.535972 0.243545
vt 0.548364 0.182001
vt 0.548331 0.123634
vt 0.535997 0.120457
vt 0.529878 0.120457
vt 0.684528 0.120457
vt 0.690647 0.120457
vt 0.672193 0.123634
vt 0.380975 0.999831
vt 0.250000 1.027089
vt 0.250000 0.787012
vt 0.119025 0.999831
vt 0.117417 0.787012
vt 0.040698 0.787012
vt 0.014398 0.643506
vt 0.397519 0.500000
vt 0.496494 0.500000
vt 0.557407 0.182001
vt 0.559742 0.212773
vt 0.565382 0.243545
vt 0.582177 0.289180
vt 0.667121 0.295720
vt 0.662793 0.287063
vt 0.250000 0.500000
vt 0.102481 0.500000
vt 0.557731 0.287063
vt 0.655143 0.243545
vt 0.638347 0.289180
vt 0.553403 0.295720
vt 0.557731 0.295720
vt 0.570057 0.295720
vt 0.588503 0.295720
vt 0.610262 0.295720
vt 0.662793 0.295720
vt 0.003506 0.500000
vt 0.489274 0.350913
vt 0.393459 0.212987
vt 0.352067 0.296979
vt 0.305773 0.231426
vt 0.277353 0.335399
vt 0.250000 0.335831
vt 0.222647 0.335399
vt 0.147933 0.296979
vt 0.194226 0.231426
vt 0.106541 0.212987
vt 0.116972 0.078044
vt 0.250000 0.212987
vt 0.250000 0.020908
vt 0.383027 0.078044
vt 0.454268 0.212987
vt 0.559440 0.066977
vt 0.553422 0.120457
vt 0.546797 0.071185
vt 0.541568 0.071618
vt 0.546797 0.070243
vt 0.667103 0.120457
vt 0.636550 0.060639
vt 0.661085 0.066977
vt 0.673728 0.071185
vt 0.678957 0.071618
vt 0.661569 0.150033
vt 0.654063 0.120457
vt 0.558955 0.150033
vt 0.010726 0.350913
vt 0.045732 0.212987
vt 0.566461 0.120457
vt 0.583974 0.060639
vt 0.658837 0.068254
vt 0.673728 0.070243
vt 0.638787 0.091522
vt 0.610262 0.055731
vt 0.561688 0.068254
vt 0.581737 0.091522
vt 0.610262 0.079270
vt 0.567556 0.031679
vt 0.564038 0.032844
vt 0.567556 0.031954
vt 0.577577 0.029378
vt 0.583974 0.060856
vt 0.592573 0.026978
vt 0.610262 0.056390
vt 0.610262 0.025496
vt 0.636550 0.060856
vt 0.627952 0.026978
vt 0.642948 0.029378
vt 0.610262 0.017513
vt 0.652968 0.031954
vt 0.656487 0.032844
vt 0.575658 0.031221
vt 0.590061 0.028548
vt 0.610262 0.026877
vt 0.630464 0.028548
vt 0.644866 0.031221
vt 0.652968 0.031679
vt 0.658056 0.088904
vt 0.562469 0.088904
vt 0.588872 0.129658
vt 0.588872 0.006210
vt 0.533347 0.129658
vt 0.516368 0.376552
vt 0.589299 0.376552
vt 0.662656 0.129658
vt 0.662230 0.376552
vt 0.718181 0.129658
vt 0.735161 0.376552
vt 0.726547 0.623448
vt 0.659358 0.623448
vt 0.653546 0.870342
vt 0.597982 0.870342
vt 0.654415 0.993790
vt 0.597113 0.993790
vt 0.592170 0.623448
vt 0.641034 0.330581
vt 0.638692 0.330581
vt 0.632021 0.330581
vt 0.622038 0.330581
vt 0.610262 0.330581
vt 0.598486 0.330581
vt 0.588503 0.330581
vt 0.581833 0.330581
vt 0.579490 0.330581
vt 0.662656 0.006210
vt 0.524981 0.623448
vt 0.556534 0.870342
vt 0.638692 0.319272
vt 0.610262 0.328271
vt 0.610262 0.340103
vt 0.581833 0.319271
vt 0.694994 0.870342
vt 0.610262 0.295025
vt 0.777931 0.549794
vt 0.765563 0.557148
vt 0.774839 0.549794
vt 0.777931 0.542441
vt 0.774839 0.542441
vt 0.777931 0.535087
vt 0.774839 0.535087
vt 0.777931 0.527733
vt 0.774839 0.527733
vt 0.777931 0.520380
vt 0.774839 0.520380
vt 0.777931 0.513026
vt 0.774839 0.513026
vt 0.765563 0.505672
vt 0.771747 0.513026
vt 0.768655 0.513026
vt 0.768655 0.520380
vt 0.765563 0.520380
vt 0.765563 0.527733
vt 0.762471 0.527733
vt 0.762471 0.535087
vt 0.759379 0.535087
vt 0.759379 0.542441
vt 0.756287 0.542441
vt 0.756287 0.549794
vt 0.753195 0.549794
vt 0.771747 0.520380
vt 0.768655 0.527733
vt 0.765563 0.535087
vt 0.762471 0.542441
vt 0.759379 0.549794
vt 0.753195 0.542441
vt 0.756287 0.535087
vt 0.753195 0.535087
vt 0.756287 0.527733
vt 0.753195 0.527733
vt 0.756287 0.520380
vt 0.753195 0.520380
vt 0.756287 0.513026
vt 0.753195 0.513026
vt 0.771747 0.527733
vt 0.771747 0.535087
vt 0.771747 0.542441
vt 0.771747 0.549794
vt 0.759379 0.527733
vt 0.759379 0.520380
vt 0.759379 0.513026
vt 0.768655 0.535087
vt 0.768655 0.542441
vt 0.768655 0.549794
vt 0.762471 0.520380
vt 0.762471 0.513026
vt 0.765563 0.542441
vt 0.765563 0.549794
vt 0.765563 0.513026
vt 0.762471 0.549794
vt 0.907749 0.859614
vt 0.931873 0.940396
vt 0.973657 0.859614
vt 0.931873 0.812975
vt 0.988951 0.749264
vt 0.940703 0.749264
vt 0.973657 0.638914
vt 0.931873 0.685554
vt 0.931873 0.558132
vt 0.907749 0.638914
vt 0.874795 0.528564
vt 0.874795 0.621843
vt 0.817717 0.558132
vt 0.841841 0.638914
vt 0.775933 0.638914
vt 0.817717 0.685554
vt 0.760639 0.749264
vt 0.808887 0.749264
vt 0.775933 0.859614
vt 0.817717 0.812975
vt 0.817717 0.940396
vt 0.841841 0.859614
vt 0.874795 0.969964
vt 0.874795 0.876685
vt 0.767617 0.964005
vt 0.769913 0.956320
vt 0.763642 0.956320
vt 0.767617 0.951883
vt 0.762187 0.945822
vt 0.766777 0.945822
vt 0.763642 0.935324
vt 0.767617 0.939761
vt 0.767617 0.927638
vt 0.769913 0.935324
vt 0.773048 0.924825
vt 0.773048 0.933700
vt 0.778478 0.927638
vt 0.776183 0.935324
vt 0.782453 0.935324
vt 0.778478 0.939761
vt 0.774858 0.968046
vt 0.778478 0.964005
vt 0.773048 0.970066
vt 0.766777 0.966818
vt 0.762187 0.957944
vt 0.760507 0.945822
vt 0.762187 0.933700
vt 0.766777 0.924825
vt 0.773048 0.921577
vt 0.774858 0.923598
vt 0.783908 0.937740
vt 0.779318 0.945822
vt 0.773048 0.945822
vt 0.778478 0.951883
vt 0.782098 0.931679
vt 0.783908 0.933700
vt 0.783908 0.957944
vt 0.782098 0.959964
vt 0.951740 0.313327
vt 0.960623 0.268828
vt 0.983545 0.304156
vt 0.965278 0.334192
vt 0.994375 0.357417
vt 0.971674 0.365649
vt 0.990212 0.414340
vt 0.969216 0.399268
vt 0.972172 0.459672
vt 0.958561 0.426042
vt 0.945088 0.481266
vt 0.942565 0.438796
vt 0.916218 0.473337
vt 0.925514 0.434113
vt 0.893297 0.438009
vt 0.911976 0.413248
vt 0.882467 0.384748
vt 0.905580 0.381791
vt 0.886630 0.327825
vt 0.908038 0.348171
vt 0.904670 0.282493
vt 0.918693 0.321398
vt 0.931753 0.260898
vt 0.934689 0.308644
vt 0.997942 0.243292
vt 0.955994 0.243292
vt 0.955994 0.223715
vt 0.997942 0.223715
vt 0.955994 0.204138
vt 0.997942 0.204138
vt 0.955994 0.184560
vt 0.997942 0.184560
vt 0.955994 0.164983
vt 0.997942 0.164983
vt 0.955994 0.145405
vt 0.997942 0.145405
vt 0.955994 0.125828
vt 0.997942 0.125828
vt 0.955994 0.106251
vt 0.997942 0.106251
vt 0.955995 0.086673
vt 0.997942 0.086673
vt 0.955994 0.067096
vt 0.997942 0.067096
vt 0.997942 0.047519
vt 0.955995 0.027941
vt 0.997942 0.027941
vt 0.955994 0.008364
vt 0.997942 0.008364
vt 0.914046 0.243292
vt 0.914046 0.223715
vt 0.914046 0.204138
vt 0.914046 0.184560
vt 0.914047 0.164983
vt 0.914047 0.145405
vt 0.914047 0.125828
vt 0.914047 0.106251
vt 0.914047 0.086673
vt 0.914047 0.067096
vt 0.914047 0.008364
vt 0.872099 0.243292
vt 0.872099 0.223715
vt 0.872099 0.204138
vt 0.872099 0.184560
vt 0.872099 0.164983
vt 0.872099 0.145405
vt 0.872099 0.125828
vt 0.872099 0.106251
vt 0.872099 0.086673
vt 0.872099 0.067096
vt 0.872099 0.047519
vt 0.872099 0.027941
vt 0.872099 0.008364
vt 0.843789 0.243292
vt 0.843789 0.223715
vt 0.843789 0.204138
vt 0.843789 0.184560
vt 0.843789 0.164983
vt 0.843789 0.145406
vt 0.843789 0.125828
vt 0.843789 0.106251
vt 0.843789 0.086673
vt 0.843789 0.067096
vt 0.843789 0.047519
vt 0.843789 0.027941
vt 0.843789 0.008364
vt 0.814596 0.243292
vt 0.814596 0.223715
vt 0.814597 0.204137
vt 0.814597 0.184560
vt 0.814597 0.164983
vt 0.814597 0.145405
vt 0.814597 0.125828
vt 0.814597 0.106251
vt 0.814597 0.086673
vt 0.814597 0.067096
vt 0.814597 0.047519
vt 0.814597 0.027941
vt 0.814597 0.008364
vt 0.785404 0.243292
vt 0.785404 0.223715
vt 0.785404 0.204138
vt 0.785404 0.184560
vt 0.785405 0.164983
vt 0.785405 0.145405
vt 0.785405 0.125828
vt 0.785405 0.106251
vt 0.785405 0.086673
vt 0.785405 0.067096
vt 0.785405 0.047519
vt 0.785405 0.027941
vt 0.785405 0.008364
vt 0.756212 0.243292
vt 0.756212 0.223715
vt 0.756212 0.204137
vt 0.756212 0.184560
vt 0.756212 0.164983
vt 0.756212 0.145405
vt 0.756212 0.125828
vt 0.756212 0.106251
vt 0.756212 0.086673
vt 0.756212 0.067096
vt 0.756212 0.047518
vt 0.756212 0.027941
vt 0.756212 0.008364
vt 0.905167 0.365649
vt 0.886629 0.414340
vt 0.882467 0.357417
vt 0.911564 0.334192
vt 0.893297 0.304156
vt 0.925101 0.313327
vt 0.916218 0.268828
vt 0.942152 0.308644
vt 0.945088 0.260898
vt 0.958148 0.321398
vt 0.972172 0.282493
vt 0.968803 0.348171
vt 0.990212 0.327825
vt 0.971262 0.381791
vt 0.994375 0.384748
vt 0.964865 0.413248
vt 0.983544 0.438009
vt 0.951328 0.434113
vt 0.960623 0.473337
vt 0.934277 0.438796
vt 0.931753 0.481266
vt 0.918280 0.426042
vt 0.904670 0.459672
vt 0.907626 0.399268
vt 0.837877 0.210830
vt 0.843540 0.209258
vt 0.837122 0.210220
vt 0.837024 0.224125
vt 0.836367 0.224929
vt 0.841899 0.223394
vt 0.842636 0.223990
vt 0.842867 0.210081
vt 0.854917 0.210264
vt 0.854271 0.209258
vt 0.860625 0.210211
vt 0.859876 0.211008
vt 0.859770 0.225058
vt 0.859125 0.224052
vt 0.853417 0.224105
vt 0.854166 0.223308
vt 0.867924 0.024130
vt 0.867924 0.080255
vt 0.851979 0.080255
vt 0.851979 0.024130
vt 0.836033 0.080255
vt 0.836033 0.024130
vt 0.820088 0.024130
vt 0.867924 0.142640
vt 0.867924 0.086516
vt 0.851979 0.086516
vt 0.851979 0.142640
vt 0.836033 0.086516
vt 0.836033 0.142640
vt 0.820088 0.142640
vt 0.804142 0.142640
vt 0.804142 0.086516
vt 0.788197 0.142640
vt 0.788197 0.086516
vt 0.772251 0.086516
vt 0.831018 0.223917
vt 0.830630 0.224801
vt 0.829273 0.210415
vt 0.829652 0.211129
vt 0.834986 0.209455
vt 0.834594 0.210338
vt 0.853447 0.185595
vt 0.816147 0.158455
vt 0.830780 0.157249
vt 0.853447 0.171523
vt 0.831581 0.161814
vt 0.830687 0.161375
vt 0.799461 0.350681
vt 0.830096 0.350681
vt 0.830096 0.366627
vt 0.799461 0.366627
vt 0.799461 0.382572
vt 0.830096 0.382572
vt 0.933603 0.105358
vt 0.933603 0.161483
vt 0.947381 0.161483
vt 0.947381 0.105358
vt 0.961160 0.105358
vt 0.771020 0.187758
vt 0.757976 0.187758
vt 0.758360 0.201304
vt 0.769772 0.201304
vt 0.938826 0.376261
vt 0.961160 0.161483
vt 0.938016 0.376261
vt 0.906046 0.105358
vt 0.892267 0.105358
vt 0.892267 0.161483
vt 0.906046 0.161483
vt 0.919824 0.105358
vt 0.919824 0.161483
vt 0.857535 0.345242
vt 0.820177 0.345030
vt 0.820062 0.404120
vt 0.857419 0.404332
vt 0.782723 0.196706
vt 0.777084 0.188080
vt 0.772500 0.192436
vt 0.777574 0.200496
vt 0.822570 0.209258
vt 0.822570 0.223917
vt 0.888376 0.200496
vt 0.895235 0.193793
vt 0.888866 0.188080
vt 0.883226 0.196706
vt 0.807852 0.209258
vt 0.807852 0.224665
vt 0.820879 0.224598
vt 0.821189 0.209889
vt 0.953201 0.006158
vt 0.953201 0.062500
vt 0.998290 0.062500
vt 0.998290 0.006158
vt 0.821140 0.312801
vt 0.821198 0.328032
vt 0.835552 0.327392
vt 0.835277 0.312660
vt 0.928256 0.202523
vt 0.927128 0.209398
vt 0.941265 0.209258
vt 0.941409 0.202911
vt 0.806977 0.187193
vt 0.814131 0.187193
vt 0.815988 0.173856
vt 0.809570 0.172838
vt 0.772251 0.024130
vt 0.756306 0.024130
vt 0.756306 0.080255
vt 0.772251 0.080255
vt 0.820088 0.086516
vt 0.871854 0.486940
vt 0.871855 0.277815
vt 0.788811 0.254519
vt 0.788811 0.493557
vt 0.791170 0.187181
vt 0.786054 0.187181
vt 0.783222 0.173635
vt 0.788181 0.172838
vt 0.772251 0.142640
vt 0.756306 0.086516
vt 0.830096 0.398517
vt 0.799461 0.398517
vt 0.830096 0.414463
vt 0.799461 0.414463
vt 0.830096 0.430408
vt 0.820088 0.080255
vt 0.804142 0.080255
vt 0.804142 0.024130
vt 0.788197 0.080255
vt 0.788197 0.024130
vt 0.799461 0.430408
vt 0.861824 0.349763
vt 0.861824 0.400546
vt 0.832388 0.401480
vt 0.832388 0.350697
vt 0.755751 0.467916
vt 0.826629 0.467916
vt 0.826629 0.437282
vt 0.755751 0.437282
vt 0.797950 0.189663
vt 0.804210 0.188092
vt 0.806031 0.196697
vt 0.799677 0.197790
vt 0.848602 0.469183
vt 0.895279 0.062500
vt 0.895279 0.006158
vt 0.924374 0.062500
vt 0.924374 0.006158
vt 0.756306 0.142640
vt 0.953698 0.062500
vt 0.953698 0.006158
vt 0.780748 0.226084
vt 0.780748 0.211237
vt 0.772620 0.210978
vt 0.772620 0.225825
vt 0.977352 0.513227
vt 0.973728 0.513227
vt 0.984598 0.545801
vt 0.984598 0.513227
vt 0.991845 0.513227
vt 0.995468 0.513227
usemtl e15t.tga
s 1
f 19/1 20/2 18/3
f 42/4 43/5 41/6
f 58/7 59/8 57/9
f 370/10 371/11 369/12
f 400/13 401/14 399/15
f 561/16 562/17 560/18
f 700/19 701/20 699/21
f 8/22 121/23 9/24
f 2/25 8/22 9/24
f 2/25 9/24 1/26
f 6/27 2/25 1/26
f 6/27 1/26 16/28
f 4/29 6/27 16/28
f 4/29 16/28 3/30
f 5/31 4/29 3/30
f 5/31 3/30 14/32
f 118/33 5/31 14/32
f 2/25 6/27 4/29
f 8/22 2/25 4/29
f 8/22 4/29 7/34
f 121/23 8/22 7/34
f 121/23 7/34 120/35
f 9/24 22/36 56/37
f 1/26 9/24 56/37
f 1/26 56/37 59/8
f 15/38 1/26 59/8
f 10/39 120/35 7/34
f 11/40 10/39 7/34
f 11/40 7/34 4/29
f 5/31 11/40 4/29
f 12/41 10/39 11/40
f 13/42 12/41 11/40
f 13/42 11/40 118/33
f 15/38 14/32 3/30
f 16/28 15/38 3/30
f 118/33 11/40 5/31
f 16/28 1/26 15/38
f 43/43 95/44 77/45
f 48/46 43/43 77/45
f 48/46 77/45 78/3
f 47/1 48/46 78/3
f 47/1 78/3 17/47
f 20/2 47/1 17/47
f 20/2 17/47 18/3
f 19/1 18/3 21/48
f 60/46 19/1 21/48
f 60/46 21/48 15/38
f 59/8 60/46 15/38
f 22/36 9/24 24/49
f 55/50 22/36 24/49
f 55/50 24/49 23/51
f 25/52 55/50 23/51
f 25/52 23/51 27/53
f 26/54 25/52 27/53
f 26/54 27/53 81/51
f 29/52 26/54 81/51
f 29/52 81/51 28/55
f 46/50 29/52 28/55
f 9/24 121/23 30/56
f 24/49 9/24 30/56
f 24/49 30/56 31/57
f 23/51 24/49 31/57
f 23/51 31/57 32/58
f 27/53 23/51 32/58
f 27/53 32/58 72/57
f 81/51 27/53 72/57
f 78/3 34/59 33/60
f 17/47 78/3 33/60
f 17/47 33/60 35/59
f 18/3 17/47 35/59
f 18/3 35/59 36/61
f 21/48 18/3 36/61
f 21/48 36/61 14/32
f 15/38 21/48 14/32
f 42/4 50/62 37/63
f 51/64 42/4 37/63
f 51/64 37/63 38/65
f 40/66 51/64 38/65
f 40/66 38/65 45/67
f 39/68 40/66 45/67
f 62/69 95/70 43/5
f 42/4 62/69 43/5
f 50/62 42/4 41/6
f 28/55 44/71 39/72
f 46/50 28/55 39/72
f 46/50 39/72 45/73
f 38/74 46/50 45/73
f 20/2 19/1 61/75
f 47/1 20/2 61/75
f 47/1 61/75 142/76
f 48/46 47/1 142/76
f 62/69 42/4 51/64
f 93/77 62/69 51/64
f 93/77 51/64 49/78
f 46/50 38/74 53/79
f 29/52 46/50 53/79
f 29/52 53/79 26/54
f 41/80 43/43 48/46
f 50/81 41/80 48/46
f 50/81 48/46 142/76
f 49/78 51/64 40/66
f 39/68 49/78 40/66
f 26/54 53/79 52/82
f 54/83 26/54 52/82
f 25/52 26/54 54/83
f 141/84 25/52 54/83
f 55/50 25/52 141/84
f 139/85 55/50 141/84
f 22/36 55/50 139/85
f 138/86 22/36 139/85
f 56/37 22/36 138/86
f 57/9 56/37 138/86
f 59/8 56/37 57/9
f 60/46 59/8 58/7
f 135/87 60/46 58/7
f 19/1 60/46 135/87
f 61/75 19/1 135/87
f 39/68 44/88 49/78
f 79/89 95/70 62/69
f 63/90 79/89 62/69
f 63/90 62/69 94/91
f 64/92 63/90 94/91
f 64/92 94/91 65/93
f 69/94 64/92 65/93
f 69/94 65/93 93/77
f 66/95 69/94 93/77
f 66/95 93/77 67/96
f 70/97 66/95 67/96
f 70/97 67/96 83/98
f 96/99 70/97 83/98
f 69/94 66/95 70/97
f 68/100 69/94 70/97
f 68/100 70/97 92/101
f 64/92 68/100 92/101
f 64/92 92/101 91/102
f 63/90 64/92 91/102
f 63/90 91/102 71/103
f 79/89 63/90 71/103
f 85/104 80/105 72/57
f 73/106 85/104 72/57
f 73/106 72/57 32/58
f 74/107 73/106 32/58
f 74/107 32/58 31/57
f 75/108 74/107 31/57
f 89/109 107/110 76/111
f 34/59 89/109 76/111
f 34/59 76/111 124/112
f 33/60 34/59 124/112
f 33/60 124/112 122/113
f 35/59 33/60 122/113
f 34/59 78/3 77/45
f 89/109 34/59 77/45
f 89/109 77/45 79/114
f 71/115 89/109 79/114
f 82/116 44/71 28/55
f 80/105 82/116 28/55
f 80/105 28/55 81/51
f 72/57 80/105 81/51
f 49/78 44/88 82/117
f 83/98 49/78 82/117
f 83/98 82/117 84/118
f 96/99 83/98 84/118
f 84/119 82/116 80/105
f 86/120 84/119 80/105
f 86/120 80/105 85/104
f 88/121 36/61 35/59
f 87/122 88/121 35/59
f 87/122 35/59 122/113
f 89/109 71/115 91/123
f 107/110 89/109 91/123
f 107/110 91/123 90/124
f 31/57 30/56 98/125
f 75/108 31/57 98/125
f 96/126 84/119 86/120
f 90/124 96/126 86/120
f 92/127 96/126 90/124
f 91/123 92/127 90/124
f 49/78 83/98 67/96
f 93/77 49/78 67/96
f 94/91 62/69 93/77
f 65/93 94/91 93/77
f 77/45 95/44 79/114
f 64/92 69/94 68/100
f 70/97 96/99 92/101
f 102/128 73/106 74/107
f 115/129 102/128 74/107
f 115/129 74/107 75/108
f 97/130 115/129 75/108
f 97/130 75/108 98/125
f 114/131 97/130 98/125
f 114/131 98/125 125/132
f 99/133 114/131 125/132
f 99/133 125/132 112/134
f 100/135 99/133 112/134
f 100/135 112/134 111/136
f 113/137 100/135 111/136
f 113/137 111/136 123/138
f 116/139 113/137 123/138
f 116/139 123/138 101/140
f 110/141 116/139 101/140
f 110/141 101/140 122/113
f 124/112 110/141 122/113
f 73/106 102/128 103/142
f 85/104 73/106 103/142
f 85/104 103/142 104/143
f 86/120 85/104 104/143
f 86/120 104/143 105/144
f 90/124 86/120 105/144
f 90/124 105/144 106/145
f 107/110 90/124 106/145
f 107/110 106/145 76/111
f 106/145 105/144 116/139
f 108/146 106/145 116/139
f 108/146 116/139 109/147
f 124/112 108/146 109/147
f 124/112 109/147 110/141
f 13/42 111/136 112/134
f 12/41 13/42 112/134
f 12/41 112/134 125/132
f 10/39 12/41 125/132
f 10/39 125/132 120/35
f 100/135 113/137 116/139
f 99/133 100/135 116/139
f 99/133 116/139 114/131
f 97/130 114/131 116/139
f 115/129 97/130 116/139
f 115/129 116/139 102/128
f 103/142 102/128 116/139
f 104/143 103/142 116/139
f 104/143 116/139 105/144
f 36/61 88/121 117/148
f 14/32 36/61 117/148
f 14/32 117/148 118/33
f 13/42 118/33 117/148
f 111/136 13/42 117/148
f 111/136 117/148 88/121
f 120/35 125/132 119/149
f 121/23 120/35 119/149
f 121/23 119/149 30/56
f 87/122 122/113 101/140
f 123/138 87/122 101/140
f 88/121 87/122 123/138
f 111/136 88/121 123/138
f 76/111 106/145 108/146
f 124/112 76/111 108/146
f 98/125 30/56 119/149
f 125/132 98/125 119/149
f 110/141 109/147 116/139
f 127/150 164/151 128/152
f 126/153 127/150 128/152
f 126/153 128/152 163/150
f 170/154 126/153 163/150
f 170/154 163/150 143/155
f 166/156 170/154 143/155
f 166/156 143/155 144/157
f 165/158 166/156 144/157
f 165/158 144/157 168/156
f 157/159 165/158 168/156
f 157/159 168/156 129/160
f 156/161 157/159 129/160
f 156/161 129/160 176/162
f 130/163 156/161 176/162
f 130/163 176/162 132/164
f 131/161 130/163 132/164
f 131/161 132/164 133/162
f 167/160 131/161 133/162
f 167/160 133/162 134/165
f 166/156 167/160 134/165
f 166/156 134/165 170/154
f 127/166 61/75 135/87
f 159/167 127/166 135/87
f 159/167 135/87 58/7
f 136/168 159/167 58/7
f 136/168 58/7 57/9
f 137/169 136/168 57/9
f 137/169 57/9 138/86
f 140/170 137/169 138/86
f 140/170 138/86 139/85
f 160/171 140/170 139/85
f 160/171 139/85 141/84
f 162/172 160/171 141/84
f 162/172 141/84 54/83
f 174/173 162/172 54/83
f 174/173 54/83 52/82
f 147/174 174/173 52/82
f 143/155 163/150 142/175
f 144/157 143/155 142/175
f 144/157 142/175 61/155
f 168/156 144/157 61/155
f 168/156 61/155 127/150
f 169/154 168/156 127/150
f 169/154 127/150 126/153
f 175/165 169/154 126/153
f 175/165 126/153 145/176
f 176/162 175/165 145/176
f 176/162 145/176 146/177
f 132/164 176/162 146/177
f 132/164 146/177 133/162
f 147/150 152/154 148/153
f 149/152 147/150 148/153
f 149/152 148/153 150/154
f 172/150 149/152 150/154
f 172/150 150/154 189/156
f 173/155 172/150 189/156
f 173/155 189/156 151/157
f 53/175 173/155 151/157
f 53/175 151/157 52/155
f 50/81 142/76 164/178
f 158/179 50/81 164/178
f 158/179 164/178 161/180
f 171/181 158/179 161/180
f 171/181 161/180 147/174
f 152/154 147/150 52/155
f 153/156 152/154 52/155
f 153/156 52/155 151/157
f 154/158 153/156 151/157
f 154/158 151/157 189/156
f 131/161 167/160 157/159
f 155/182 131/161 157/159
f 155/182 157/159 156/161
f 130/163 155/182 156/161
f 171/181 53/79 38/74
f 37/183 171/181 38/74
f 158/179 171/181 37/183
f 50/81 158/179 37/183
f 161/180 164/178 127/166
f 159/167 161/180 127/166
f 161/180 159/167 136/168
f 137/169 161/180 136/168
f 161/180 137/169 140/170
f 160/171 161/180 140/170
f 161/180 160/171 162/172
f 174/173 161/180 162/172
f 163/150 128/152 164/151
f 142/175 163/150 164/151
f 167/160 166/156 165/158
f 157/159 167/160 165/158
f 129/160 168/156 169/154
f 175/165 129/160 169/154
f 134/165 133/162 146/177
f 145/176 134/165 146/177
f 145/176 126/153 170/154
f 134/165 145/176 170/154
f 171/151 147/150 149/152
f 172/150 171/151 149/152
f 171/151 172/150 173/155
f 53/175 171/151 173/155
f 174/173 147/174 161/180
f 176/162 129/160 175/165
f 131/161 155/182 130/163
f 180/165 152/154 153/156
f 182/160 180/165 153/156
f 182/160 153/156 154/158
f 177/159 182/160 154/158
f 177/159 154/158 188/160
f 185/161 177/159 188/160
f 185/161 188/160 178/165
f 186/162 185/161 178/165
f 186/162 178/165 179/176
f 181/177 186/162 179/176
f 181/177 179/176 180/165
f 190/162 181/177 180/165
f 190/162 180/165 182/160
f 183/161 190/162 182/160
f 183/161 182/160 177/159
f 184/182 183/161 177/159
f 184/182 177/159 185/161
f 191/163 184/182 185/161
f 191/163 185/161 186/162
f 187/164 191/163 186/162
f 187/164 186/162 181/177
f 190/162 187/164 181/177
f 152/154 180/165 179/176
f 148/153 152/154 179/176
f 148/153 179/176 178/165
f 150/154 148/153 178/165
f 150/154 178/165 188/160
f 189/156 150/154 188/160
f 189/156 188/160 154/158
f 187/164 190/162 183/161
f 191/163 187/164 183/161
f 191/163 183/161 184/182
f 206/184 211/185 219/186
f 212/187 206/184 219/186
f 212/187 219/186 192/188
f 213/189 212/187 192/188
f 213/189 192/188 193/190
f 215/191 213/189 193/190
f 215/191 193/190 194/192
f 196/193 215/191 194/192
f 196/193 194/192 195/194
f 198/195 196/193 195/194
f 198/195 195/194 197/196
f 239/197 198/195 197/196
f 239/197 197/196 199/198
f 240/199 239/197 199/198
f 240/199 199/198 200/200
f 201/201 240/199 200/200
f 201/201 200/200 209/202
f 233/203 201/201 209/202
f 233/203 209/202 202/204
f 203/205 233/203 202/204
f 203/205 202/204 210/206
f 205/207 203/205 210/206
f 205/207 210/206 204/208
f 206/209 205/207 204/208
f 206/209 204/208 211/185
f 199/198 197/196 207/210
f 200/200 199/198 207/210
f 200/200 207/210 208/211
f 209/202 200/200 208/211
f 209/202 208/211 229/212
f 202/204 209/202 229/212
f 202/204 229/212 237/213
f 210/206 202/204 237/213
f 210/206 237/213 241/214
f 204/208 210/206 241/214
f 204/208 241/214 211/185
f 205/207 206/209 212/215
f 214/216 205/207 212/215
f 214/216 212/215 213/217
f 222/218 214/216 213/217
f 222/218 213/217 215/219
f 223/220 222/218 215/219
f 223/220 215/219 196/221
f 224/222 223/220 196/221
f 224/222 196/221 198/223
f 239/197 224/222 198/223
f 207/210 197/196 195/194
f 216/224 207/210 195/194
f 216/224 195/194 194/192
f 217/225 216/224 194/192
f 217/225 194/192 193/190
f 218/226 217/225 193/190
f 218/226 193/190 192/188
f 220/227 218/226 192/188
f 220/227 192/188 219/186
f 211/185 220/227 219/186
f 203/205 205/207 214/216
f 226/228 203/205 214/216
f 226/228 214/216 222/218
f 221/229 226/228 222/218
f 221/229 222/218 223/220
f 228/230 221/229 223/220
f 228/230 223/220 224/222
f 239/197 228/230 224/222
f 208/211 207/210 216/224
f 230/231 208/211 216/224
f 230/231 216/224 217/225
f 231/232 230/231 217/225
f 231/232 217/225 218/226
f 225/233 231/232 218/226
f 225/233 218/226 220/227
f 211/185 225/233 220/227
f 233/203 203/205 226/228
f 227/234 233/203 226/228
f 227/234 226/228 221/229
f 235/235 227/234 221/229
f 235/235 221/229 228/230
f 239/197 235/235 228/230
f 229/212 208/211 230/231
f 232/236 229/212 230/231
f 232/236 230/231 231/232
f 238/237 232/236 231/232
f 238/237 231/232 225/233
f 211/185 238/237 225/233
f 201/201 233/203 227/234
f 234/238 201/201 227/234
f 234/238 227/234 235/235
f 239/197 234/238 235/235
f 237/213 229/212 232/236
f 236/239 237/213 232/236
f 236/239 232/236 238/237
f 211/185 236/239 238/237
f 234/238 239/197 240/199
f 201/201 234/238 240/199
f 241/214 237/213 236/239
f 211/185 241/214 236/239
f 253/184 260/185 243/186
f 242/187 253/184 243/186
f 242/187 243/186 270/188
f 245/189 242/187 270/188
f 245/189 270/188 244/190
f 246/191 245/189 244/190
f 246/191 244/190 247/192
f 261/193 246/191 247/192
f 261/193 247/192 267/194
f 262/195 261/193 267/194
f 262/195 267/194 264/196
f 289/197 262/195 264/196
f 289/197 264/196 255/198
f 248/199 289/197 255/198
f 248/199 255/198 254/200
f 290/201 248/199 254/200
f 290/201 254/200 249/202
f 250/203 290/201 249/202
f 250/203 249/202 251/204
f 271/205 250/203 251/204
f 271/205 251/204 257/206
f 252/207 271/205 257/206
f 252/207 257/206 259/208
f 253/209 252/207 259/208
f 253/209 259/208 260/185
f 255/198 264/196 265/210
f 254/200 255/198 265/210
f 254/200 265/210 282/211
f 249/202 254/200 282/211
f 249/202 282/211 284/212
f 251/204 249/202 284/212
f 251/204 284/212 256/213
f 257/206 251/204 256/213
f 257/206 256/213 258/214
f 259/208 257/206 258/214
f 259/208 258/214 260/185
f 252/207 253/209 242/215
f 272/216 252/207 242/215
f 272/216 242/215 245/217
f 274/218 272/216 245/217
f 274/218 245/217 246/219
f 275/220 274/218 246/219
f 275/220 246/219 261/221
f 263/222 275/220 261/221
f 263/222 261/221 262/223
f 289/197 263/222 262/223
f 265/210 264/196 267/194
f 266/224 265/210 267/194
f 266/224 267/194 247/192
f 268/225 266/224 247/192
f 268/225 247/192 244/190
f 269/226 268/225 244/190
f 269/226 244/190 270/188
f 278/227 269/226 270/188
f 278/227 270/188 243/186
f 260/185 278/227 243/186
f 271/205 252/207 272/216
f 280/228 271/205 272/216
f 280/228 272/216 274/218
f 273/229 280/228 274/218
f 273/229 274/218 275/220
f 276/230 273/229 275/220
f 276/230 275/220 263/222
f 289/197 276/230 263/222
f 282/211 265/210 266/224
f 277/231 282/211 266/224
f 277/231 266/224 268/225
f 285/232 277/231 268/225
f 285/232 268/225 269/226
f 279/233 285/232 269/226
f 279/233 269/226 278/227
f 260/185 279/233 278/227
f 250/203 271/205 280/228
f 286/234 250/203 280/228
f 286/234 280/228 273/229
f 281/235 286/234 273/229
f 281/235 273/229 276/230
f 289/197 281/235 276/230
f 284/212 282/211 277/231
f 283/236 284/212 277/231
f 283/236 277/231 285/232
f 287/237 283/236 285/232
f 287/237 285/232 279/233
f 260/185 287/237 279/233
f 290/201 250/203 286/234
f 291/238 290/201 286/234
f 291/238 286/234 281/235
f 289/197 291/238 281/235
f 256/213 284/212 283/236
f 288/239 256/213 283/236
f 288/239 283/236 287/237
f 260/185 288/239 287/237
f 291/238 289/197 248/199
f 290/201 291/238 248/199
f 258/214 256/213 288/239
f 260/185 258/214 288/239
f 334/240 740/241 293/242
f 336/243 334/240 293/242
f 336/243 293/242 292/244
f 294/245 336/243 292/244
f 294/245 292/244 296/246
f 295/247 294/245 296/246
f 295/247 296/246 299/248
f 297/249 295/247 299/248
f 297/249 299/248 298/250
f 300/251 297/249 298/250
f 300/251 298/250 301/252
f 333/253 300/251 301/252
f 333/253 301/252 302/254
f 349/255 333/253 302/254
f 349/255 302/254 322/256
f 303/257 349/255 322/256
f 303/257 322/256 320/258
f 304/259 303/257 320/258
f 304/259 320/258 305/260
f 350/261 304/259 305/260
f 350/261 305/260 319/262
f 335/263 350/261 319/262
f 335/263 319/262 740/241
f 334/240 335/263 740/241
f 337/12 307/10 306/264
f 339/265 337/12 306/264
f 339/265 306/264 309/266
f 308/267 339/265 309/266
f 308/267 309/266 311/268
f 347/269 308/267 311/268
f 347/269 311/268 310/270
f 312/271 347/269 310/270
f 312/271 310/270 313/272
f 314/273 312/271 313/272
f 314/273 313/272 315/274
f 316/275 314/273 315/274
f 316/275 315/274 318/276
f 317/277 316/275 318/276
f 317/277 318/276 329/278
f 348/279 317/277 329/278
f 739/280 740/281 319/10
f 325/282 739/280 319/10
f 325/282 319/10 305/264
f 326/283 325/282 305/264
f 326/283 305/264 320/266
f 327/284 326/283 320/266
f 327/284 320/266 322/268
f 321/285 327/284 322/268
f 321/285 322/268 302/270
f 324/286 321/285 302/270
f 324/286 302/270 301/272
f 323/287 324/286 301/272
f 323/287 301/272 298/274
f 328/288 323/287 298/274
f 307/10 325/282 326/283
f 306/264 307/10 326/283
f 306/264 326/283 327/284
f 309/266 306/264 327/284
f 309/266 327/284 321/285
f 311/268 309/266 321/285
f 311/268 321/285 324/286
f 310/270 311/268 324/286
f 310/270 324/286 323/287
f 313/272 310/270 323/287
f 313/272 323/287 328/288
f 315/274 313/272 328/288
f 315/274 328/288 742/289
f 318/276 315/274 742/289
f 329/278 344/290 330/14
f 348/279 329/278 330/14
f 348/279 330/14 346/291
f 331/292 348/279 346/291
f 331/292 346/291 332/293
f 338/11 331/292 332/293
f 338/11 332/293 747/281
f 307/10 338/11 747/281
f 307/10 747/281 745/280
f 325/282 307/10 745/280
f 333/253 349/255 350/261
f 300/251 333/253 350/261
f 300/251 350/261 335/263
f 297/249 300/251 335/263
f 297/249 335/263 334/240
f 295/247 297/249 334/240
f 295/247 334/240 336/243
f 294/245 295/247 336/243
f 338/11 307/10 337/12
f 331/292 338/11 337/12
f 331/292 337/12 339/265
f 308/267 331/292 339/265
f 340/294 299/276 296/278
f 343/295 340/294 296/278
f 343/295 296/278 341/290
f 738/15 292/14 293/13
f 342/296 738/15 293/13
f 342/296 293/13 750/297
f 343/295 344/290 329/278
f 741/294 343/295 329/278
f 741/294 329/278 318/276
f 346/291 330/14 345/13
f 332/293 346/291 345/13
f 332/293 345/13 747/281
f 298/274 299/276 749/289
f 328/288 298/274 749/289
f 345/13 330/14 744/15
f 342/296 345/13 744/15
f 345/13 342/296 748/297
f 747/281 345/13 748/297
f 331/292 308/267 347/269
f 312/271 331/292 347/269
f 331/292 312/271 314/273
f 316/275 331/292 314/273
f 331/292 316/275 317/277
f 348/279 331/292 317/277
f 349/255 303/257 304/259
f 350/261 349/255 304/259
f 296/278 292/14 341/290
f 293/13 740/281 750/297
f 351/245 392/246 401/244
f 409/243 351/245 401/244
f 409/243 401/244 400/242
f 410/240 409/243 400/242
f 410/240 400/242 752/241
f 353/263 410/240 752/241
f 353/263 752/241 352/262
f 389/261 353/263 352/262
f 389/261 352/262 361/260
f 390/259 389/261 361/260
f 390/259 361/260 382/258
f 391/257 390/259 382/258
f 391/257 382/258 381/256
f 354/255 391/257 381/256
f 354/255 381/256 356/254
f 355/253 354/255 356/254
f 355/253 356/254 357/252
f 412/251 355/253 357/252
f 412/251 357/252 358/250
f 359/249 412/251 358/250
f 359/249 358/250 360/248
f 411/247 359/249 360/248
f 411/247 360/248 392/246
f 351/245 411/247 392/246
f 361/264 352/10 753/282
f 388/283 361/264 753/282
f 388/283 753/282 370/10
f 362/264 388/283 370/10
f 362/264 370/10 369/12
f 363/265 362/264 369/12
f 363/265 369/12 405/292
f 394/267 363/265 405/292
f 394/267 405/292 376/269
f 395/268 394/267 376/269
f 395/268 376/269 377/270
f 378/286 395/268 377/270
f 378/286 377/270 374/287
f 357/272 378/286 374/287
f 357/272 374/287 358/274
f 365/278 384/277 364/279
f 396/14 365/278 364/279
f 396/14 364/279 366/291
f 367/13 396/14 366/291
f 367/13 366/291 404/293
f 368/281 367/13 404/293
f 368/281 404/293 371/11
f 370/10 368/281 371/11
f 372/289 360/276 358/274
f 373/288 372/289 358/274
f 373/288 358/274 374/287
f 386/272 373/288 374/287
f 386/272 374/287 377/270
f 375/271 386/272 377/270
f 375/271 377/270 376/269
f 405/292 375/271 376/269
f 378/286 357/272 356/270
f 379/285 378/286 356/270
f 379/285 356/270 381/268
f 380/284 379/285 381/268
f 380/284 381/268 382/266
f 388/283 380/284 382/266
f 388/283 382/266 361/264
f 365/278 383/294 407/276
f 384/277 365/278 407/276
f 384/277 407/276 385/275
f 405/292 384/277 385/275
f 405/292 385/275 398/273
f 375/271 405/292 398/273
f 375/271 398/273 386/272
f 395/268 378/286 379/285
f 387/266 395/268 379/285
f 387/266 379/285 380/284
f 362/264 387/266 380/284
f 362/264 380/284 388/283
f 355/253 412/251 389/261
f 354/255 355/253 389/261
f 354/255 389/261 390/259
f 391/257 354/255 390/259
f 757/290 401/14 392/278
f 751/295 757/290 392/278
f 751/295 392/278 393/294
f 394/267 395/268 387/266
f 363/265 394/267 387/266
f 363/265 387/266 362/264
f 751/295 383/294 365/278
f 397/290 751/295 365/278
f 397/290 365/278 396/14
f 398/273 385/275 408/274
f 386/272 398/273 408/274
f 386/272 408/274 373/288
f 403/296 400/13 399/15
f 352/10 752/281 402/280
f 753/282 352/10 402/280
f 400/13 403/296 759/297
f 752/281 400/13 759/297
f 370/10 753/282 761/280
f 368/281 370/10 761/280
f 405/292 369/12 371/11
f 404/293 405/292 371/11
f 405/292 404/293 366/291
f 364/279 405/292 366/291
f 367/13 368/281 406/297
f 403/296 367/13 406/297
f 367/13 403/296 760/15
f 396/14 367/13 760/15
f 408/274 385/275 407/276
f 756/289 408/274 407/276
f 411/247 351/245 409/243
f 410/240 411/247 409/243
f 359/249 411/247 410/240
f 353/263 359/249 410/240
f 412/251 359/249 353/263
f 389/261 412/251 353/263
f 392/278 360/276 393/294
f 405/292 364/279 384/277
f 756/289 373/288 408/274
f 413/298 414/299 453/300
f 637/301 413/298 453/300
f 637/301 453/300 415/302
f 416/303 637/301 415/302
f 416/303 415/302 460/304
f 418/305 416/303 460/304
f 418/305 460/304 417/306
f 419/307 418/305 417/306
f 419/307 417/306 458/308
f 722/309 419/307 458/308
f 722/309 458/308 469/310
f 642/311 722/309 469/310
f 642/311 469/310 457/312
f 641/313 642/311 457/312
f 641/313 457/312 420/314
f 640/315 641/313 420/314
f 640/315 420/314 421/316
f 423/317 640/315 421/316
f 423/317 421/316 422/318
f 639/319 423/317 422/318
f 639/319 422/318 424/320
f 425/321 639/319 424/320
f 425/321 424/320 414/299
f 413/298 425/321 414/299
f 426/322 439/323 428/324
f 496/325 426/322 428/324
f 496/325 428/324 427/326
f 498/327 496/325 427/326
f 498/327 427/326 430/328
f 429/329 498/327 430/328
f 429/329 430/328 431/330
f 433/331 429/329 431/330
f 433/331 431/330 432/332
f 502/333 433/331 432/332
f 502/333 432/332 434/334
f 435/335 502/333 434/334
f 435/335 434/334 447/336
f 504/337 435/335 447/336
f 504/337 447/336 437/338
f 505/339 504/337 437/338
f 505/339 437/338 436/340
f 438/341 505/339 436/340
f 438/341 436/340 451/17
f 506/342 438/341 451/17
f 506/342 451/17 450/343
f 440/344 506/342 450/343
f 440/344 450/343 439/345
f 426/346 440/344 439/345
f 439/323 452/347 442/348
f 428/324 439/323 442/348
f 428/324 442/348 441/349
f 427/326 428/324 441/349
f 427/326 441/349 456/350
f 430/328 427/326 456/350
f 430/328 456/350 443/351
f 431/330 430/328 443/351
f 431/330 443/351 444/352
f 432/332 431/330 444/352
f 432/332 444/352 445/353
f 434/334 432/332 445/353
f 434/334 445/353 446/354
f 447/336 434/334 446/354
f 447/336 446/354 448/355
f 437/338 447/336 448/355
f 437/338 448/355 449/356
f 436/340 437/338 449/356
f 436/340 449/356 459/16
f 451/17 436/340 459/16
f 451/17 459/16 461/18
f 450/343 451/17 461/18
f 450/343 461/18 452/357
f 439/345 450/343 452/357
f 452/347 453/358 464/359
f 442/348 452/347 464/359
f 442/348 464/359 454/360
f 441/349 442/348 454/360
f 441/349 454/360 455/361
f 456/350 441/349 455/361
f 456/350 455/361 467/362
f 443/351 456/350 467/362
f 443/351 467/362 420/363
f 444/352 443/351 420/363
f 444/352 420/363 457/364
f 445/353 444/352 457/364
f 445/353 457/364 469/365
f 446/354 445/353 469/365
f 446/354 469/365 458/366
f 448/355 446/354 458/366
f 448/355 458/366 470/367
f 449/356 448/355 470/367
f 449/356 470/367 460/368
f 459/16 449/356 460/368
f 459/16 460/368 415/369
f 461/18 459/16 415/369
f 461/18 415/369 453/370
f 452/357 461/18 453/370
f 453/358 462/371 463/372
f 464/359 453/358 463/372
f 464/359 463/372 474/373
f 454/360 464/359 474/373
f 454/360 474/373 465/374
f 455/361 454/360 465/374
f 455/361 465/374 466/375
f 467/362 455/361 466/375
f 467/362 466/375 476/376
f 420/363 467/362 476/376
f 420/363 476/376 468/377
f 457/364 420/363 468/377
f 457/364 468/377 479/378
f 469/365 457/364 479/378
f 469/365 479/378 480/379
f 458/366 469/365 480/379
f 458/366 480/379 471/380
f 470/367 458/366 471/380
f 470/367 471/380 472/381
f 460/368 470/367 472/381
f 460/368 472/381 484/382
f 415/369 460/368 484/382
f 415/369 484/382 462/383
f 453/370 415/369 462/383
f 462/371 485/384 473/385
f 463/372 462/371 473/385
f 463/372 473/385 475/386
f 474/373 463/372 475/386
f 474/373 475/386 486/387
f 465/374 474/373 486/387
f 465/374 486/387 487/388
f 466/375 465/374 487/388
f 466/375 487/388 489/389
f 476/376 466/375 489/389
f 476/376 489/389 478/390
f 468/377 476/376 478/390
f 468/377 478/390 477/391
f 479/378 468/377 477/391
f 479/378 477/391 481/392
f 480/379 479/378 481/392
f 480/379 481/392 494/393
f 471/380 480/379 494/393
f 471/380 494/393 482/394
f 472/381 471/380 482/394
f 472/381 482/394 483/395
f 484/382 472/381 483/395
f 484/382 483/395 485/396
f 462/383 484/382 485/396
f 485/384 495/397 497/398
f 473/385 485/384 497/398
f 473/385 497/398 499/399
f 475/386 473/385 499/399
f 475/386 499/399 501/400
f 486/387 475/386 501/400
f 486/387 501/400 500/401
f 487/388 486/387 500/401
f 487/388 500/401 503/402
f 489/389 487/388 503/402
f 489/389 503/402 488/403
f 478/390 489/389 488/403
f 478/390 488/403 490/404
f 477/391 478/390 490/404
f 477/391 490/404 491/405
f 481/392 477/391 491/405
f 481/392 491/405 492/406
f 494/393 481/392 492/406
f 494/393 492/406 493/407
f 482/394 494/393 493/407
f 482/394 493/407 507/408
f 483/395 482/394 507/408
f 483/395 507/408 495/409
f 485/396 483/395 495/409
f 495/397 426/410 496/411
f 497/398 495/397 496/411
f 497/398 496/411 498/412
f 499/399 497/398 498/412
f 499/399 498/412 429/413
f 501/400 499/399 429/413
f 501/400 429/413 433/414
f 500/401 501/400 433/414
f 500/401 433/414 502/415
f 503/402 500/401 502/415
f 503/402 502/415 435/416
f 488/403 503/402 435/416
f 488/403 435/416 504/417
f 490/404 488/403 504/417
f 490/404 504/417 505/418
f 491/405 490/404 505/418
f 491/405 505/418 438/419
f 492/406 491/405 438/419
f 492/406 438/419 506/420
f 493/407 492/406 506/420
f 493/407 506/420 440/421
f 507/408 493/407 440/421
f 507/408 440/421 426/422
f 495/409 507/408 426/422
f 508/423 523/424 563/425
f 728/426 508/423 563/425
f 728/426 563/425 595/427
f 730/428 728/426 595/427
f 730/428 595/427 509/429
f 511/430 730/428 509/429
f 511/430 509/429 510/431
f 512/432 511/430 510/431
f 512/432 510/431 513/433
f 515/434 512/432 513/433
f 515/434 513/433 516/435
f 514/436 515/434 516/435
f 514/436 516/435 544/437
f 517/438 514/436 544/437
f 517/438 544/437 590/439
f 518/440 517/438 590/439
f 518/440 590/439 582/441
f 519/442 518/440 582/441
f 519/442 582/441 521/443
f 520/444 519/442 521/443
f 520/444 521/443 522/445
f 727/446 520/444 522/445
f 727/446 522/445 523/424
f 508/423 727/446 523/424
f 524/413 601/412 602/399
f 526/400 524/413 602/399
f 526/400 602/399 525/386
f 527/387 526/400 525/386
f 527/387 525/386 528/373
f 549/374 527/387 528/373
f 549/374 528/373 529/360
f 530/361 549/374 529/360
f 530/361 529/360 604/349
f 550/350 530/361 604/349
f 550/350 604/349 531/326
f 551/328 550/350 531/326
f 551/328 531/326 601/327
f 524/329 551/328 601/327
f 533/416 537/415 532/402
f 534/403 533/416 532/402
f 534/403 532/402 539/389
f 535/390 534/403 539/389
f 535/390 539/389 542/376
f 536/377 535/390 542/376
f 536/377 542/376 544/363
f 590/364 536/377 544/363
f 590/364 544/363 545/352
f 589/353 590/364 545/352
f 589/353 545/352 547/332
f 587/334 589/353 547/332
f 587/334 547/332 537/333
f 533/335 587/334 537/333
f 537/415 552/414 548/401
f 532/402 537/415 548/401
f 532/402 548/401 538/388
f 539/389 532/402 538/388
f 539/389 538/388 540/375
f 542/376 539/389 540/375
f 542/376 540/375 541/362
f 544/363 542/376 541/362
f 544/363 541/362 543/351
f 545/352 544/363 543/351
f 545/352 543/351 546/330
f 547/332 545/352 546/330
f 547/332 546/330 552/331
f 537/333 547/332 552/331
f 552/414 524/413 526/400
f 548/401 552/414 526/400
f 548/401 526/400 527/387
f 538/388 548/401 527/387
f 538/388 527/387 549/374
f 540/375 538/388 549/374
f 540/375 549/374 530/361
f 541/362 540/375 530/361
f 541/362 530/361 550/350
f 543/351 541/362 550/350
f 543/351 550/350 551/328
f 546/330 543/351 551/328
f 546/330 551/328 524/329
f 552/331 546/330 524/329
f 554/344 553/346 599/345
f 559/343 554/344 599/345
f 559/343 599/345 598/357
f 560/18 559/343 598/357
f 560/18 598/357 595/370
f 563/369 560/18 595/370
f 563/369 595/370 555/383
f 564/382 563/369 555/383
f 564/382 555/383 592/396
f 556/395 564/382 592/396
f 556/395 592/396 557/409
f 558/408 556/395 557/409
f 558/408 557/409 553/422
f 554/421 558/408 553/422
f 566/342 554/344 559/343
f 562/17 566/342 559/343
f 562/17 559/343 560/18
f 561/16 560/18 563/369
f 523/368 561/16 563/369
f 523/368 563/369 564/382
f 569/381 523/368 564/382
f 569/381 564/382 556/395
f 570/394 569/381 556/395
f 570/394 556/395 558/408
f 565/407 570/394 558/408
f 565/407 558/408 554/421
f 566/420 565/407 554/421
f 573/341 566/342 562/17
f 574/340 573/341 562/17
f 574/340 562/17 561/16
f 567/356 574/340 561/16
f 567/356 561/16 523/368
f 568/367 567/356 523/368
f 568/367 523/368 569/381
f 576/380 568/367 569/381
f 576/380 569/381 570/394
f 571/393 576/380 570/394
f 571/393 570/394 565/407
f 572/406 571/393 565/407
f 572/406 565/407 566/420
f 573/419 572/406 566/420
f 578/339 573/341 574/340
f 575/338 578/339 574/340
f 575/338 574/340 567/356
f 579/355 575/338 567/356
f 579/355 567/356 568/367
f 521/366 579/355 568/367
f 521/366 568/367 576/380
f 581/379 521/366 576/380
f 581/379 576/380 571/393
f 584/392 581/379 571/393
f 584/392 571/393 572/406
f 577/405 584/392 572/406
f 577/405 572/406 573/419
f 578/418 577/405 573/419
f 586/337 578/339 575/338
f 588/336 586/337 575/338
f 588/336 575/338 579/355
f 580/354 588/336 579/355
f 580/354 579/355 521/366
f 582/365 580/354 521/366
f 582/365 521/366 581/379
f 583/378 582/365 581/379
f 583/378 581/379 584/392
f 591/391 583/378 584/392
f 591/391 584/392 577/405
f 585/404 591/391 577/405
f 585/404 577/405 578/418
f 586/417 585/404 578/418
f 533/335 586/337 588/336
f 587/334 533/335 588/336
f 587/334 588/336 580/354
f 589/353 587/334 580/354
f 589/353 580/354 582/365
f 590/364 589/353 582/365
f 590/364 582/365 583/378
f 536/377 590/364 583/378
f 536/377 583/378 591/391
f 535/390 536/377 591/391
f 535/390 591/391 585/404
f 534/403 535/390 585/404
f 534/403 585/404 586/417
f 533/416 534/403 586/417
f 605/411 553/410 557/397
f 593/398 605/411 557/397
f 593/398 557/397 592/384
f 594/385 593/398 592/384
f 594/385 592/384 555/371
f 596/372 594/385 555/371
f 596/372 555/371 595/358
f 597/359 596/372 595/358
f 597/359 595/358 598/347
f 603/348 597/359 598/347
f 603/348 598/347 599/323
f 600/324 603/348 599/323
f 600/324 599/323 553/322
f 605/325 600/324 553/322
f 601/412 605/411 593/398
f 602/399 601/412 593/398
f 602/399 593/398 594/385
f 525/386 602/399 594/385
f 525/386 594/385 596/372
f 528/373 525/386 596/372
f 528/373 596/372 597/359
f 529/360 528/373 597/359
f 529/360 597/359 603/348
f 604/349 529/360 603/348
f 604/349 603/348 600/324
f 531/326 604/349 600/324
f 531/326 600/324 605/325
f 601/327 531/326 605/325
f 661/447 658/448 660/449
f 606/450 661/447 660/449
f 606/450 660/449 655/451
f 607/452 606/450 655/451
f 607/452 655/451 659/453
f 608/454 607/452 659/453
f 608/454 659/453 658/448
f 661/447 608/454 658/448
f 612/455 611/456 694/457
f 673/458 612/455 694/457
f 673/458 694/457 724/459
f 609/460 673/458 724/459
f 609/460 724/459 610/461
f 731/462 609/460 610/461
f 731/462 610/461 611/456
f 612/455 731/462 611/456
f 613/462 614/456 615/461
f 616/460 613/462 615/461
f 616/460 615/461 716/459
f 675/458 616/460 716/459
f 675/458 716/459 714/457
f 636/455 675/458 714/457
f 636/455 714/457 614/456
f 613/462 636/455 614/456
f 700/454 670/448 672/453
f 701/452 700/454 672/453
f 701/452 672/453 671/451
f 617/450 701/452 671/451
f 617/450 671/451 674/449
f 618/447 617/450 674/449
f 618/447 674/449 670/448
f 700/454 618/447 670/448
f 618/463 700/464 619/465
f 621/466 618/463 619/465
f 621/466 619/465 620/467
f 732/468 621/466 620/467
f 732/468 620/467 669/469
f 661/470 606/471 703/472
f 662/473 661/470 703/472
f 662/473 703/472 634/474
f 711/475 662/473 634/474
f 711/475 634/474 622/476
f 719/477 622/476 624/478
f 623/479 719/477 624/478
f 623/479 624/478 644/480
f 680/481 623/479 644/480
f 625/482 627/483 705/484
f 707/485 625/482 705/484
f 707/485 705/484 626/486
f 708/487 707/485 626/486
f 708/488 626/489 628/490
f 736/491 708/488 628/490
f 736/491 628/490 627/492
f 625/493 736/491 627/492
f 619/494 699/495 629/496
f 620/497 619/494 629/496
f 620/497 629/496 685/498
f 688/479 683/480 667/478
f 630/477 688/479 667/478
f 630/477 667/478 669/476
f 712/498 631/499 632/496
f 710/497 712/498 632/496
f 710/497 632/496 663/494
f 631/500 633/501 634/502
f 632/503 631/500 634/502
f 632/503 634/502 702/504
f 636/505 613/506 635/507
f 678/508 636/505 635/507
f 678/508 635/507 612/505
f 416/303 418/305 638/509
f 637/301 416/303 638/509
f 637/301 638/509 413/298
f 425/321 413/298 638/509
f 639/319 425/321 638/509
f 639/319 638/509 423/317
f 640/315 423/317 638/509
f 641/313 640/315 638/509
f 641/313 638/509 642/311
f 699/504 643/510 679/502
f 629/503 699/504 679/502
f 629/503 679/502 681/500
f 519/442 520/444 729/511
f 518/440 519/442 729/511
f 518/440 729/511 517/438
f 514/436 517/438 729/511
f 515/434 514/436 729/511
f 515/434 729/511 512/432
f 693/512 691/513 680/514
f 644/515 693/512 680/514
f 645/516 693/512 644/515
f 624/517 645/516 644/515
f 631/500 645/516 624/517
f 633/501 631/500 624/517
f 646/518 647/519 653/520
f 648/521 646/518 653/520
f 648/522 653/523 652/524
f 649/525 648/522 652/524
f 652/483 651/484 650/526
f 649/527 652/483 650/526
f 650/528 651/529 647/530
f 646/531 650/528 647/530
f 653/490 647/489 654/488
f 696/491 653/490 654/488
f 652/492 653/490 696/491
f 734/493 652/492 696/491
f 651/484 652/483 734/482
f 733/485 651/484 734/482
f 647/486 651/484 733/485
f 654/487 647/486 733/485
f 666/532 665/533 655/534
f 660/535 666/532 655/534
f 635/536 676/537 609/538
f 731/539 635/536 609/538
f 656/540 657/541 658/542
f 659/543 656/540 658/542
f 665/544 656/545 659/546
f 655/547 665/544 659/546
f 657/548 666/549 660/550
f 658/551 657/548 660/550
f 663/465 608/464 661/463
f 662/466 663/465 661/463
f 710/467 663/465 662/466
f 711/468 710/467 662/466
f 664/552 734/553 696/554
f 698/555 664/552 696/554
f 666/532 674/535 671/534
f 665/533 666/532 671/534
f 669/476 667/478 668/556
f 679/474 669/476 668/556
f 676/557 677/558 673/559
f 609/560 676/557 673/559
f 656/540 672/543 670/542
f 657/541 656/540 670/542
f 665/544 671/547 672/546
f 656/545 665/544 672/546
f 677/561 678/562 612/563
f 673/564 677/561 612/563
f 657/548 670/551 674/550
f 666/549 657/548 674/550
f 676/557 616/560 675/559
f 677/558 676/557 675/559
f 622/476 634/474 633/556
f 624/478 622/476 633/556
f 677/561 675/564 636/563
f 678/562 677/561 636/563
f 643/472 617/471 618/470
f 621/473 643/472 618/470
f 679/474 643/472 621/473
f 732/475 679/474 621/473
f 664/565 623/479 680/481
f 733/566 664/565 680/481
f 681/500 679/502 668/501
f 667/517 681/500 668/501
f 682/516 681/500 667/517
f 683/515 682/516 667/517
f 684/512 682/516 683/515
f 735/514 684/512 683/515
f 685/498 629/496 681/499
f 682/567 685/498 681/499
f 687/568 685/498 682/567
f 684/569 687/568 682/567
f 686/570 687/568 684/569
f 697/571 686/570 684/569
f 669/469 620/467 685/572
f 687/573 669/469 685/572
f 630/574 669/469 687/573
f 686/575 630/574 687/573
f 688/576 630/574 686/575
f 689/555 688/576 686/575
f 690/552 688/576 689/555
f 736/554 690/552 689/555
f 635/536 613/539 616/538
f 676/537 635/536 616/538
f 692/570 698/577 691/571
f 693/569 692/570 691/571
f 720/568 692/570 693/569
f 645/567 720/568 693/569
f 695/578 725/579 724/580
f 694/581 695/578 724/580
f 712/498 720/568 645/567
f 631/499 712/498 645/567
f 654/582 691/583 698/584
f 696/585 654/582 698/584
f 721/586 695/587 694/588
f 611/589 721/586 694/588
f 626/530 705/529 704/528
f 723/531 626/530 704/528
f 689/584 697/583 708/582
f 736/585 689/584 708/582
f 623/576 664/552 698/555
f 692/575 623/576 698/555
f 619/590 700/19 699/21
f 701/539 617/538 643/591
f 699/592 701/539 643/591
f 702/21 607/20 608/19
f 663/590 702/21 608/19
f 703/591 606/538 607/539
f 702/592 703/591 607/539
f 704/526 705/484 627/483
f 706/527 704/526 627/483
f 708/538 697/593 735/594
f 707/539 708/538 735/594
f 627/524 628/523 709/522
f 706/525 627/524 709/522
f 719/574 623/576 692/575
f 720/573 719/574 692/575
f 690/565 625/595 707/566
f 735/481 690/565 707/566
f 688/479 690/565 735/481
f 683/480 688/479 735/481
f 710/467 711/468 622/469
f 712/572 710/467 622/469
f 714/588 715/587 713/586
f 614/589 714/588 713/586
f 716/580 718/579 715/578
f 714/581 716/580 715/578
f 717/539 718/538 716/596
f 615/597 717/539 716/596
f 713/598 717/599 615/600
f 614/601 713/598 615/600
f 622/469 719/574 720/573
f 712/572 622/469 720/573
f 610/600 726/599 721/598
f 611/601 610/600 721/598
f 638/509 418/305 419/307
f 722/309 638/509 419/307
f 628/520 626/519 723/518
f 709/521 628/520 723/518
f 724/596 725/538 726/539
f 610/597 724/596 726/539
f 729/511 520/444 727/446
f 508/423 729/511 727/446
f 729/511 508/423 728/426
f 730/428 729/511 728/426
f 729/511 730/428 511/430
f 512/432 729/511 511/430
f 680/594 691/593 654/538
f 733/539 680/594 654/538
f 635/507 731/506 612/505
f 632/496 702/495 663/494
f 634/502 703/510 702/504
f 732/475 669/476 679/474
f 733/566 734/595 664/565
f 735/514 697/513 684/512
f 697/571 689/577 686/570
f 736/554 625/553 690/552
f 722/309 642/311 638/509
f 340/602 343/603 743/604
f 299/605 340/602 743/604
f 299/605 743/604 749/606
f 738/602 342/603 737/604
f 292/605 738/602 737/604
f 292/605 737/604 341/606
f 739/602 325/603 746/604
f 740/605 739/602 746/604
f 740/605 746/604 750/606
f 743/604 343/603 741/602
f 318/605 743/604 741/602
f 743/604 318/605 742/606
f 328/607 743/604 742/606
f 737/604 342/603 744/602
f 330/605 737/604 744/602
f 737/604 330/605 344/606
f 343/607 737/604 344/606
f 746/604 325/603 745/602
f 747/605 746/604 745/602
f 746/604 747/605 748/606
f 342/607 746/604 748/606
f 749/606 743/604 328/607
f 341/606 737/604 343/607
f 750/606 746/604 342/607
f 360/605 372/606 755/604
f 393/602 360/605 755/604
f 393/602 755/604 751/603
f 399/602 401/605 758/604
f 403/603 399/602 758/604
f 403/603 758/604 760/602
f 752/605 759/606 754/604
f 402/602 752/605 754/604
f 402/602 754/604 753/603
f 755/604 372/606 373/607
f 756/606 755/604 373/607
f 755/604 756/606 407/605
f 383/602 755/604 407/605
f 758/604 401/605 757/606
f 751/607 758/604 757/606
f 758/604 751/607 397/606
f 396/605 758/604 397/606
f 754/604 759/606 403/607
f 406/606 754/604 403/607
f 754/604 406/606 368/605
f 761/602 754/604 368/605
f 755/604 383/602 751/603
f 760/602 758/604 396/605
f 754/604 761/602 753/603
