# Blender v2.68 (sub 0) OBJ File: ''
# www.blender.org
mtllib karal.mtl
o _000_d07
v 5.726041 6.949504 -3.681640
v 6.153951 7.590714 -3.406740
v 6.184531 6.731704 -3.884280
v 6.555471 7.224434 -3.684570
v 6.736131 8.060435 -3.038569
v 7.006042 7.535065 -3.460450
v 7.222932 8.191473 -2.787600
v 7.342022 7.614214 -3.293950
v 7.612842 8.122154 -2.625000
v 7.635832 7.563395 -3.150880
v 8.047532 7.796245 -2.431150
v 7.934852 7.339934 -3.009770
v 8.283432 7.402024 -2.335450
v 8.108662 7.070524 -2.928710
v 8.460772 6.702054 -2.307620
v 8.252802 6.580814 -2.871580
v 8.538562 5.865820 -2.343750
v 8.304902 5.918440 -2.861330
v 8.416162 5.130875 -2.510250
v 8.206112 5.369797 -2.961920
v 8.164812 4.634950 -2.751950
v 7.996992 5.005779 -3.086430
v 7.671692 4.364883 -2.971680
v 7.658051 4.799708 -3.251950
v 6.588071 4.492136 -3.478520
v 6.812901 4.858537 -3.649900
v 6.102791 5.202376 -3.966310
v 6.521051 5.469191 -3.936520
v 6.441251 5.646401 -3.976560
v 7.342212 6.094724 -3.693850
v 6.407911 5.824920 -3.993160
v 6.419081 6.158718 -3.978520
v 5.907791 5.690436 -4.053220
v 5.951521 6.187259 -4.018560
v 5.379751 5.539827 -4.045410
v 5.421402 6.228735 -3.937990
v 7.612842 8.122154 2.625001
v 7.222932 8.191473 2.787601
v 7.635832 7.563394 3.150880
v 7.342022 7.614213 3.293940
v 6.736131 8.060433 3.038570
v 7.006042 7.535064 3.460450
v 6.153951 7.590714 3.406740
v 6.555471 7.224433 3.684570
v 5.726041 6.949503 3.681640
v 6.184541 6.731703 3.884280
v 5.951531 6.187258 4.018550
v 6.419081 6.158717 3.978510
v 6.407911 5.824919 3.993160
v 7.342212 6.094723 3.693850
v 6.441251 5.646400 3.976560
v 6.521051 5.469190 3.936520
v 5.963301 5.419290 4.025880
v 6.102791 5.202375 3.966310
v 5.475521 5.190080 4.007810
v 5.636311 4.897669 3.918940
v 7.934862 7.339933 3.009760
v 7.564712 7.009873 3.428710
v 7.360782 7.046313 3.525390
v 7.161832 7.001473 3.622070
v 6.847571 6.830693 3.767090
v 6.985651 5.202326 3.723140
v 7.571742 5.196516 3.453120
v 6.812901 4.858536 3.649900
v 7.658051 4.799707 3.251950
v 7.671692 4.364882 2.971680
v 8.164812 4.634949 2.751950
v 7.824912 5.338647 3.326170
v 7.966202 5.607316 3.259280
v 7.996992 5.005778 3.086420
v 8.206112 5.369796 2.961910
v 8.416162 5.130874 2.510250
v 8.538562 5.865819 2.343750
v 8.032852 5.976798 3.215820
v 7.980592 6.411015 3.239260
v 8.304902 5.918439 2.861330
v 8.252802 6.580813 2.871580
v 8.460772 6.702053 2.307620
v 8.283432 7.402023 2.335450
v 7.889392 6.737643 3.266110
v 7.752022 6.889013 3.339350
v 8.108662 7.070523 2.928710
v 8.047532 7.796244 2.431150
v 5.636311 4.897670 -3.918950
v 5.963301 5.419291 -4.025880
v 5.475521 5.190081 -4.007810
v 6.591431 6.519134 -3.894040
v 6.985651 5.202327 -3.723150
v 7.571742 5.196517 -3.453130
v 7.824902 5.338648 -3.326170
v 7.966202 5.607317 -3.259280
v 8.032852 5.976799 -3.215820
v 7.980592 6.411016 -3.239260
v 7.889392 6.737644 -3.266110
v 7.752012 6.889014 -3.339360
v 7.564712 7.009874 -3.428710
v 5.421402 6.228734 3.937990
v 5.907791 5.690435 4.053220
v 5.379751 5.539826 4.045410
v 6.847571 6.830694 -3.767090
v 7.161832 7.001474 -3.622070
v 6.588071 4.492136 3.478510
v 7.360782 7.046314 -3.525390
v 6.591431 6.519133 3.894040
v 8.678371 7.658904 -0.827638
v 7.635532 8.268423 -1.278810
v 7.945842 9.025633 -1.198729
v 6.748801 9.724573 -1.240239
v 6.340351 9.025024 -1.329099
v 5.552271 10.423996 -0.947754
v 5.045161 9.781624 -1.014649
v 4.676511 10.935335 -0.524414
v 4.096621 10.335085 -0.565429
v 4.355711 11.122915 0.000001
v 3.749981 10.538225 0.000001
v 4.676511 10.935335 0.524414
v 4.096621 10.335085 0.565430
v 5.552271 10.423996 0.947754
v 5.045161 9.781624 1.014651
v 6.748801 9.724573 1.240231
v 6.340351 9.025024 1.329101
v 7.945842 9.025633 1.198731
v 7.635532 8.268423 1.278811
v 8.921661 8.455593 0.769530
v 8.678371 7.658904 0.827636
v 9.399032 8.176554 -0.000001
v 9.208422 7.349204 -0.000001
v 8.921661 8.455593 -0.769532
v 7.882411 9.475883 -0.959473
v 6.964521 10.011656 -0.972168
v 6.048561 10.546885 -0.763183
v 5.378211 10.938194 -0.414062
v 5.132581 11.081615 0.000001
v 5.378211 10.938194 0.414063
v 6.048561 10.546885 0.763184
v 6.964521 10.011656 0.972168
v 7.882411 9.475883 0.959473
v 8.655682 9.023813 0.598144
v 8.992762 8.826874 -0.000000
v 8.655682 9.023813 -0.598145
v 7.784262 10.078794 -0.479004
v 7.288682 10.368235 -0.529785
v 6.793111 10.657684 -0.436523
v 6.430171 10.869696 -0.242187
v 6.297541 10.947124 0.000001
v 6.430171 10.869696 0.241211
v 6.793111 10.657684 0.436524
v 7.288682 10.368235 0.529785
v 7.784262 10.078794 0.479004
v 8.152951 9.863644 0.291016
v 8.308561 9.772713 -0.000000
v 8.152951 9.863644 -0.291016
v 7.500592 10.602196 0.000001
v 2.158549 0.043535 2.302218
v 1.139650 -0.504894 2.500488
v 1.139650 -0.330575 2.302248
v 2.158549 -0.128825 2.500458
v 3.175638 0.456135 2.500458
v 3.175638 0.626055 2.302218
v 3.224948 1.260334 2.500458
v 2.141949 0.966874 2.500458
v 1.139650 -0.330575 2.698728
v 2.158549 0.043535 2.698708
v 3.175638 0.626054 2.698708
v 1.119140 0.790514 2.500489
v 2.141949 0.966874 2.500458
v 3.224948 1.260334 2.500458
v -16.688084 1.066485 2.500458
v -14.761186 0.894515 2.500488
v -14.855485 0.296375 2.377438
v -14.855485 0.163075 2.500488
v 2.158549 0.043536 -2.698710
v 1.139650 -0.504893 -2.500490
v 1.139650 -0.330574 -2.698730
v 2.158549 -0.128824 -2.500460
v 2.141948 0.966875 -2.500460
v 3.224947 1.260334 -2.500460
v 3.175637 0.626055 -2.698710
v 3.175637 0.456135 -2.500460
v 3.175637 0.626055 -2.302220
v -16.688080 1.066486 -2.500459
v -14.855482 0.296377 -2.623050
v -14.855482 0.163076 -2.500490
v 2.158549 0.043536 -2.302220
v 1.139650 -0.330574 -2.302250
v 1.119140 0.790515 -2.500490
v 2.141948 0.966875 -2.500460
v 3.224947 1.260334 -2.500460
v -14.761183 0.894516 -2.500490
v -13.294888 -0.344255 2.500489
v -11.547388 -0.531264 2.656739
v -13.294888 -0.185075 2.641598
v -11.547386 -0.531263 -2.656740
v -9.738759 -0.966803 -2.500491
v -11.547386 -0.709483 -2.500490
v -9.738759 -0.775403 -2.328131
v -8.065910 -0.872083 -2.320311
v -8.005850 1.448235 -2.500490
v -3.312496 2.954573 -2.500490
v -4.683585 2.386704 -2.500490
v -3.222656 -0.827163 -2.302251
v -3.222656 -0.827163 -2.698731
v -4.667964 -0.900893 -2.706541
v -3.312496 2.954573 -2.500490
v -4.683585 2.386704 -2.500490
v -4.667964 -0.900893 -2.294431
v 1.119140 0.790514 2.500489
v -11.547386 -0.531263 -2.344240
v -11.446286 0.960926 -2.500490
v -9.672349 1.166985 -2.500490
v -2.158687 -0.751474 2.300288
v -1.931147 1.183094 2.500489
v -1.155268 0.704574 2.500488
v -2.721677 2.039534 2.500489
v -3.222656 -0.827164 2.302248
v -3.312496 2.954573 2.500489
v -13.164986 0.869126 -2.500490
v -14.855482 0.296376 -2.377440
v -13.294885 -0.185073 -2.358890
v -13.294885 -0.344253 -2.500490
v -9.738759 -0.775403 -2.672851
v -9.672349 1.166985 -2.500490
v -8.065910 -0.872083 -2.680661
v -1.134768 -0.670424 2.301268
v 0.024903 0.638174 2.500488
v 0.052735 -0.544934 2.301758
v -3.222656 -1.021493 -2.500491
v -4.667964 -1.099133 -2.500491
v 0.052735 -0.723644 2.500488
v -13.294885 -0.185073 -2.641600
v -1.134768 -0.855964 2.500488
v 0.052735 -0.544934 2.699218
v -1.134768 -0.670424 2.699218
v -2.158687 -0.941414 2.500488
v -3.222656 -1.021494 2.500489
v -2.158687 -0.751474 2.700678
v 0.024903 0.638175 -2.500490
v 0.052735 -0.544933 -2.301760
v -1.155268 0.704575 -2.500490
v -1.134768 -0.670423 -2.301270
v -1.931147 1.183095 -2.500490
v -2.721676 2.039534 -2.500490
v -2.158687 -0.751473 -2.300291
v -2.158687 -0.941413 -2.500491
v -2.158687 -0.751473 -2.700681
v -2.721676 2.039534 -2.500490
v -1.931147 1.183095 -2.500490
v -1.134768 -0.855963 -2.500491
v -1.134768 -0.670423 -2.699220
v -1.155268 0.704575 -2.500490
v 0.024903 0.638175 -2.500490
v 0.052735 -0.723643 -2.500490
v 0.052735 -0.544933 -2.699220
v 1.119140 0.790515 -2.500490
v -8.065910 -1.068853 -2.500491
v -14.761183 0.894516 -2.500490
v -13.164986 0.869126 -2.500490
v -3.312496 2.954573 2.500489
v -4.683585 2.386703 2.500489
v -3.222656 -0.827164 2.698729
v -4.667965 -0.900894 2.706538
v -2.721677 2.039534 2.500489
v -9.738760 -0.966804 2.500489
v -11.547388 -0.531264 2.344239
v -9.738760 -0.775404 2.328129
v -9.672350 1.166984 2.500489
v -11.446289 0.960925 2.500489
v -13.164989 0.869124 2.500489
v -13.294888 -0.185074 2.358889
v -11.547388 -0.709484 2.500489
v -11.446289 0.960925 2.500489
v -13.164989 0.869124 2.500489
v -14.761186 0.894515 2.500488
v -14.855485 0.296375 2.623048
v -8.065912 -0.872084 2.320309
v -8.065912 -1.068854 2.500489
v -1.931147 1.183094 2.500489
v -9.738760 -0.775404 2.672849
v -8.065912 -0.872084 2.680659
v -8.005852 1.448234 2.500489
v -4.667965 -0.900894 2.294429
v -4.683585 2.386703 2.500489
v -9.672350 1.166984 2.500489
v -1.155268 0.704574 2.500488
v -4.667965 -1.099134 2.500489
v 0.024903 0.638174 2.500488
v -11.446286 0.960926 -2.500490
v -8.005852 1.448234 2.500489
v -6.316884 -0.918954 2.305659
v -6.316884 -1.118174 2.500489
v -6.316884 -0.918954 2.695309
v -6.350584 1.884264 2.500489
v -6.350584 1.884264 2.500489
v -6.316893 -1.118173 -2.500491
v -6.316893 -0.918953 -2.695311
v -8.005850 1.448235 -2.500490
v -6.316893 -0.918953 -2.305661
v -6.350583 1.884264 -2.500490
v -6.350583 1.884264 -2.500490
v 5.330462 5.540781 -4.177190
v 5.372331 6.235032 -4.071800
v 5.421201 6.228626 -3.937850
v -24.089979 0.701738 0.677479
v -25.083679 -1.444379 0.265128
v -23.619379 0.563269 0.443126
v -22.951281 8.410389 0.000000
v -22.140181 6.595451 0.000000
v -22.442381 6.381958 -0.539229
v -23.238581 8.331600 0.535093
v -24.160879 10.728725 0.000001
v -24.385378 10.630417 0.467403
v -23.238581 8.331600 -0.535093
v -23.741379 8.177500 -0.828271
v -24.385378 10.630417 -0.467401
v -24.840279 10.440475 -0.758453
v -26.349676 12.527374 -0.619662
v -25.308178 -1.327309 -0.403858
v -27.108177 -2.988657 -0.000001
v -26.546177 -0.831630 -0.000001
v -26.303276 1.428038 -0.000001
v -24.089979 0.701738 -0.677481
v -26.234676 4.258204 -0.000000
v -22.996380 5.724752 -0.934766
v -26.508476 7.026670 0.000000
v -27.071077 9.426617 0.000001
v -27.932274 11.889685 0.000001
v -28.939774 13.955492 0.000001
v -28.130175 14.378521 -0.413840
v -26.303276 1.428038 -0.000001
v -26.546177 -0.831630 -0.000001
v -25.308178 -1.327309 0.403856
v -24.957079 -1.526899 -0.000001
v -25.083679 -1.444379 -0.265130
v -23.619379 0.563269 -0.443128
v -27.849075 14.498833 -0.258653
v -25.800776 12.837753 0.000001
v -25.980076 12.745293 -0.390845
v -27.652977 14.565662 0.000001
v -30.572372 16.561939 0.000002
v -27.849075 14.498833 0.258657
v -28.130175 14.378521 0.413844
v -25.980076 12.745293 0.390847
v -26.349676 12.527374 0.619664
v -24.840279 10.440475 0.758455
v -27.071077 9.426617 0.000001
v -26.508476 7.026670 0.000000
v -23.741379 8.177500 0.828271
v -26.234676 4.258204 -0.000000
v -22.996380 5.724752 0.934766
v -23.083982 3.812124 0.888839
v -23.352581 0.493699 -0.000001
v -22.360983 2.996396 -0.000000
v -22.712379 3.190115 0.482836
v -22.712379 3.190115 -0.482836
v -28.939774 13.955492 0.000001
v -27.932274 11.889685 0.000001
v -2.609571 7.369185 -6.789670
v -4.740071 8.808095 -6.938109
v -4.443401 9.742244 -7.122679
v 10.705503 4.638773 -1.931210
v 9.650732 5.483011 -2.141380
v 10.865203 5.134136 -1.719310
v 10.339303 6.871024 -0.976370
v 10.036102 6.599914 -1.618710
v 9.102741 7.626134 -1.846860
v 7.320552 1.837633 -2.405631
v 7.354622 1.388963 -1.550951
v 5.164042 0.764462 -1.912651
v 8.711302 8.515944 1.172991
v 7.946762 9.163935 0.000001
v 8.009972 9.025753 1.244131
v 7.403932 9.398045 1.291711
v 7.372342 9.539713 0.000001
v 6.688121 9.900604 0.000001
v 12.507302 5.433620 -0.000001
v 12.286003 5.279883 -0.673284
v 12.109303 5.687044 -0.732283
v -0.142171 10.987695 5.386251
v 2.089751 11.880045 2.139841
v 0.081666 12.424285 3.064291
v -1.956310 0.001571 4.670399
v 0.588829 -0.207598 3.447189
v 0.572727 0.177821 4.166119
v -7.776842 11.855544 7.053571
v -4.443401 9.742242 7.122680
v -4.145161 10.701243 7.052331
v 9.155352 2.451553 -1.880300
v 10.427703 3.049813 -1.384830
v 10.398703 2.699133 -0.935134
v 7.271052 8.288364 -2.856099
v 7.222852 8.191324 -2.787649
v 6.735901 8.060655 -3.038369
v 7.686032 8.208344 -2.690179
v 11.341702 6.158228 -0.861126
v 11.481902 6.284997 -0.000001
v 5.818271 8.125995 -3.821209
v 6.783391 8.636054 -3.192600
v 6.114731 7.690535 -3.494910
v 6.573351 9.120653 -2.845389
v 7.375072 8.679604 -2.866269
v 7.894652 8.514524 -2.622149
v 7.379972 8.931524 -2.514989
v 9.007082 5.711573 2.282450
v 9.650732 5.483010 2.141380
v 9.833672 6.227806 1.948340
v 8.892772 4.989723 2.461610
v 4.986971 9.199445 -3.417399
v 3.219221 9.928185 -4.175669
v 3.674931 11.083565 -1.562639
v 5.180801 8.509395 -3.764199
v 0.959737 5.872516 5.981680
v 2.655191 5.411304 5.403050
v 2.787051 6.802042 5.452920
v 0.807300 4.682749 5.202180
v 8.213322 4.573715 2.790950
v 8.452931 4.023353 2.869060
v 7.704732 4.299403 3.030300
v 7.505512 3.852273 3.271110
v 6.598961 4.412143 3.561520
v 4.827411 5.157047 -4.658940
v 4.751491 5.756146 -4.678140
v 1.101930 7.262355 -6.095170
v 2.787051 6.802044 -5.452920
v 2.655191 5.411305 -5.403050
v 9.460691 4.260733 2.536220
v 9.308492 3.366202 2.470219
v 10.705503 4.638772 1.931210
v 0.588828 -0.207597 -3.447191
v -0.299972 1.708175 -4.568001
v -1.956310 0.001573 -4.670401
v 7.367062 3.095212 3.282259
v 1.670070 10.464665 -4.759269
v 2.089751 11.880045 -2.139849
v 0.081665 12.424287 -3.064289
v 2.596881 4.385644 -4.971490
v 5.095121 4.134774 -4.340440
v 9.270422 7.993204 1.096510
v 10.339303 6.871024 0.976368
v 9.266662 8.112373 -0.000001
v 10.036102 6.599913 1.618710
v -2.993390 5.857572 -5.015580
v -5.212231 7.976525 -6.148880
v -1.592430 3.173834 -6.492890
v -3.696641 3.387284 -6.974940
v -1.107430 5.235315 -5.270380
v -4.013801 2.005974 -6.581670
v -3.434181 2.178032 6.132780
v -0.299970 1.708173 4.568000
v -1.956310 0.001571 4.670399
v -9.207481 3.688844 -7.254830
v -6.200531 2.628684 -6.782440
v -6.137702 4.892966 -6.217970
v -6.663681 1.809534 -6.405581
v -4.428291 0.657091 5.570749
v 6.735901 8.060653 3.038370
v 6.114731 7.690534 3.494910
v 6.153791 7.590774 3.406770
v 5.726131 6.949473 3.681820
v 5.660091 6.986903 3.799720
v 5.421211 6.228625 3.937850
v 5.372331 6.235031 4.071800
v 5.421211 6.228625 3.937850
v 5.372331 6.235031 4.071800
v 5.379771 5.539741 4.045500
v 5.330462 5.540780 4.177190
v 5.475671 5.190053 4.007600
v 5.435591 5.180989 4.132000
v 5.636171 4.897715 3.918940
v 5.608771 4.854702 4.022880
v 6.587891 4.492199 3.478310
v 7.671892 4.365093 2.971750
v 8.164632 4.635007 2.751960
v 8.416252 5.130897 2.510490
v 8.490171 5.112506 2.534090
v 8.538432 5.865986 2.343930
v 8.618002 5.858024 2.378160
v 8.558942 6.688113 2.352940
v 9.021782 6.556493 2.195260
v 8.964211 7.365613 2.185360
v 9.102741 7.626133 1.846850
v 8.719102 8.603773 -0.000000
v 8.009972 9.025753 -1.244129
v 7.403932 9.398045 -1.291709
v 7.929352 8.720394 -2.286809
v 8.164601 7.851655 -2.502750
v 8.439932 8.087605 -2.403379
v 8.387742 7.440875 -2.396540
v 8.964211 7.365614 -2.185360
v 9.833672 6.227807 -1.948350
v 11.068402 5.621876 -1.459140
v 12.329502 5.853362 -0.000001
v 12.286003 5.279883 0.673281
v 12.147902 4.531474 0.634754
v 11.686502 4.974600 1.278580
v 11.532702 4.186993 1.205130
v 10.577403 3.743773 1.782430
v 9.238742 2.908882 2.242879
v 7.304712 2.406342 2.933749
v 7.320562 1.837632 2.405629
v 4.955151 2.071212 3.682749
v 5.048601 1.287622 2.893979
v 2.594531 1.725312 4.390069
v 2.760391 0.616712 3.495379
v -6.200521 2.628682 6.782439
v -9.207481 3.688842 7.254829
v -6.137702 4.892964 6.217980
v 6.305971 3.943902 3.808710
v 9.566832 4.827773 2.335200
v 10.865203 5.134135 1.719310
v 11.068402 5.621876 1.459140
v 11.341702 6.158228 0.861124
v 10.443903 7.017234 -0.000001
v 9.270422 7.993204 -1.096509
v 8.711302 8.515944 -1.172989
v 8.565472 8.246344 -2.045769
v -6.663681 1.809532 6.405580
v 5.677001 10.431345 0.000001
v 3.674931 11.083565 1.562641
v 5.557431 10.250284 1.411611
v 3.219231 9.928184 4.175670
v 4.986971 9.199443 3.417400
v 12.109303 5.687044 0.732281
v 3.040081 9.030744 4.876850
v 5.180801 8.509393 3.764200
v 4.955151 2.071213 -3.682751
v 2.760391 0.616713 -3.495381
v 2.594531 1.725313 -4.390070
v 2.881321 8.167153 5.212860
v 4.546431 7.535943 4.415340
v 0.807299 4.682751 -5.202180
v 0.564052 2.993114 -5.772780
v 4.394921 6.519523 4.706460
v -4.740071 8.808093 6.938110
v 4.751491 5.756145 4.678140
v 4.962251 6.427261 4.534850
v 5.224782 7.305614 4.293900
v 5.818271 8.125993 3.821210
v 6.739311 8.167483 3.119190
v 7.222852 8.191324 2.787650
v 8.558942 6.688114 -2.352940
v 9.021782 6.556494 -2.195260
v 11.686502 4.974600 -1.278580
v 10.577403 3.743773 -1.782440
v 9.460691 4.260734 -2.536230
v 9.308492 3.366203 -2.470220
v 8.452931 4.023354 -2.869060
v 7.367062 3.095213 -3.282260
v 7.505512 3.852273 -3.271110
v 6.305971 3.943904 -3.808710
v 7.704732 4.299404 -3.030300
v 6.598961 4.412144 -3.561520
v 6.587891 4.492200 -3.478310
v 5.636171 4.897716 -3.918950
v -5.212231 7.976523 6.148880
v -0.749386 7.932663 6.615420
v -2.379830 8.614984 6.929550
v -2.609571 7.369183 6.789670
v 6.684141 9.755274 -1.341099
v 5.557431 10.250284 -1.411609
v 8.047771 7.796414 -2.431190
v 8.047771 7.796414 -2.431190
v 8.387742 7.440875 -2.396540
v 8.283671 7.402044 -2.335610
v 8.460611 6.702214 -2.307750
v 8.618002 5.858025 -2.378160
v 8.538432 5.865987 -2.343930
v 8.416252 5.130898 -2.510490
v 4.945471 3.036024 -4.159890
v 2.499691 2.964274 -5.013140
v -2.091560 9.905572 6.810560
v 9.155352 2.451552 1.880299
v 10.427703 3.049813 1.384830
v 0.959736 5.872518 -5.981680
v -0.749387 7.932665 -6.615419
v 1.350050 8.736175 -5.831059
v -0.478954 9.394454 -6.426300
v -0.142173 10.987697 -5.386249
v -1.822980 12.616746 -4.048229
v 7.400432 1.188712 -0.000001
v 5.164042 0.764462 1.912649
v 5.281381 0.538552 -0.000001
v 7.354622 1.388962 1.550949
v 1.350050 8.736173 5.831060
v 1.101940 7.262353 6.095170
v -0.969684 6.541953 6.472600
v -1.107430 5.235313 5.270380
v -1.592430 3.173832 6.492889
v -3.696641 3.387282 6.974939
v -1.780510 1.725551 6.029319
v -4.013801 2.005972 6.581669
v -4.428291 0.657091 5.570749
v -6.348311 2.607552 6.976179
v -6.663681 1.809532 6.405580
v -9.207481 3.688842 7.254829
v 8.460611 6.702213 2.307750
v 8.387742 7.440874 2.396540
v 8.283671 7.402043 2.335600
v 8.164601 7.851654 2.502750
v 8.439932 8.087605 2.403380
v 8.565472 8.246344 2.045770
v 7.894652 8.514524 2.622150
v 7.929352 8.720394 2.286810
v 7.375072 8.679604 2.866270
v 7.379972 8.931524 2.514980
v 6.783391 8.636052 3.192600
v 6.573361 9.120653 2.845390
v 7.271052 8.288364 2.856100
v 3.003210 -0.277258 -0.000001
v 2.889850 0.008323 -2.276001
v 5.048601 1.287623 -2.893981
v 7.304712 2.406343 -2.933750
v 9.238742 2.908883 -2.242880
v 11.532702 4.186993 -1.205140
v -0.969686 6.541955 -6.472600
v -2.379830 8.614985 -6.929539
v -4.145161 10.701245 -7.052319
v -7.776842 11.855546 -7.053569
v -4.075021 11.624026 -6.458799
v -4.141001 12.443015 -5.238989
v -1.949830 11.372645 -5.973069
v 11.435802 3.523683 0.700169
v 11.554203 3.545633 -0.000001
v 12.370003 4.657160 -0.000001
v 11.435802 3.523683 -0.700171
v 12.147902 4.531474 -0.634756
v 10.405903 2.556773 -0.000001
v 1.670070 10.464664 4.759271
v -0.478952 9.394452 6.426301
v -2.993390 5.857570 5.015580
v 3.040081 9.030746 -4.876859
v 2.881321 8.167155 -5.212869
v 4.546431 7.535945 -4.415339
v 5.224771 7.305614 -4.293900
v 4.394921 6.519525 -4.706460
v 4.962251 6.427263 -4.534850
v 5.660091 6.986904 -3.799720
v 5.726131 6.949474 -3.681820
v 6.684141 9.755274 1.341101
v 7.613032 8.122044 -2.624889
v 0.564053 2.993112 5.772779
v 2.499691 2.964272 5.013139
v 2.596881 4.385642 4.971479
v 0.536916 1.653323 -5.205710
v -1.780510 1.725553 -6.029320
v -1.956310 0.001573 -4.670401
v -4.428291 0.657093 -5.570741
v 0.572726 0.177823 -4.166121
v 0.588828 -0.207597 -3.447191
v 4.827411 5.157045 4.658940
v 5.095131 4.134773 4.340439
v 4.945471 3.036022 4.159889
v 6.153791 7.590775 -3.406770
v -4.075021 11.624024 6.458801
v -4.141001 12.443013 5.238991
v 2.089751 11.880045 2.139841
v 2.162710 10.416224 2.769621
v 0.081666 12.424285 3.064291
v 0.234487 9.426670 4.041920
v -2.107311 10.014714 5.223940
v -2.993390 5.857570 5.015580
v -4.423261 10.778785 6.091091
v -5.212231 7.976523 6.148880
v -7.776842 11.855544 7.053571
v 5.608771 4.854703 -4.022880
v 5.435591 5.180990 -4.132000
v 5.379771 5.539742 -4.045500
v -2.091560 9.905574 -6.810559
v 0.536917 1.653322 5.205709
v -1.949820 11.372643 5.973071
v -1.822980 12.616744 4.048231
v -6.079021 3.578032 7.216579
v -6.663681 1.809534 -6.405581
v -6.348311 2.607554 -6.976180
v -9.207481 3.688844 -7.254830
v -6.079021 3.578034 -7.216580
v -6.137702 4.892966 -6.217970
v -2.993390 5.857572 -5.015580
v 7.671892 4.365094 -2.971750
v 8.213322 4.573716 -2.790960
v 8.164632 4.635008 -2.751960
v 8.490171 5.112507 -2.534100
v 9.007082 5.711574 -2.282450
v 9.021782 6.556494 -2.195260
v 9.650732 5.483011 -2.141380
v 9.007082 5.711574 -2.282450
v 9.566832 4.827774 -2.335200
v -4.141001 12.443013 5.238991
v -4.075021 11.624024 6.458801
v 7.686032 8.208344 2.690180
v 7.613032 8.122044 2.624890
v 8.892772 4.989724 -2.461610
v 6.739311 8.167485 -3.119190
v 6.153791 7.590775 -3.406770
v -4.428291 0.657093 -5.570741
v -3.434181 2.178034 -6.132781
v -2.993390 5.857572 -5.015580
v 2.889850 0.008322 2.275999
v 5.475671 5.190054 -4.007600
v 9.159902 2.050953 -1.212190
v 9.147701 1.879523 -0.000002
v 10.398703 2.699133 0.935132
v 9.159902 2.050952 1.212180
v -7.776842 11.855546 -7.053569
v -4.423261 10.778787 -6.091079
v -4.141001 12.443015 -5.238989
v -1.822980 12.616746 -4.048229
v -2.107311 10.014716 -5.223939
v 0.234487 9.426672 -4.041919
v -2.993390 5.857570 5.015580
v 8.047771 7.796413 2.431190
v -6.137702 4.892964 6.217980
v -9.207481 3.688842 7.254829
v -4.141001 12.443013 5.238991
v -1.822980 12.616744 4.048231
v -5.212231 7.976525 -6.148880
v -2.993390 5.857572 -5.015580
v 2.041770 11.102204 -1.771529
v -0.266361 11.400500 0.000001
v 2.127710 11.283294 0.000001
v -22.442381 6.381958 0.539229
v -22.996380 5.724752 0.934766
v -22.178982 5.767201 0.999870
v 2.162710 10.416224 -2.769619
v -0.140586 10.979371 -1.963559
v -22.159880 6.404456 0.543688
v -2.993390 5.857570 5.015580
v 3.759921 11.114185 0.000001
v 3.674931 11.083565 -1.562639
v 3.674931 11.083565 1.562641
v 2.041770 11.102204 1.771531
v 2.162710 10.416224 2.769621
v -22.140181 6.595451 0.000000
v -2.993390 5.857570 5.015580
v -3.014068 9.080570 4.010981
v -6.261756 5.370592 4.606990
v -2.993390 5.857572 -5.015580
v -6.235936 8.559541 -3.774089
v -3.014068 9.080572 -4.010980
v 3.674931 11.083565 1.562641
v -22.227381 3.801895 -0.978550
v -22.191580 4.678139 -1.096850
v -21.101580 4.607833 -1.296620
v -22.227381 3.801894 0.978550
v -22.303280 3.205495 0.514038
v -21.099081 3.665565 1.135160
v -23.083982 3.812125 -0.888839
v -21.099081 3.665565 -1.135150
v 0.234487 9.426670 4.041920
v 3.759921 11.114185 0.000001
v -22.303280 3.205495 -0.514038
v -21.096081 3.149775 -0.606103
v -22.191580 4.678139 1.096850
v -21.099480 5.828718 1.124340
v -23.083982 3.812124 0.888839
v 2.889850 0.008322 2.275999
v 0.588829 -0.207598 3.447189
v 2.889850 0.008323 -2.276001
v 3.003210 -0.277258 -0.000001
v -0.292973 -1.072604 -0.000001
v -22.996380 5.724752 -0.934766
v -22.178982 5.767201 -0.999870
v 2.162710 10.416224 -2.769619
v 0.081665 12.424287 -3.064289
v -23.083982 3.812125 -0.888839
v -22.712379 3.190115 -0.482836
v 2.889850 0.008322 2.275999
v -0.316622 -0.499714 2.389979
v 3.674931 11.083565 -1.562639
v 2.089751 11.880045 -2.139849
v -22.360983 2.996396 -0.000000
v 2.889850 0.008323 -2.276001
v -21.101580 4.607833 1.296620
v -22.712379 3.190115 0.482836
v -22.159880 6.404456 -0.543688
v -22.442381 6.381958 -0.539229
v -22.442381 6.381958 0.539229
v -0.299972 1.708175 -4.568001
v -3.053598 1.607496 -4.456790
v -21.093380 2.878046 -0.000000
v -21.094982 6.481641 0.560498
v -3.053598 1.607495 4.456789
v -0.299970 1.708173 4.568000
v -21.099480 5.828718 -1.124340
v -18.869984 4.567425 -1.749980
v -19.985382 3.532745 -1.322720
v -19.986782 4.576271 -1.520270
v -17.842785 4.566103 -1.966340
v -17.842785 6.083264 -1.605180
v -18.869484 6.008153 -1.439190
v -12.223091 8.341619 1.332890
v -10.435193 7.495510 3.148030
v -10.435193 8.902319 1.487581
v -12.223091 7.069890 2.808120
v -10.435393 4.799162 3.796290
v -12.220191 4.640727 3.370270
v -10.435193 1.961336 3.455279
v -12.223091 2.237076 3.058939
v -18.869385 3.405915 -1.520840
v -13.864491 2.539817 -2.657861
v -13.861790 4.546198 -2.949980
v -12.220191 4.640728 -3.370270
v -12.223091 7.069891 -2.808120
v -13.864491 6.715063 -2.461410
v -12.223091 8.341619 -1.332880
v -13.864491 7.881281 -1.173910
v -12.223091 8.768120 0.000001
v -13.864491 8.278891 0.000000
v -13.864491 7.881281 1.173910
v -13.864491 6.715062 2.461420
v -13.861790 4.546197 2.949980
v -12.223091 0.472478 -0.000001
v -12.224491 1.071057 1.667999
v -13.864491 1.009778 -0.000001
v -13.865290 1.523547 1.451909
v -13.864491 2.539816 2.657860
v -13.865290 1.523548 -1.451911
v -12.224491 1.071058 -1.668001
v -12.223091 2.237077 -3.058940
v -17.842785 6.083263 1.605180
v -16.430687 7.270481 0.923295
v -17.842785 6.992621 0.802498
v -21.094982 6.481641 -0.560498
v -17.842785 3.252746 -1.712270
v -19.983683 2.982035 -0.730579
v -3.057228 -0.517703 2.481659
v -21.096081 3.149775 0.606103
v -19.986782 4.576270 1.520270
v -19.985582 5.924465 1.273880
v -19.982082 2.681736 -0.000000
v -19.983683 2.982035 0.730579
v -19.985382 3.532744 1.322720
v -19.985582 5.924465 -1.273880
v -19.983082 6.647951 -0.640958
v -21.094381 6.692251 0.000000
v -19.982683 6.872601 0.000000
v -19.983082 6.647951 0.640958
v -10.435193 9.341337 0.000001
v -10.435193 8.902319 -1.487579
v -17.842785 6.992621 -0.802498
v -18.868484 6.818031 -0.723975
v -8.434065 1.794268 -3.842411
v -10.436893 0.613009 -1.894261
v -10.435193 1.961337 -3.455281
v -8.436125 0.139369 -2.127851
v -17.842785 7.267391 0.000000
v -18.868284 7.065151 0.000000
v -18.868685 2.808466 -0.854579
v -0.316622 -0.499714 -2.389981
v -3.057228 -0.517702 -2.481661
v -17.842785 2.602826 -0.967989
v -3.053598 -1.226532 -0.000001
v -18.868084 2.481376 -0.000000
v -10.435193 -0.061151 -0.000001
v -8.434065 -0.569021 -0.000001
v -17.842785 2.242616 -0.000001
v -17.842785 4.566103 1.966340
v -16.430386 4.579456 2.292850
v -16.430687 6.243094 1.898360
v -17.842785 3.252745 1.712270
v -16.430687 2.994325 2.023340
v -16.430786 2.227787 -1.125150
v -16.430687 1.843077 -0.000001
v -16.430687 2.994326 -2.023340
v -0.140586 10.979371 1.963561
v -16.430386 4.579457 -2.292840
v -3.053598 10.697260 1.960261
v -3.053598 11.239438 0.000001
v -10.436893 0.613008 1.894259
v -16.430687 7.270481 -0.923295
v -16.430687 6.243095 -1.898360
v -3.053598 10.697260 -1.960259
v -16.430687 7.593250 0.000000
v -18.868484 6.818031 0.723975
v 0.234487 9.426672 -4.041919
v -18.869484 6.008153 1.439190
v -18.869984 4.567424 1.749980
v -8.434065 8.007041 -3.472700
v -6.235936 10.133398 -1.793489
v -8.434065 9.541687 -1.628739
v -6.235936 10.632248 0.000001
v -8.434065 9.998987 0.000001
v -17.842785 3.252745 1.712270
v -18.869984 4.567424 1.749980
v -18.869385 3.405915 1.520840
v -6.235936 10.133398 1.793491
v -8.434065 9.541687 1.628741
v -6.235936 8.559539 3.774090
v -8.434065 8.007039 3.472700
v -17.842785 2.602826 0.967988
v -18.868685 2.808465 0.854579
v -8.442644 5.055884 4.221980
v -19.983683 2.982035 0.730579
v -16.430786 2.227786 1.125160
v -8.442644 5.055884 4.221980
v -6.235936 1.676906 4.180039
v -8.434065 1.794266 3.842409
v -8.434065 1.794266 3.842409
v -6.238386 -0.244351 2.350689
v -8.436125 0.139369 2.127849
v -6.238386 -0.244351 2.350689
v -6.235936 -0.935100 -0.000001
v -8.442644 5.055885 -4.221980
v -10.435393 4.799163 -3.796290
v -10.435193 1.961337 -3.455281
v -8.442644 5.055885 -4.221980
v -15.155289 1.443987 -0.000001
v -15.155589 1.886957 -1.278670
v -15.155289 2.750706 -2.324230
v -15.154189 4.545773 -2.605980
v -15.155289 6.443604 -2.172180
v -15.155289 7.548141 -1.041320
v -15.155289 7.911110 0.000000
v -15.155289 7.548141 1.041320
v -15.155289 6.443603 2.172180
v -15.154189 4.545772 2.605980
v -15.155289 2.750705 2.324229
v -15.155589 1.886957 1.278669
v -6.238386 -0.244351 -2.350691
v -6.235936 1.676908 -4.180040
v -10.435193 8.902319 -1.487579
v -10.435193 7.495511 -3.148030
v -8.434065 9.998987 0.000001
v -10.436893 0.613009 -1.894261
v -12.223091 0.472478 -0.000001
v -8.436125 0.139369 2.127849
v -6.261756 5.370594 -4.606990
v -6.235936 10.133398 1.793491
v -3.014068 9.080570 4.010981
v -8.442644 5.055885 -4.221980
v -6.261756 5.370594 -4.606990
v -8.434065 1.794268 -3.842411
v -8.434065 1.794268 -3.842411
v -10.435393 4.799162 3.796290
v -8.434065 1.794266 3.842409
vt 0.126068 -0.720459
vt 0.103973 -0.679840
vt 0.125031 -0.687622
vt 0.826813 -0.874939
vt 0.796997 -0.926575
vt 0.800354 -0.860504
vt 0.775391 -0.900085
vt 0.753296 -0.967224
vt 0.742615 -0.927582
vt 0.714447 -0.982391
vt 0.716522 -0.937195
vt 0.683380 -0.981812
vt 0.692474 -0.937042
vt 0.645691 -0.963654
vt 0.666321 -0.924652
vt 0.623199 -0.938232
vt 0.649658 -0.907562
vt 0.602448 -0.890045
vt 0.633240 -0.874359
vt 0.589539 -0.830841
vt 0.622437 -0.827759
vt 0.594788 -0.775635
vt 0.626068 -0.787079
vt 0.613770 -0.736267
vt 0.639587 -0.758545
vt 0.649139 -0.710083
vt 0.664459 -0.739899
vt 0.738770 -0.705536
vt 0.732208 -0.734192
vt 0.791748 -0.750427
vt 0.766693 -0.772614
vt 0.775024 -0.784271
vt 0.712738 -0.825226
vt 0.779602 -0.796539
vt 0.782013 -0.820465
vt 0.812317 -0.782867
vt 0.813782 -0.818817
vt 0.846375 -0.768982
vt 0.847290 -0.817932
vt 0.804962 -0.764252
vt 0.832947 -0.745178
vt 0.817108 -0.725983
vt 0.699890 -0.894440
vt 0.716461 -0.894653
vt 0.731903 -0.889130
vt 0.754913 -0.873352
vt 0.727081 -0.759064
vt 0.680664 -0.765442
vt 0.661835 -0.778595
vt 0.653503 -0.799316
vt 0.651825 -0.826447
vt 0.660583 -0.856720
vt 0.670868 -0.878998
vt 0.683685 -0.888092
vt 0.772125 -0.848114
vt 0.506592 -0.271942
vt 0.555634 -0.271942
vt 0.560272 -0.290039
vt 0.616516 -0.290039
vt 0.616516 -0.271942
vt 0.672760 -0.290039
vt 0.677399 -0.271942
vt 0.713928 -0.290039
vt 0.721954 -0.271942
vt 0.729004 -0.290039
vt 0.738281 -0.271942
vt 0.514374 -0.290039
vt 0.491943 -0.290039
vt 0.481689 -0.271942
vt 0.571686 -0.329987
vt 0.614838 -0.329987
vt 0.657898 -0.329987
vt 0.689392 -0.329987
vt 0.700928 -0.329987
vt 0.535339 -0.329987
vt 0.519501 -0.329987
vt 0.587463 -0.377533
vt 0.610779 -0.377533
vt 0.634064 -0.377533
vt 0.651123 -0.377533
vt 0.657379 -0.377533
vt 0.570160 -0.377533
vt 0.562836 -0.377533
vt 0.608124 -0.408661
vt 0.015594 -0.299652
vt 0.028900 -0.291199
vt 0.028900 -0.296906
vt 0.015594 -0.294006
vt 0.002319 -0.296844
vt 0.002319 -0.302399
vt 0.002624 -0.337708
vt 0.016021 -0.335663
vt 0.029388 -0.333618
vt 0.465027 -0.345367
vt 0.417877 -0.339752
vt 0.420197 -0.320160
vt 0.420197 -0.315765
vt 0.382019 -0.299164
vt 0.339264 -0.293060
vt 0.382019 -0.304382
vt 0.295013 -0.278778
vt 0.339264 -0.287201
vt 0.295013 -0.285065
vt 0.254089 -0.281891
vt 0.252625 -0.357880
vt 0.137817 -0.407196
vt 0.171356 -0.388611
vt 0.135620 -0.283356
vt 0.170959 -0.280945
vt 0.336792 -0.341919
vt 0.293396 -0.348663
vt 0.109589 -0.285828
vt 0.104004 -0.349182
vt 0.085022 -0.333527
vt 0.123352 -0.377228
vt 0.378845 -0.338898
vt 0.084533 -0.288483
vt 0.056152 -0.331329
vt 0.055481 -0.292603
vt 0.135620 -0.277008
vt 0.170959 -0.274445
vt 0.055481 -0.286743
vt 0.084533 -0.282410
vt 0.109589 -0.279602
vt 0.254089 -0.275452
vt 0.211304 -0.280365
vt 0.211304 -0.273834
vt 0.212128 -0.372131
vt 0.237793 -0.682648
vt 0.235931 -0.709991
vt 0.231384 -0.708801
vt 0.858948 -0.185608
vt 0.907990 -0.099609
vt 0.843689 -0.177765
vt 0.781464 -0.517426
vt 0.764252 -0.434052
vt 0.775726 -0.426361
vt 0.791687 -0.515289
vt 0.809540 -0.623260
vt 0.817719 -0.619995
vt 0.809662 -0.510834
vt 0.834259 -0.613770
vt 0.873840 -0.710907
vt 0.914978 -0.105682
vt 0.987274 -0.041900
vt 0.955994 -0.132874
vt 0.934906 -0.230103
vt 0.916626 -0.352203
vt 0.798157 -0.401215
vt 0.910309 -0.473236
vt 0.915924 -0.579742
vt 0.931305 -0.690308
vt 0.953918 -0.784271
vt 0.923981 -0.799011
vt 0.904144 -0.095489
vt 0.913727 -0.802979
vt 0.853424 -0.721924
vt 0.860046 -0.718719
vt 0.906677 -0.805023
vt 0.994751 -0.904480
vt 0.814819 -0.296600
vt 0.834991 -0.173706
vt 0.795258 -0.254730
vt 0.805969 -0.265808
vt 0.476685 -0.764679
vt 0.520935 -0.807861
vt 0.514252 -0.837494
vt 0.070983 -0.645721
vt 0.066040 -0.666107
vt 0.078033 -0.750366
vt 0.092102 -0.725128
vt 0.123322 -0.763062
vt 0.175201 -0.530457
vt 0.171021 -0.503204
vt 0.237762 -0.476166
vt 0.125763 -0.815369
vt 0.135010 -0.870483
vt 0.148407 -0.838684
vt 0.168640 -0.854187
vt 0.157043 -0.888763
vt 0.178070 -0.904388
vt 0.007568 -0.679230
vt 0.022308 -0.672119
vt 0.027740 -0.688873
vt 0.416656 -0.894775
vt 0.376160 -0.931000
vt 0.420807 -0.935211
vt 0.460846 -0.454498
vt 0.382477 -0.445892
vt 0.382965 -0.461853
vt 0.573578 -0.890808
vt 0.510590 -0.871307
vt 0.118164 -0.552124
vt 0.078887 -0.576141
vt 0.076599 -0.554688
vt 0.179626 -0.787262
vt 0.180511 -0.781464
vt 0.192169 -0.778473
vt 0.167877 -0.783539
vt 0.048553 -0.712494
vt 0.031585 -0.737274
vt 0.220978 -0.784790
vt 0.193054 -0.802185
vt 0.212311 -0.766052
vt 0.199341 -0.822266
vt 0.176331 -0.802917
vt 0.161285 -0.795654
vt 0.175995 -0.813354
vt 0.098724 -0.709656
vt 0.127289 -0.659515
vt 0.247070 -0.830688
vt 0.301483 -0.857941
vt 0.286835 -0.914215
vt 0.240601 -0.801941
vt 0.371063 -0.696136
vt 0.318848 -0.677216
vt 0.314789 -0.734558
vt 0.375763 -0.647034
vt 0.147705 -0.642914
vt 0.140289 -0.620453
vt 0.163116 -0.632050
vt 0.169220 -0.613739
vt 0.197388 -0.637085
vt 0.253082 -0.666931
vt 0.255219 -0.691559
vt 0.366669 -0.753448
vt 0.109314 -0.630157
vt 0.113922 -0.592804
vt 0.019317 -0.005035
vt 0.026886 -0.028656
vt 0.035339 -0.004547
vt 0.173645 -0.582367
vt 0.363312 -0.880066
vt 0.320648 -0.634979
vt 0.244476 -0.624969
vt 0.107178 -0.795593
vt 0.091156 -0.826385
vt 0.491547 -0.699219
vt 0.533020 -0.777496
vt 0.449646 -0.584991
vt 0.514435 -0.593658
vt 0.434723 -0.669556
vt 0.524200 -0.536957
vt 0.046875 -0.030822
vt 0.064819 -0.041778
vt 0.056304 -0.031829
vt 0.058380 -0.061157
vt 0.058319 -0.020660
vt 0.051391 -0.009918
vt 0.208862 -0.761505
vt 0.222198 -0.737274
vt 0.226013 -0.739288
vt 0.232910 -0.683228
vt 0.229858 -0.669739
vt 0.234528 -0.668243
vt 0.225098 -0.658234
vt 0.228973 -0.655060
vt 0.196198 -0.642151
vt 0.164063 -0.636719
vt 0.150757 -0.646362
vt 0.144012 -0.665161
vt 0.140045 -0.664001
vt 0.142517 -0.692902
vt 0.137878 -0.692719
vt 0.141327 -0.724487
vt 0.128326 -0.751923
vt 0.109680 -0.845215
vt 0.159760 -0.804230
vt 0.154144 -0.769165
vt 0.145233 -0.778717
vt 0.147430 -0.753326
vt 0.059814 -0.686188
vt 0.016601 -0.702850
vt 0.026550 -0.641296
vt 0.040771 -0.659546
vt 0.045471 -0.626923
vt 0.074676 -0.607330
vt 0.116028 -0.572479
vt 0.175598 -0.553528
vt 0.248047 -0.540039
vt 0.245148 -0.507751
vt 0.320709 -0.525665
vt 0.315613 -0.480011
vt 0.206482 -0.617645
vt 0.106079 -0.653473
vt 0.059204 -0.782501
vt 0.140686 -0.785767
vt 0.211517 -0.929138
vt 0.227234 -0.890106
vt 0.307007 -0.826324
vt 0.311890 -0.790833
vt 0.260468 -0.764038
vt 0.383240 -0.577698
vt 0.265533 -0.722992
vt 0.248352 -0.718628
vt 0.239197 -0.753296
vt 0.194336 -0.783264
vt 0.422455 -0.780487
vt 0.470825 -0.806519
vt 0.189911 -0.866425
vt 0.157745 -0.766632
vt 0.151001 -0.751526
vt 0.145569 -0.724365
vt 0.248352 -0.579681
vt 0.323639 -0.576538
vt 0.462555 -0.856415
vt 0.359039 -0.814117
vt 0.415985 -0.839386
vt 0.462280 -0.934387
vt 0.163849 -0.474457
vt 0.231476 -0.446472
vt 0.430481 -0.723541
vt 0.455444 -0.525543
vt 0.536957 -0.481567
vt 0.589111 -0.563263
vt 0.598846 -0.530518
vt 0.663391 -0.611786
vt 0.303955 -0.417358
vt 0.310852 -0.449493
vt 0.508423 -0.902100
vt 0.508636 -0.922272
vt 0.460663 -0.901154
vt 0.045929 -0.595856
vt 0.032989 -0.583038
vt 0.011779 -0.647278
vt 0.069274 -0.536530
vt 0.169739 -0.778900
vt 0.384094 -0.522675
vt 0.022674 -0.158661
vt 0.020813 -0.141846
vt 0.035583 -0.161499
vt 0.031707 -0.126862
vt 0.046905 -0.131531
vt 0.048095 -0.078887
vt 0.056152 -0.134796
vt 0.058380 -0.101776
vt 0.069274 -0.138397
vt 0.580841 -0.603119
vt 0.582642 -0.657135
vt 0.116272 -0.530334
vt 0.110321 -0.505005
vt 0.056091 -0.155457
vt 0.047546 -0.160767
vt 0.054443 -0.234741
vt 0.120087 -0.266327
vt 0.052002 -0.264160
vt 0.757233 -0.144440
vt 0.766571 -0.127563
vt 0.739624 -0.128632
vt 0.055389 -0.216461
vt 0.116516 -0.232910
vt 0.746063 -0.145111
vt 0.005584 -0.260956
vt 0.007995 -0.234100
vt 0.742218 -0.166016
vt 0.197662 -0.150787
vt 0.198242 -0.197968
vt 0.290619 -0.141632
vt 0.289886 -0.188293
vt 0.012298 -0.154388
vt 0.740997 -0.093444
vt 0.739899 -0.113159
vt 0.704071 -0.115570
vt 0.747650 -0.077850
vt 0.704010 -0.091339
vt 0.113342 -0.198578
vt 0.266296 -0.959656
vt 0.703918 -0.075958
vt 0.704010 -0.130035
vt 0.769073 -0.095031
vt 0.005279 -0.010772
vt 0.030334 -0.043273
vt 0.024597 -0.014587
vt 0.120850 -0.006530
vt 0.762482 -0.078491
vt 0.121521 -0.033783
vt 0.748505 -0.062011
vt 0.121063 -0.074462
vt 0.199371 -0.072448
vt 0.703827 -0.058532
vt 0.703888 -0.147583
vt 0.647156 -0.116852
vt 0.675964 -0.089935
vt 0.675995 -0.116119
vt 0.619995 -0.117706
vt 0.619995 -0.136993
vt 0.647156 -0.134583
vt 0.460175 -0.188324
vt 0.409302 -0.168671
vt 0.409302 -0.198608
vt 0.460175 -0.160217
vt 0.409332 -0.131073
vt 0.460083 -0.127289
vt 0.409302 -0.079345
vt 0.460175 -0.081359
vt 0.647156 -0.088470
vt 0.506836 -0.082885
vt 0.506775 -0.124084
vt 0.506836 -0.152466
vt 0.506836 -0.179047
vt 0.460175 -0.214386
vt 0.506836 -0.204102
vt 0.460175 -0.024505
vt 0.460205 -0.050811
vt 0.506836 -0.031921
vt 0.506866 -0.056030
vt 0.579834 -0.165588
vt 0.619995 -0.159058
vt 0.619995 -0.087127
vt 0.675903 -0.073364
vt 0.199463 -0.033294
vt 0.675964 -0.132172
vt 0.675873 -0.055297
vt 0.675903 -0.151245
vt 0.703857 -0.168915
vt 0.675873 -0.172821
vt 0.409302 -0.225555
vt 0.647125 -0.155182
vt 0.352386 -0.076934
vt 0.409363 -0.045440
vt 0.352448 -0.040100
vt 0.619995 -0.181335
vt 0.647125 -0.177063
vt 0.647125 -0.070678
vt 0.619995 -0.068084
vt 0.199371 -0.003540
vt 0.647095 -0.051971
vt 0.409302 -0.017578
vt 0.352386 -0.011169
vt 0.619995 -0.048767
vt 0.579834 -0.119720
vt 0.579834 -0.141541
vt 0.579834 -0.085235
vt 0.579834 -0.064086
vt 0.579834 -0.043640
vt 0.199371 -0.227875
vt 0.199371 -0.263214
vt 0.579834 -0.188812
vt 0.352386 -0.178040
vt 0.289886 -0.219940
vt 0.352386 -0.209473
vt 0.289886 -0.250122
vt 0.352386 -0.237640
vt 0.352631 -0.135773
vt 0.289886 -0.074279
vt 0.289948 -0.035430
vt 0.289886 -0.006011
vt 0.543549 -0.038299
vt 0.543579 -0.060241
vt 0.543549 -0.083831
vt 0.543518 -0.121704
vt 0.543549 -0.146393
vt 0.543549 -0.171936
vt 0.543549 -0.196045
usemtl d07t
s off
f 683/1 684/2 685/3
s 1
f 1/4 2/5 3/6
f 3/6 2/5 4/7
f 2/5 5/8 4/7
f 4/7 5/8 6/9
f 5/8 7/10 6/9
f 6/9 7/10 8/11
f 7/10 9/12 8/11
f 8/11 9/12 10/13
f 9/12 11/14 10/13
f 10/13 11/14 12/15
f 11/14 13/16 12/15
f 12/15 13/16 14/17
f 13/16 15/18 14/17
f 14/17 15/18 16/19
f 15/18 17/20 16/19
f 16/19 17/20 18/21
f 17/20 19/22 18/21
f 18/21 19/22 20/23
f 19/22 21/24 20/23
f 20/23 21/24 22/25
f 21/24 23/26 22/25
f 22/25 23/26 24/27
f 23/26 25/28 24/27
f 24/27 25/28 26/29
f 25/28 27/30 26/29
f 26/29 27/30 28/31
f 27/30 29/32 28/31
f 28/31 29/32 30/33
f 29/32 31/34 30/33
f 30/33 31/34 32/35
f 31/34 33/36 32/35
f 32/35 33/36 34/37
f 33/36 35/38 34/37
f 34/37 35/38 36/39
f 37/12 38/10 39/13
f 39/13 38/10 40/11
f 38/10 41/8 40/11
f 40/11 41/8 42/9
f 41/8 43/5 42/9
f 42/9 43/5 44/7
f 43/5 45/4 44/7
f 44/7 45/4 46/6
f 45/4 47/37 46/6
f 46/6 47/37 48/35
f 47/37 49/34 48/35
f 48/35 49/34 50/33
f 49/34 51/32 50/33
f 50/33 51/32 52/31
f 51/32 53/40 52/31
f 52/31 53/40 54/30
f 53/40 55/41 54/30
f 54/30 55/41 56/42
f 37/12 39/13 57/15
f 57/15 39/13 58/43
f 39/13 59/44 58/43
f 58/43 59/44 50/33
f 59/44 60/45 50/33
f 50/33 60/45 61/46
f 60/45 42/9 61/46
f 61/46 42/9 44/7
f 52/31 62/47 50/33
f 50/33 62/47 63/48
f 62/47 64/29 63/48
f 63/48 64/29 65/27
f 64/29 66/26 65/27
f 65/27 66/26 67/24
f 63/48 68/49 50/33
f 50/33 68/49 69/50
f 68/49 70/25 69/50
f 69/50 70/25 71/23
f 70/25 72/22 71/23
f 71/23 72/22 73/20
f 69/50 74/51 50/33
f 50/33 74/51 75/52
f 74/51 76/21 75/52
f 75/52 76/21 77/19
f 76/21 78/18 77/19
f 77/19 78/18 79/16
f 75/52 80/53 50/33
f 50/33 80/53 81/54
f 80/53 82/17 81/54
f 81/54 82/17 57/15
f 82/17 83/14 57/15
f 57/15 83/14 37/12
f 25/28 84/42 27/30
f 27/30 84/42 85/40
f 84/42 86/41 85/40
f 85/40 86/41 33/36
f 86/41 35/38 33/36
f 1/4 3/6 36/39
f 36/39 3/6 34/37
f 3/6 87/55 34/37
f 34/37 87/55 32/35
f 87/55 30/33 32/35
f 28/31 30/33 88/47
f 88/47 30/33 89/48
f 30/33 90/49 89/48
f 89/48 90/49 22/25
f 90/49 20/23 22/25
f 90/49 30/33 91/50
f 91/50 30/33 92/51
f 30/33 93/52 92/51
f 92/51 93/52 16/19
f 93/52 14/17 16/19
f 93/52 30/33 94/53
f 94/53 30/33 95/54
f 30/33 96/43 95/54
f 95/54 96/43 10/13
f 96/43 8/11 10/13
f 45/4 97/39 47/37
f 47/37 97/39 98/36
f 97/39 99/38 98/36
f 98/36 99/38 53/40
f 99/38 55/41 53/40
f 22/25 24/27 89/48
f 89/48 24/27 88/47
f 24/27 26/29 88/47
f 88/47 26/29 28/31
f 16/19 18/21 92/51
f 92/51 18/21 91/50
f 18/21 20/23 91/50
f 91/50 20/23 90/49
f 10/13 12/15 95/54
f 95/54 12/15 94/53
f 12/15 14/17 94/53
f 94/53 14/17 93/52
f 87/55 100/46 30/33
f 30/33 100/46 101/45
f 100/46 4/7 101/45
f 101/45 4/7 6/9
f 52/31 54/30 62/47
f 62/47 54/30 64/29
f 54/30 56/42 64/29
f 64/29 56/42 102/28
f 63/48 65/27 68/49
f 68/49 65/27 70/25
f 65/27 67/24 70/25
f 70/25 67/24 72/22
f 69/50 71/23 74/51
f 74/51 71/23 76/21
f 71/23 73/20 76/21
f 76/21 73/20 78/18
f 75/52 77/19 80/53
f 80/53 77/19 82/17
f 77/19 79/16 82/17
f 82/17 79/16 83/14
f 27/30 85/40 29/32
f 29/32 85/40 31/34
f 85/40 33/36 31/34
f 101/45 103/44 30/33
f 30/33 103/44 96/43
f 103/44 8/11 96/43
f 39/13 40/11 59/44
f 59/44 40/11 60/45
f 40/11 42/9 60/45
f 50/33 104/55 48/35
f 48/35 104/55 46/6
f 104/55 44/7 46/6
f 87/55 3/6 100/46
f 100/46 3/6 4/7
f 101/45 6/9 103/44
f 103/44 6/9 8/11
f 53/40 51/32 98/36
f 98/36 51/32 49/34
f 50/33 81/54 58/43
f 58/43 81/54 57/15
f 50/33 61/46 104/55
f 104/55 61/46 44/7
f 47/37 98/36 49/34
f 66/26 64/29 102/28
f 105/56 106/57 107/58
f 107/58 106/57 108/59
f 106/57 109/60 108/59
f 108/59 109/60 110/61
f 109/60 111/62 110/61
f 110/61 111/62 112/63
f 111/62 113/64 112/63
f 112/63 113/64 114/65
f 113/64 115/66 114/65
f 114/65 115/66 116/63
f 115/66 117/64 116/63
f 116/63 117/64 118/61
f 117/64 119/62 118/61
f 118/61 119/62 120/59
f 119/62 121/60 120/59
f 120/59 121/60 122/58
f 121/60 123/57 122/58
f 122/58 123/57 124/67
f 123/57 125/56 124/67
f 124/67 125/56 126/68
f 125/56 127/69 126/68
f 126/68 127/69 128/67
f 127/69 105/56 128/67
f 128/67 105/56 107/58
f 128/67 107/58 129/70
f 129/70 107/58 130/71
f 107/58 108/59 130/71
f 130/71 108/59 131/72
f 108/59 110/61 131/72
f 131/72 110/61 132/73
f 110/61 112/63 132/73
f 132/73 112/63 133/74
f 112/63 114/65 133/74
f 133/74 114/65 134/73
f 114/65 116/63 134/73
f 134/73 116/63 135/72
f 116/63 118/61 135/72
f 135/72 118/61 136/71
f 118/61 120/59 136/71
f 136/71 120/59 137/70
f 120/59 122/58 137/70
f 137/70 122/58 138/75
f 122/58 124/67 138/75
f 138/75 124/67 139/76
f 124/67 126/68 139/76
f 139/76 126/68 140/75
f 126/68 128/67 140/75
f 140/75 128/67 129/70
f 140/75 129/70 141/77
f 141/77 129/70 142/78
f 129/70 130/71 142/78
f 142/78 130/71 143/79
f 130/71 131/72 143/79
f 143/79 131/72 144/80
f 131/72 132/73 144/80
f 144/80 132/73 145/81
f 132/73 133/74 145/81
f 145/81 133/74 146/80
f 133/74 134/73 146/80
f 146/80 134/73 147/79
f 134/73 135/72 147/79
f 147/79 135/72 148/78
f 135/72 136/71 148/78
f 148/78 136/71 149/77
f 136/71 137/70 149/77
f 149/77 137/70 150/82
f 137/70 138/75 150/82
f 150/82 138/75 151/83
f 138/75 139/76 151/83
f 151/83 139/76 152/82
f 139/76 140/75 152/82
f 152/82 140/75 141/77
f 142/78 153/84 141/77
f 141/77 153/84 152/82
f 153/84 151/83 152/82
f 151/83 153/84 150/82
f 150/82 153/84 149/77
f 153/84 148/78 149/77
f 142/78 143/79 153/84
f 153/84 143/79 144/80
f 144/80 145/81 153/84
f 153/84 145/81 146/80
f 148/78 153/84 147/79
f 147/79 153/84 146/80
f 154/85 155/86 156/87
f 157/88 155/86 154/85
f 154/85 158/89 157/88
f 159/90 158/89 154/85
f 154/85 160/91 159/90
f 161/92 160/91 154/85
f 157/88 162/87 155/86
f 163/85 162/87 157/88
f 158/89 163/85 157/88
f 164/90 163/85 158/89
f 163/85 165/93 162/87
f 166/92 165/93 163/85
f 164/90 166/92 163/85
f 167/91 166/92 164/90
f 168/94 169/95 170/96
f 168/94 170/96 171/97
f 172/85 173/86 174/87
f 175/88 173/86 172/85
f 172/85 176/92 177/91
f 178/90 172/85 177/91
f 175/88 172/85 178/90
f 175/88 178/90 179/89
f 180/90 175/88 179/89
f 181/94 182/96 183/97
f 184/85 175/88 180/90
f 175/88 185/87 173/86
f 184/85 185/87 175/88
f 184/85 186/93 185/87
f 187/92 186/93 184/85
f 180/90 187/92 184/85
f 188/91 187/92 180/90
f 181/94 189/95 182/96
f 190/98 191/99 192/100
f 193/99 194/101 195/102
f 195/102 194/101 196/103
f 194/101 197/104 196/103
f 196/103 197/104 198/105
f 199/106 200/107 201/108
f 202/108 203/109 204/106
f 204/106 203/109 205/107
f 201/108 200/107 206/109
f 156/87 161/92 154/85
f 207/93 161/92 156/87
f 195/102 196/103 208/99
f 208/99 196/103 209/110
f 196/103 210/111 209/110
f 211/112 212/113 213/114
f 214/115 212/113 211/112
f 215/108 214/115 211/112
f 216/106 214/115 215/108
f 182/96 189/95 217/116
f 218/96 183/97 219/100
f 219/100 183/97 220/98
f 221/103 222/111 223/104
f 224/117 225/118 226/119
f 227/120 201/108 228/121
f 229/122 224/117 226/119
f 217/116 230/100 182/96
f 231/123 224/117 229/122
f 232/119 231/123 229/122
f 233/117 231/123 232/119
f 234/124 215/108 211/112
f 235/120 215/108 234/124
f 236/112 235/120 234/124
f 186/93 237/118 185/87
f 185/87 237/118 238/119
f 237/118 239/114 238/119
f 238/119 239/114 240/117
f 239/114 241/113 240/117
f 199/106 201/108 242/115
f 242/115 201/108 243/112
f 201/108 227/120 243/112
f 243/112 227/120 244/124
f 227/120 202/108 244/124
f 244/124 202/108 245/112
f 202/108 246/115 245/112
f 245/112 246/115 247/113
f 242/115 243/112 241/113
f 241/113 243/112 240/117
f 243/112 244/124 240/117
f 240/117 244/124 248/123
f 244/124 245/112 248/123
f 248/123 245/112 249/117
f 245/112 250/114 249/117
f 249/117 250/114 251/118
f 240/117 248/123 238/119
f 238/119 248/123 252/122
f 248/123 249/117 252/122
f 252/122 249/117 253/119
f 249/117 251/118 253/119
f 253/119 251/118 254/93
f 221/103 223/104 255/125
f 182/96 230/100 220/98
f 185/87 238/119 173/86
f 173/86 238/119 252/122
f 252/122 253/119 173/86
f 173/86 253/119 174/87
f 253/119 254/93 174/87
f 174/87 254/93 176/92
f 183/97 182/96 220/98
f 218/96 181/94 183/97
f 256/95 181/94 218/96
f 219/100 256/95 218/96
f 257/116 256/95 219/100
f 219/100 209/110 257/116
f 208/99 209/110 219/100
f 220/98 208/99 219/100
f 204/106 246/115 202/108
f 250/114 245/112 247/113
f 174/87 176/92 172/85
f 258/106 259/107 260/108
f 260/108 259/107 261/109
f 260/108 235/120 236/112
f 262/115 260/108 236/112
f 258/106 260/108 262/115
f 224/117 213/114 225/118
f 211/112 213/114 224/117
f 231/123 211/112 224/117
f 263/101 264/99 265/103
f 265/103 264/99 266/111
f 264/99 267/110 266/111
f 267/110 264/99 268/116
f 268/116 264/99 269/100
f 264/99 270/102 269/100
f 269/100 270/102 190/98
f 270/102 191/99 190/98
f 229/122 162/87 232/119
f 191/99 271/110 192/100
f 192/100 271/110 272/116
f 272/116 273/95 192/100
f 192/100 273/95 274/96
f 273/95 168/94 274/96
f 274/96 168/94 171/97
f 195/102 208/99 220/98
f 171/97 170/96 190/98
f 170/96 269/100 190/98
f 265/103 275/104 276/125
f 234/124 211/112 231/123
f 233/117 234/124 231/123
f 236/112 234/124 233/117
f 277/113 236/112 233/117
f 262/115 236/112 277/113
f 226/119 225/118 207/93
f 264/99 263/101 270/102
f 270/102 263/101 278/103
f 263/101 279/104 278/103
f 278/103 279/104 280/105
f 156/87 226/119 207/93
f 215/108 281/109 216/106
f 216/106 281/109 282/107
f 229/122 226/119 156/87
f 155/86 229/122 156/87
f 162/87 229/122 155/86
f 270/102 278/103 191/99
f 191/99 278/103 271/110
f 278/103 283/111 271/110
f 194/101 193/99 221/103
f 221/103 193/99 222/111
f 284/114 277/113 233/117
f 230/100 195/102 220/98
f 170/96 169/95 268/116
f 190/98 192/100 171/97
f 171/97 192/100 274/96
f 265/103 266/111 275/104
f 232/119 284/114 233/117
f 235/120 260/108 285/121
f 286/118 284/114 232/119
f 268/116 269/100 170/96
f 162/87 286/118 232/119
f 165/93 286/118 162/87
f 193/99 195/102 230/100
f 217/116 193/99 230/100
f 287/110 193/99 217/116
f 193/99 287/110 222/111
f 288/105 289/126 275/104
f 280/105 283/111 278/103
f 285/121 260/108 261/109
f 275/104 266/111 288/105
f 290/127 285/121 261/109
f 291/126 290/127 261/109
f 276/125 290/127 291/126
f 255/125 194/101 221/103
f 197/104 194/101 255/125
f 289/126 288/105 292/128
f 282/107 289/126 292/128
f 281/109 289/126 282/107
f 279/104 293/128 280/105
f 281/109 215/108 235/120
f 285/121 281/109 235/120
f 289/126 281/109 285/121
f 290/127 289/126 285/121
f 275/104 289/126 290/127
f 276/125 275/104 290/127
f 276/125 263/101 265/103
f 279/104 263/101 276/125
f 291/126 279/104 276/125
f 293/128 279/104 291/126
f 261/109 293/128 291/126
f 259/107 293/128 261/109
f 255/125 223/104 294/127
f 223/104 295/126 294/127
f 294/127 295/126 228/121
f 295/126 203/109 228/121
f 296/105 295/126 223/104
f 198/105 210/111 196/103
f 228/121 201/108 206/109
f 223/104 222/111 296/105
f 228/121 203/109 227/120
f 294/127 228/121 206/109
f 297/126 294/127 206/109
f 255/125 294/127 297/126
f 295/126 296/105 298/128
f 205/107 295/126 298/128
f 297/126 197/104 255/125
f 299/128 197/104 297/126
f 206/109 299/128 297/126
f 200/107 299/128 206/109
f 203/109 295/126 205/107
f 197/104 299/128 198/105
f 203/109 202/108 227/120
f 300/129 301/130 302/131
f 303/132 304/133 305/134
f 306/135 307/136 308/137
f 309/138 307/136 306/135
f 310/139 309/138 306/135
f 311/140 309/138 310/139
f 312/138 306/135 308/137
f 313/141 312/138 308/137
f 314/140 312/138 313/141
f 315/142 314/140 313/141
f 316/143 314/140 315/142
f 317/144 318/145 319/146
f 320/147 317/144 319/146
f 321/132 317/144 320/147
f 322/148 321/132 320/147
f 313/141 323/149 324/150
f 325/151 313/141 324/150
f 315/142 313/141 325/151
f 326/152 315/142 325/151
f 316/143 315/142 326/152
f 327/153 316/143 326/152
f 328/154 316/143 327/153
f 303/132 329/147 330/146
f 331/144 303/132 330/146
f 304/133 303/132 331/144
f 318/145 304/133 331/144
f 332/155 304/133 318/145
f 333/133 332/155 318/145
f 334/134 332/155 333/133
f 317/144 334/134 333/133
f 321/132 334/134 317/144
f 335/156 336/157 337/158
f 338/159 336/157 335/156
f 339/160 338/159 335/156
f 340/156 338/159 339/160
f 341/154 340/156 339/160
f 342/158 340/156 341/154
f 343/143 342/158 341/154
f 344/142 342/158 343/143
f 345/151 344/142 343/143
f 346/150 344/142 345/151
f 328/154 327/153 339/160
f 335/156 328/154 339/160
f 316/143 328/154 335/156
f 337/158 316/143 335/156
f 314/140 316/143 337/158
f 336/157 314/140 337/158
f 310/139 314/140 336/157
f 342/158 310/139 336/157
f 311/140 310/139 342/158
f 344/142 311/140 342/158
f 309/138 311/140 344/142
f 347/141 309/138 344/142
f 348/148 349/149 347/141
f 329/147 350/161 348/148
f 303/132 350/161 329/147
f 305/134 351/162 352/163
f 305/134 352/163 353/164
f 303/132 305/134 350/161
f 321/132 354/164 334/134
f 304/133 332/155 351/162
f 351/162 332/155 334/134
f 348/148 347/141 346/150
f 346/150 347/141 344/142
f 339/160 355/153 341/154
f 341/154 355/153 356/152
f 340/156 342/158 338/159
f 338/159 342/158 336/157
f 345/151 343/143 356/152
f 356/152 343/143 341/154
f 312/138 314/140 306/135
f 306/135 314/140 310/139
f 331/144 330/146 318/145
f 317/144 333/133 318/145
f 313/141 308/137 323/149
f 357/165 358/166 359/167
f 360/168 361/2 362/169
f 363/170 364/171 365/172
f 366/173 367/174 368/175
f 369/176 370/177 371/178
f 372/179 373/180 374/181
f 375/182 376/183 377/184
f 378/185 379/186 380/187
f 381/188 382/189 383/190
f 384/191 385/167 386/192
f 387/193 388/194 389/195
f 390/196 391/197 392/198
f 393/199 391/197 390/196
f 363/170 394/200 364/171
f 395/201 394/200 363/170
f 396/202 397/203 398/204
f 399/205 397/203 396/202
f 400/206 401/207 393/199
f 402/208 401/207 400/206
f 403/3 404/2 405/209
f 406/210 404/2 403/3
f 407/211 408/212 409/213
f 410/214 408/212 407/211
f 411/215 412/216 413/217
f 414/218 412/216 411/215
f 415/219 416/220 406/210
f 417/221 416/220 415/219
f 417/221 418/222 416/220
f 419/223 418/222 417/221
f 420/224 421/225 300/129
f 422/226 423/217 424/216
f 425/227 426/228 427/168
f 428/229 429/230 430/231
f 431/232 426/228 425/227
f 432/233 433/186 409/213
f 434/187 433/186 432/233
f 420/224 435/234 424/216
f 436/235 435/234 420/224
f 437/236 438/170 439/237
f 440/171 438/170 437/236
f 357/165 441/238 442/239
f 443/240 444/241 445/242
f 446/243 444/241 443/240
f 447/244 448/230 449/231
f 450/245 451/246 452/247
f 453/248 451/246 450/245
f 447/244 449/231 454/249
f 455/198 456/204 457/250
f 457/250 456/204 458/251
f 456/204 459/252 458/251
f 458/251 459/252 460/131
f 459/252 461/130 460/131
f 462/131 463/130 464/253
f 461/130 465/129 464/253
f 464/253 465/129 466/254
f 465/129 467/255 466/254
f 466/254 467/255 468/256
f 467/255 469/257 468/256
f 468/256 469/257 470/258
f 469/257 419/223 470/258
f 470/258 419/223 471/259
f 419/223 417/221 471/259
f 471/259 417/221 472/260
f 417/221 415/219 472/260
f 472/260 415/219 473/261
f 415/219 474/262 473/261
f 473/261 474/262 475/263
f 474/262 476/264 475/263
f 475/263 476/264 477/265
f 476/264 403/3 477/265
f 477/265 403/3 478/1
f 403/3 405/209 478/1
f 478/1 405/209 479/266
f 405/209 440/171 479/266
f 479/266 440/171 480/172
f 440/171 437/236 480/172
f 480/172 437/236 369/176
f 437/236 481/267 369/176
f 369/176 481/267 370/177
f 481/267 482/178 370/177
f 370/177 482/178 483/179
f 482/178 484/268 483/179
f 485/269 486/270 487/271
f 487/271 486/270 488/266
f 486/270 365/172 488/266
f 488/266 365/172 489/209
f 365/172 364/171 489/209
f 489/209 364/171 490/272
f 364/171 394/200 490/272
f 490/272 394/200 377/184
f 394/200 491/273 377/184
f 377/184 491/273 375/182
f 491/273 492/183 375/182
f 375/182 492/183 493/274
f 492/183 494/275 493/274
f 493/274 494/275 495/276
f 494/275 427/168 495/276
f 495/276 427/168 496/277
f 427/168 426/228 496/277
f 496/277 426/228 497/278
f 426/228 498/279 497/278
f 497/278 498/279 499/173
f 498/279 500/280 499/173
f 499/173 500/280 501/281
f 500/280 502/282 501/281
f 501/281 502/282 503/283
f 504/246 505/245 506/247
f 469/257 507/284 419/223
f 419/223 507/284 418/222
f 507/284 431/232 418/222
f 418/222 431/232 416/220
f 431/232 425/227 416/220
f 416/220 425/227 406/210
f 425/227 508/285 406/210
f 406/210 508/285 404/2
f 508/285 509/169 404/2
f 404/2 509/169 405/209
f 509/169 510/272 405/209
f 405/209 510/272 440/171
f 510/272 511/200 440/171
f 440/171 511/200 438/170
f 511/200 512/286 438/170
f 438/170 512/286 439/237
f 512/286 513/236 439/237
f 439/237 513/236 514/176
f 513/236 515/287 514/176
f 514/176 515/287 482/178
f 515/287 484/268 482/178
f 516/248 505/245 504/246
f 517/288 518/213 519/289
f 395/201 491/273 394/200
f 519/289 520/212 521/211
f 522/184 491/273 395/201
f 521/211 523/290 524/214
f 525/280 526/283 527/282
f 524/214 528/291 529/292
f 530/218 531/293 443/240
f 529/292 413/217 532/294
f 384/191 533/166 385/167
f 532/294 534/225 535/295
f 534/225 461/130 535/295
f 535/295 461/130 536/296
f 461/130 459/252 536/296
f 536/296 459/252 537/202
f 459/252 456/204 537/202
f 537/202 456/204 538/297
f 456/204 455/198 538/297
f 538/297 455/198 539/197
f 487/271 488/266 540/265
f 540/265 488/266 541/1
f 488/266 489/209 541/1
f 541/1 489/209 361/2
f 489/209 490/272 361/2
f 361/2 490/272 362/169
f 490/272 542/275 362/169
f 362/169 542/275 360/168
f 542/275 543/277 360/168
f 360/168 543/277 544/227
f 543/277 545/228 544/227
f 544/227 545/228 546/220
f 545/228 547/232 546/220
f 546/220 547/232 548/222
f 547/232 549/284 548/222
f 548/222 549/284 550/221
f 549/284 551/223 550/221
f 550/221 551/223 552/258
f 551/223 553/256 552/258
f 554/239 533/166 384/191
f 555/298 556/299 557/165
f 517/288 558/300 559/289
f 559/289 558/300 399/205
f 558/300 483/179 399/205
f 399/205 483/179 402/208
f 483/179 484/268 402/208
f 402/208 484/268 401/207
f 484/268 486/270 401/207
f 401/207 486/270 393/199
f 486/270 485/269 393/199
f 393/199 485/269 560/301
f 485/269 487/271 560/301
f 561/301 562/271 563/302
f 487/271 540/265 563/302
f 563/302 540/265 564/303
f 540/265 565/264 564/303
f 564/303 565/264 566/263
f 565/264 567/261 566/263
f 547/232 568/304 549/284
f 549/284 568/304 436/235
f 568/304 569/305 436/235
f 436/235 569/305 435/234
f 570/306 556/299 555/298
f 497/278 571/193 572/194
f 530/218 573/215 424/216
f 499/173 571/193 497/278
f 573/215 574/298 422/226
f 422/226 574/298 575/307
f 574/298 576/308 575/307
f 575/307 576/308 432/233
f 576/308 577/185 432/233
f 432/233 577/185 434/187
f 577/185 578/309 434/187
f 579/310 580/175 581/311
f 582/174 580/175 579/310
f 583/307 584/226 413/217
f 522/184 492/183 491/273
f 584/226 585/312 411/215
f 411/215 585/312 414/218
f 585/312 586/242 414/218
f 414/218 586/242 587/240
f 494/275 492/183 522/184
f 587/240 588/241 589/313
f 588/241 590/243 589/313
f 589/313 590/243 591/314
f 590/243 592/315 591/314
f 591/314 592/315 593/316
f 592/315 594/317 593/316
f 425/227 427/168 508/285
f 508/285 427/168 509/169
f 427/168 494/275 509/169
f 509/169 494/275 510/272
f 494/275 522/184 510/272
f 510/272 522/184 511/200
f 522/184 395/201 511/200
f 511/200 395/201 512/286
f 395/201 363/170 512/286
f 512/286 363/170 513/236
f 363/170 365/172 513/236
f 513/236 365/172 515/287
f 365/172 486/270 515/287
f 515/287 486/270 484/268
f 595/303 596/271 597/302
f 597/302 596/271 598/269
f 596/271 479/266 598/269
f 598/269 479/266 599/270
f 479/266 600/287 599/270
f 599/270 600/287 601/207
f 600/287 602/268 601/207
f 601/207 602/268 603/206
f 602/268 604/208 603/206
f 603/206 604/208 605/203
f 604/208 606/205 605/203
f 605/203 606/205 524/214
f 606/205 521/211 524/214
f 607/196 538/297 539/197
f 580/175 608/318 581/311
f 605/203 538/297 607/196
f 581/311 609/319 368/175
f 607/196 603/206 605/203
f 368/175 610/281 366/173
f 610/281 611/279 366/173
f 366/173 611/279 387/193
f 611/279 612/278 387/193
f 387/193 612/278 388/194
f 612/278 543/277 388/194
f 388/194 543/277 613/276
f 543/277 542/275 613/276
f 443/240 445/242 530/218
f 530/218 445/242 614/312
f 601/207 603/206 607/196
f 614/312 357/165 615/299
f 357/165 359/167 615/299
f 615/299 359/167 616/192
f 359/167 617/191 616/192
f 616/192 617/191 618/320
f 617/191 619/321 618/320
f 618/320 619/321 620/322
f 619/321 578/309 620/322
f 620/322 578/309 577/185
f 496/277 621/323 495/276
f 495/276 621/323 493/274
f 621/323 622/324 493/274
f 493/274 622/324 623/325
f 622/324 624/323 623/325
f 623/325 624/323 625/274
f 624/323 613/276 625/274
f 625/274 613/276 376/183
f 613/276 542/275 376/183
f 376/183 542/275 377/184
f 542/275 490/272 377/184
f 622/324 626/326 389/195
f 621/323 626/326 622/324
f 379/186 378/185 627/233
f 627/233 378/185 583/307
f 378/185 628/308 583/307
f 583/307 628/308 584/226
f 628/308 555/298 584/226
f 584/226 555/298 585/312
f 555/298 557/165 585/312
f 585/312 557/165 586/242
f 557/165 629/238 586/242
f 432/233 630/290 575/307
f 575/307 630/290 631/291
f 605/203 537/202 538/297
f 524/214 537/202 605/203
f 632/292 633/296 634/294
f 634/294 633/296 635/295
f 633/296 636/252 635/295
f 635/295 636/252 301/130
f 636/252 637/251 301/130
f 301/130 637/251 302/131
f 374/181 638/300 372/179
f 519/289 638/300 374/181
f 393/199 639/327 391/197
f 560/301 639/327 393/199
f 529/292 535/295 536/296
f 532/294 535/295 529/292
f 524/214 536/296 537/202
f 529/292 536/296 524/214
f 414/218 640/293 641/305
f 587/240 640/293 414/218
f 547/232 525/280 568/304
f 568/304 525/280 569/305
f 525/280 527/282 569/305
f 414/218 642/234 412/216
f 367/174 581/311 368/175
f 531/293 643/328 443/240
f 643/328 644/313 443/240
f 443/240 644/313 446/243
f 644/313 645/188 446/243
f 446/243 645/188 646/314
f 543/277 612/278 545/228
f 545/228 612/278 547/232
f 612/278 611/279 547/232
f 547/232 611/279 525/280
f 611/279 610/281 525/280
f 525/280 610/281 526/283
f 610/281 609/319 526/283
f 579/310 581/311 367/174
f 624/323 622/324 389/195
f 647/190 648/189 645/188
f 461/130 534/225 465/129
f 465/129 534/225 467/255
f 534/225 649/224 467/255
f 467/255 649/224 469/257
f 649/224 650/235 469/257
f 469/257 650/235 507/284
f 650/235 651/304 507/284
f 507/284 651/304 431/232
f 651/304 498/279 431/232
f 431/232 498/279 426/228
f 637/251 636/252 652/250
f 652/250 636/252 398/204
f 636/252 633/296 398/204
f 398/204 633/296 396/202
f 633/296 632/292 396/202
f 396/202 632/292 410/214
f 632/292 630/290 410/214
f 410/214 630/290 408/212
f 388/194 624/323 389/195
f 613/276 624/323 388/194
f 623/325 625/274 376/183
f 554/239 557/165 533/166
f 557/165 556/299 533/166
f 533/166 556/299 385/167
f 556/299 570/306 385/167
f 385/167 570/306 386/192
f 570/306 653/320 386/192
f 386/192 653/320 384/191
f 653/320 654/321 384/191
f 375/182 623/325 376/183
f 655/329 656/330 657/331
f 493/274 623/325 375/182
f 657/331 658/332 659/333
f 399/205 396/202 410/214
f 659/333 660/334 661/335
f 407/211 399/205 410/214
f 661/335 662/336 663/337
f 521/211 606/205 519/289
f 519/289 606/205 638/300
f 606/205 604/208 638/300
f 638/300 604/208 372/179
f 604/208 371/178 372/179
f 372/179 371/178 373/180
f 371/178 370/177 373/180
f 373/180 370/177 483/179
f 575/307 631/291 422/226
f 422/226 631/291 423/217
f 559/289 399/205 407/211
f 358/166 357/165 442/239
f 634/294 635/295 421/225
f 421/225 635/295 300/129
f 635/295 301/130 300/129
f 305/134 304/133 351/162
f 549/284 436/235 551/223
f 551/223 436/235 664/257
f 436/235 420/224 664/257
f 664/257 420/224 665/255
f 420/224 300/129 665/255
f 665/255 300/129 666/253
f 300/129 302/131 666/253
f 530/218 614/312 573/215
f 573/215 614/312 574/298
f 614/312 615/299 574/298
f 574/298 615/299 576/308
f 615/299 667/306 576/308
f 576/308 667/306 577/185
f 667/306 620/322 577/185
f 498/279 651/304 500/280
f 500/280 651/304 502/282
f 651/304 641/305 502/282
f 617/191 358/166 442/239
f 359/167 358/166 617/191
f 668/328 640/293 589/313
f 640/293 587/240 589/313
f 669/322 628/308 378/185
f 380/187 669/322 378/185
f 670/309 669/322 380/187
f 592/315 590/243 588/241
f 671/338 592/315 588/241
f 594/317 592/315 671/338
f 646/314 672/316 446/243
f 446/243 672/316 673/315
f 672/316 674/317 673/315
f 673/315 674/317 675/338
f 674/317 676/339 675/338
f 675/338 676/339 677/238
f 651/304 650/235 641/305
f 616/192 618/320 620/322
f 650/235 649/224 642/234
f 667/306 616/192 620/322
f 649/224 534/225 412/216
f 615/299 616/192 667/306
f 591/314 381/188 589/313
f 589/313 381/188 668/328
f 381/188 383/190 668/328
f 668/328 383/190 503/283
f 383/190 382/189 503/283
f 647/190 645/188 644/313
f 552/258 678/259 550/221
f 550/221 678/259 679/219
f 678/259 680/260 679/219
f 679/219 680/260 681/262
f 680/260 567/261 681/262
f 681/262 567/261 565/264
f 540/265 541/1 565/264
f 565/264 541/1 682/3
f 682/3 361/2 686/285
f 361/2 360/168 686/285
f 686/285 360/168 544/227
f 687/321 688/320 670/309
f 670/309 653/320 669/322
f 653/320 570/306 669/322
f 669/322 570/306 628/308
f 570/306 555/298 628/308
f 599/270 601/207 598/269
f 598/269 601/207 689/199
f 601/207 607/196 689/199
f 689/199 607/196 690/327
f 607/196 539/197 690/327
f 565/264 682/3 681/262
f 681/262 682/3 691/210
f 682/3 686/285 691/210
f 691/210 686/285 546/220
f 686/285 544/227 546/220
f 604/208 602/268 371/178
f 371/178 602/268 369/176
f 602/268 600/287 369/176
f 369/176 600/287 480/172
f 600/287 479/266 480/172
f 402/208 400/206 399/205
f 399/205 400/206 397/203
f 400/206 692/297 397/203
f 397/203 692/297 398/204
f 692/297 693/250 398/204
f 694/249 695/244 453/248
f 453/248 695/244 451/246
f 695/244 696/334 451/246
f 451/246 696/334 452/247
f 499/173 501/281 582/174
f 582/174 501/281 580/175
f 501/281 503/283 580/175
f 580/175 503/283 697/319
f 673/315 675/338 446/243
f 446/243 675/338 444/241
f 675/338 677/238 444/241
f 444/241 677/238 445/242
f 666/253 698/254 665/255
f 665/255 698/254 664/257
f 698/254 553/256 664/257
f 664/257 553/256 551/223
f 366/173 387/193 367/174
f 367/174 387/193 699/340
f 387/193 389/195 699/340
f 699/340 389/195 626/326
f 367/174 699/340 579/310
f 579/310 699/340 700/341
f 699/340 626/326 700/341
f 700/341 626/326 701/195
f 691/210 546/220 681/262
f 681/262 546/220 679/219
f 546/220 548/222 679/219
f 679/219 548/222 550/221
f 579/310 700/341 582/174
f 582/174 700/341 702/340
f 700/341 701/195 702/340
f 702/340 701/195 572/194
f 643/328 647/190 644/313
f 506/247 447/244 504/246
f 447/244 454/249 504/246
f 504/246 454/249 516/248
f 703/337 704/335 705/342
f 705/342 704/335 706/343
f 704/335 707/333 706/343
f 706/343 707/333 708/332
f 497/278 572/194 496/277
f 496/277 572/194 621/323
f 572/194 701/195 621/323
f 621/323 701/195 626/326
f 598/269 689/199 690/327
f 588/241 709/238 671/338
f 710/301 598/269 690/327
f 671/338 711/339 712/317
f 483/179 558/300 373/180
f 373/180 558/300 374/181
f 558/300 517/288 374/181
f 374/181 517/288 519/289
f 597/302 598/269 710/301
f 406/210 403/3 476/264
f 474/262 406/210 476/264
f 415/219 406/210 474/262
f 663/337 713/342 661/335
f 661/335 713/342 659/333
f 713/342 714/343 659/333
f 659/333 714/343 657/331
f 703/337 715/336 704/335
f 704/335 715/336 707/333
f 715/336 716/334 707/333
f 707/333 716/334 708/332
f 475/263 477/265 595/303
f 595/303 477/265 596/271
f 477/265 478/1 596/271
f 596/271 478/1 479/266
f 652/250 692/297 392/198
f 392/198 692/297 390/196
f 692/297 400/206 390/196
f 390/196 400/206 393/199
f 582/174 702/340 499/173
f 499/173 702/340 571/193
f 702/340 572/194 571/193
f 482/178 481/267 514/176
f 514/176 481/267 439/237
f 481/267 437/236 439/237
f 717/344 718/345 719/346
f 720/347 721/348 722/349
f 723/350 724/351 717/344
f 725/352 720/347 722/349
f 709/238 711/339 671/338
f 586/242 709/238 588/241
f 527/282 647/190 643/328
f 726/334 447/244 506/247
f 503/283 382/189 697/319
f 412/216 534/225 413/217
f 642/234 649/224 412/216
f 641/305 650/235 642/234
f 719/346 727/353 728/354
f 729/354 727/353 719/346
f 730/344 729/354 719/346
f 731/350 729/354 730/344
f 732/355 720/347 725/352
f 733/356 734/357 735/358
f 641/305 640/293 668/328
f 502/282 641/305 668/328
f 423/217 634/294 421/225
f 631/291 634/294 423/217
f 660/334 662/336 661/335
f 736/356 737/359 738/357
f 656/330 658/332 657/331
f 739/360 656/330 655/329
f 629/238 557/165 554/239
f 408/212 432/233 409/213
f 630/290 432/233 408/212
f 609/319 648/189 647/190
f 526/283 609/319 647/190
f 527/282 643/328 531/293
f 641/305 642/234 414/218
f 569/305 527/282 531/293
f 349/149 309/138 347/141
f 350/161 349/149 348/148
f 352/163 351/162 354/164
f 740/361 741/362 742/363
f 743/361 744/364 745/365
f 350/161 305/134 353/164
f 354/164 351/162 334/134
f 746/161 354/164 321/132
f 740/361 742/363 747/365
f 733/356 748/366 734/357
f 631/291 632/292 634/294
f 630/290 632/292 631/291
f 520/212 379/186 627/233
f 518/213 379/186 520/212
f 445/242 357/165 614/312
f 609/319 610/281 368/175
f 608/318 609/319 581/311
f 697/319 608/318 580/175
f 586/242 588/241 587/240
f 413/217 584/226 411/215
f 528/291 583/307 413/217
f 523/290 583/307 528/291
f 424/216 573/215 422/226
f 435/234 530/218 424/216
f 569/305 530/218 435/234
f 409/213 517/288 559/289
f 749/367 517/288 409/213
f 413/217 534/225 532/294
f 520/212 627/233 523/290
f 523/290 627/233 583/307
f 569/305 531/293 530/218
f 528/291 413/217 529/292
f 523/290 528/291 524/214
f 527/282 526/283 647/190
f 520/212 523/290 521/211
f 518/213 520/212 519/289
f 749/367 518/213 517/288
f 502/282 668/328 503/283
f 750/364 740/361 751/368
f 696/334 695/244 429/230
f 726/334 448/230 447/244
f 752/362 753/369 722/349
f 719/346 728/354 717/344
f 717/344 728/354 723/350
f 721/348 752/362 722/349
f 754/370 752/362 721/348
f 445/242 441/238 357/165
f 755/371 756/229 448/230
f 757/372 758/373 759/374
f 741/362 760/348 761/349
f 762/330 763/331 708/332
f 764/370 760/348 741/362
f 740/361 764/370 741/362
f 765/375 764/370 740/361
f 766/372 767/376 758/373
f 750/364 765/375 740/361
f 768/360 769/329 762/330
f 762/330 769/329 763/331
f 770/377 765/375 750/364
f 771/371 429/230 428/229
f 752/362 745/365 772/363
f 424/216 423/217 421/225
f 424/216 421/225 420/224
f 743/361 745/365 752/362
f 754/370 743/361 752/362
f 744/364 743/361 754/370
f 773/375 744/364 754/370
f 770/377 744/364 773/375
f 774/352 775/347 732/355
f 775/347 774/352 760/348
f 760/348 774/352 761/349
f 746/161 322/148 323/149
f 323/149 322/148 324/150
f 307/136 309/138 776/137
f 736/356 777/378 778/379
f 776/137 309/138 349/149
f 750/364 751/368 770/377
f 770/377 751/368 779/380
f 725/352 722/349 780/381
f 733/356 781/379 782/378
f 761/349 774/352 783/369
f 746/161 321/132 322/148
f 409/213 559/289 407/211
f 784/382 785/383 786/384
f 787/385 784/382 788/386
f 788/386 784/382 789/387
f 790/388 791/389 792/390
f 793/391 791/389 790/388
f 793/391 794/392 791/389
f 795/393 794/392 793/391
f 795/393 796/394 794/392
f 797/395 796/394 795/393
f 784/382 786/384 789/387
f 798/396 785/383 784/382
f 799/397 800/398 801/393
f 801/393 800/398 802/391
f 800/398 803/399 802/391
f 802/391 803/399 804/388
f 803/399 805/400 804/388
f 804/388 805/400 806/401
f 805/400 807/402 806/401
f 806/401 807/402 790/388
f 807/402 808/400 790/388
f 790/388 808/400 793/391
f 808/400 809/399 793/391
f 793/391 809/399 795/393
f 787/385 798/396 784/382
f 795/393 810/398 797/395
f 811/403 812/404 813/405
f 813/405 812/404 814/406
f 812/404 797/395 814/406
f 814/406 797/395 815/397
f 797/395 810/398 815/397
f 813/405 816/406 811/403
f 811/403 816/406 817/404
f 816/406 799/397 817/404
f 817/404 799/397 818/395
f 799/397 801/393 818/395
f 819/386 820/407 821/408
f 783/369 774/352 822/381
f 823/409 798/396 787/385
f 780/381 722/349 753/369
f 782/378 781/379 767/376
f 798/396 824/410 785/383
f 767/376 825/411 759/374
f 779/380 744/364 770/377
f 826/368 744/364 779/380
f 772/363 827/384 828/412
f 826/368 829/413 830/410
f 779/380 829/413 826/368
f 751/368 824/410 779/380
f 747/365 824/410 751/368
f 826/368 831/383 745/365
f 747/365 785/383 824/410
f 742/363 786/384 747/365
f 783/369 786/384 742/363
f 783/369 832/412 786/384
f 822/381 833/414 783/369
f 834/415 835/416 822/381
f 780/381 836/414 834/415
f 753/369 828/412 780/381
f 772/363 828/412 753/369
f 789/387 786/384 832/412
f 804/388 837/417 838/390
f 806/401 837/417 804/388
f 788/386 789/387 839/408
f 839/408 789/387 840/418
f 806/401 792/390 837/417
f 790/388 792/390 806/401
f 789/387 832/412 840/418
f 840/418 832/412 833/414
f 841/419 842/420 843/394
f 844/421 842/420 841/419
f 839/408 840/418 845/422
f 845/422 840/418 846/423
f 847/424 824/410 798/396
f 823/409 847/424 798/396
f 777/378 848/376 849/411
f 850/425 847/424 823/409
f 848/376 759/374 851/426
f 847/424 829/413 824/410
f 852/427 829/413 847/424
f 834/415 774/352 732/355
f 822/381 774/352 834/415
f 844/421 853/428 842/420
f 854/429 853/428 844/421
f 850/425 852/427 847/424
f 855/430 852/427 850/425
f 856/385 857/431 858/432
f 859/409 860/433 856/385
f 850/425 861/434 862/435
f 823/409 863/433 850/425
f 429/230 694/249 430/231
f 782/378 767/376 766/372
f 767/376 759/374 758/373
f 777/378 757/372 848/376
f 708/332 763/331 706/343
f 848/376 757/372 759/374
f 718/345 730/344 719/346
f 864/351 730/344 718/345
f 448/230 756/229 449/231
f 429/230 695/244 694/249
f 751/368 740/361 747/365
f 787/385 865/431 823/409
f 748/366 864/351 866/436
f 840/418 833/414 846/423
f 788/386 865/431 787/385
f 846/423 833/414 835/416
f 864/351 718/345 867/437
f 797/395 868/420 796/394
f 839/408 869/407 870/432
f 745/365 744/364 826/368
f 718/345 724/351 871/436
f 742/363 741/362 761/349
f 812/404 868/420 797/395
f 845/422 872/438 839/408
f 753/369 752/362 772/363
f 742/363 761/349 783/369
f 845/422 846/423 821/408
f 821/408 846/423 873/418
f 724/351 874/366 738/357
f 812/404 853/428 868/420
f 821/408 820/407 845/422
f 811/403 853/428 812/404
f 658/332 660/334 659/333
f 846/423 835/416 873/418
f 873/418 835/416 836/414
f 821/408 873/418 819/386
f 819/386 873/418 875/387
f 748/366 731/350 864/351
f 873/418 836/414 875/387
f 875/387 836/414 828/412
f 819/386 875/387 856/385
f 856/385 875/387 876/382
f 877/439 878/440 737/359
f 879/441 878/440 877/439
f 875/387 828/412 876/382
f 876/382 828/412 827/384
f 879/441 880/442 878/440
f 881/443 880/442 879/441
f 856/385 876/382 859/409
f 882/409 883/382 884/396
f 881/443 885/440 880/442
f 886/441 885/440 881/443
f 876/382 827/384 884/396
f 884/396 827/384 831/383
f 886/441 887/359 885/440
f 888/439 887/359 886/441
f 859/409 884/396 889/425
f 889/425 884/396 890/424
f 888/439 735/358 887/359
f 891/444 735/358 888/439
f 884/396 831/383 890/424
f 890/424 831/383 892/410
f 891/444 791/389 794/392
f 888/439 791/389 891/444
f 888/439 792/390 791/389
f 886/441 792/390 888/439
f 889/425 890/424 855/430
f 855/430 890/424 852/427
f 890/424 830/410 852/427
f 834/415 732/355 780/381
f 780/381 732/355 725/352
f 864/351 731/350 730/344
f 874/366 724/351 723/350
f 724/351 718/345 717/344
f 809/399 810/398 795/393
f 852/427 830/410 829/413
f 855/430 893/434 889/425
f 856/385 858/432 819/386
f 819/386 858/432 820/407
f 839/408 870/432 788/386
f 894/444 895/445 735/358
f 896/419 895/445 894/444
f 897/419 898/446 895/445
f 899/421 900/446 896/419
f 899/421 901/447 900/446
f 854/429 901/447 899/421
f 788/386 870/432 865/431
f 850/425 862/435 855/430
f 902/444 843/394 903/392
f 841/419 904/394 905/444
f 906/448 816/406 813/405
f 907/449 816/406 906/448
f 862/435 907/449 906/448
f 861/434 907/449 862/435
f 907/449 799/397 816/406
f 908/450 799/397 907/449
f 861/434 908/450 907/449
f 863/433 908/450 861/434
f 908/450 800/398 799/397
f 909/451 800/398 908/450
f 863/433 909/451 908/450
f 865/431 909/451 863/433
f 909/451 803/399 800/398
f 910/452 803/399 909/451
f 865/431 910/452 909/451
f 870/432 910/452 865/431
f 910/452 805/400 803/399
f 911/453 805/400 910/452
f 870/432 911/453 910/452
f 869/407 911/453 870/432
f 911/453 807/402 805/400
f 912/454 807/402 911/453
f 869/407 912/454 911/453
f 872/438 912/454 869/407
f 912/454 808/400 807/402
f 913/453 808/400 912/454
f 828/412 836/414 780/381
f 872/438 913/453 912/454
f 836/414 835/416 834/415
f 820/407 913/453 872/438
f 835/416 833/414 822/381
f 913/453 809/399 808/400
f 833/414 832/412 783/369
f 914/452 809/399 913/453
f 820/407 914/452 913/453
f 858/432 914/452 820/407
f 786/384 785/383 747/365
f 914/452 810/398 809/399
f 830/410 831/383 826/368
f 915/451 810/398 914/452
f 831/383 772/363 745/365
f 858/432 915/451 914/452
f 857/431 915/451 858/432
f 824/410 829/413 779/380
f 915/451 815/397 810/398
f 916/450 815/397 915/451
f 831/383 827/384 772/363
f 857/431 916/450 915/451
f 860/433 916/450 857/431
f 916/450 814/406 815/397
f 917/449 814/406 916/450
f 860/433 917/449 916/450
f 893/434 917/449 860/433
f 917/449 813/405 814/406
f 906/448 813/405 917/449
f 893/434 906/448 917/449
f 862/435 906/448 893/434
f 738/357 874/366 736/356
f 820/407 872/438 845/422
f 871/436 724/351 738/357
f 872/438 869/407 839/408
f 867/437 718/345 871/436
f 866/436 864/351 867/437
f 734/357 748/366 866/436
f 865/431 863/433 823/409
f 918/446 851/426 901/447
f 863/433 861/434 850/425
f 849/411 851/426 918/446
f 893/434 860/433 859/409
f 919/445 849/411 918/446
f 860/433 857/431 856/385
f 778/379 849/411 919/445
f 825/411 901/447 851/426
f 900/446 901/447 825/411
f 781/379 900/446 825/411
f 895/445 900/446 781/379
f 849/411 848/376 851/426
f 778/379 777/378 849/411
f 825/411 851/426 759/374
f 781/379 825/411 767/376
f 920/390 802/391 804/388
f 921/389 802/391 920/390
f 921/389 801/393 802/391
f 903/392 801/393 921/389
f 903/392 818/395 801/393
f 904/394 818/395 903/392
f 920/390 881/443 879/441
f 837/417 881/443 920/390
f 837/417 886/441 922/443
f 792/390 886/441 837/417
f 904/394 817/404 818/395
f 842/420 817/404 904/394
f 923/420 924/403 817/404
f 853/428 811/403 842/420
f 796/394 899/421 896/419
f 868/420 899/421 796/394
f 868/420 854/429 925/421
f 853/428 854/429 868/420
f 926/358 737/359 736/356
f 778/379 926/358 736/356
f 919/445 926/358 778/379
f 735/358 734/357 887/359
f 895/445 733/356 735/358
f 781/379 733/356 895/445
f 737/359 871/436 738/357
f 878/440 871/436 737/359
f 878/440 867/437 871/436
f 880/442 867/437 878/440
f 880/442 866/436 867/437
f 885/440 866/436 880/442
f 927/440 928/357 866/436
f 887/359 734/357 885/440
f 737/359 905/444 877/439
f 926/358 905/444 737/359
f 903/392 877/439 929/444
f 921/389 877/439 903/392
f 921/389 879/441 877/439
f 920/390 879/441 921/389
f 930/358 931/419 929/444
f 919/445 841/419 926/358
f 862/435 893/434 855/430
f 919/445 844/421 932/419
f 893/434 859/409 889/425
f 918/446 844/421 919/445
f 918/446 854/429 844/421
f 901/447 854/429 918/446
f 933/392 934/419 891/444
f 796/394 896/419 794/392
