<?xml version="1.0" encoding="utf-8"?>
<COLLADA xmlns="http://www.collada.org/2005/11/COLLADASchema" version="1.4.1" xmlns:xsi="http://www.w3.org/2001/XMLSchema-instance">
  <asset>
    <contributor>
      <author>Blender User</author>
      <authoring_tool>Blender 2.79.0 commit date:2018-03-22, commit time:14:10, hash:f4dc9f9d68b</authoring_tool>
    </contributor>
    <created>2019-02-28T11:15:35</created>
    <modified>2019-02-28T11:15:35</modified>
    <unit name="meter" meter="1"/>
    <up_axis>Z_UP</up_axis>
  </asset>
  <library_images>
    <image id="e18t_png" name="e18t_png">
      <init_from>e18t.png</init_from>
    </image>
  </library_images>
  <library_effects>
    <effect id="e18t_png-effect">
      <profile_COMMON>
        <newparam sid="e18t_png-surface">
          <surface type="2D">
            <init_from>e18t_png</init_from>
          </surface>
        </newparam>
        <newparam sid="e18t_png-sampler">
          <sampler2D>
            <source>e18t_png-surface</source>
          </sampler2D>
        </newparam>
        <technique sid="common">
          <phong>
            <diffuse>
              <texture texture="e18t_png-sampler" texcoord="e18t_png"/>
            </diffuse>
            <specular>
              <color sid="specular">0 0 0 1</color>
            </specular>
          </phong>
        </technique>
      </profile_COMMON>
    </effect>
  </library_effects>
  <library_materials>
    <material id="e18t_png-material" name="e18t_png">
      <instance_effect url="#e18t_png-effect"/>
    </material>
  </library_materials>
  <library_geometries>
    <geometry id="polygon0-mesh" name="polygon0">
      <mesh>
        <source id="polygon0-mesh-positions">
          <float_array id="polygon0-mesh-positions-array" count="78">4.232233 2.767767 0 4.232233 1 1.767767 3.5 1 0 4.629256 -0.370744 1.364506 4.232233 -0.767767 0 6 -1.5 0 6 -0.767767 -1.767767 7.370745 -0.370744 -1.364506 7.767767 1 -1.767767 8.5 1 0 7.767767 2.767767 0 7.370745 2.370744 1.364506 6 3.5 0 6 2.767767 1.767767 4.629256 2.370744 1.364506 6 1 2.5 6 -0.767767 1.767767 7.370745 -0.370744 1.364506 7.767767 -0.767767 0 7.767767 1 1.767767 4.629256 2.370744 -1.364506 4.232233 1 -1.767767 6 2.767767 -1.767767 6 1 -2.5 7.370745 2.370744 -1.364506 4.629256 -0.370744 -1.364506</float_array>
          <technique_common>
            <accessor source="#polygon0-mesh-positions-array" count="26" stride="3">
              <param name="X" type="float"/>
              <param name="Y" type="float"/>
              <param name="Z" type="float"/>
            </accessor>
          </technique_common>
        </source>
        <source id="polygon0-mesh-normals">
          <float_array id="polygon0-mesh-normals-array" count="78">-1 0 0 -0.7068473 2.7467e-4 0.7073661 -0.7071067 0.7071067 6.1039e-4 -0.5777874 -0.5777874 0.576475 -0.7071067 -0.7071067 -6.1039e-4 0 -1 0 -2.7467e-4 -0.7068473 -0.7073661 0.5777874 -0.5777874 -0.576475 0.7068473 2.7467e-4 -0.7073661 1 0 0 0.7071067 0.7071067 -6.1039e-4 0.5777874 0.5777874 0.576475 0 1 0 -2.7467e-4 0.7068473 0.7073661 -0.5781325 0.5781325 0.5757825 0 0 1 2.7467e-4 -0.7068473 0.7073661 0.5781325 -0.5781325 0.5757825 0.7071067 -0.7071067 6.1039e-4 0.7068473 -2.7467e-4 0.7073661 -0.5777874 0.5777874 -0.576475 -0.7068473 -2.7467e-4 -0.7073661 2.7467e-4 0.7068473 -0.7073661 0 0 -1 0.5781325 0.5781325 -0.5757825 -0.5781325 -0.5781325 -0.5757825</float_array>
          <technique_common>
            <accessor source="#polygon0-mesh-normals-array" count="26" stride="3">
              <param name="X" type="float"/>
              <param name="Y" type="float"/>
              <param name="Z" type="float"/>
            </accessor>
          </technique_common>
        </source>
        <source id="polygon0-mesh-map-0">
          <float_array id="polygon0-mesh-map-0-array" count="288">0.887 0.065319 0.901645 0.065319 0.901645 0.100674 0.909585 0.03790402 0.901645 0.065319 0.887 0.065319 0.901645 0.02996402 0.909585 0.03790402 0.887 0.065319 0.937 0.01531898 0.909585 0.03790402 0.901645 0.02996402 0.937 0.02996402 0.937 0.01531898 0.901645 0.02996402 0.964415 0.03790402 0.937 0.01531898 0.937 0.02996402 0.972355 0.065319 0.964415 0.03790402 0.937 0.02996402 0.9870001 0.065319 0.964415 0.03790402 0.972355 0.065319 0.972355 0.100674 0.9870001 0.065319 0.972355 0.065319 0.964415 0.09273397 0.9870001 0.065319 0.972355 0.100674 0.937 0.115319 0.964415 0.09273397 0.972355 0.100674 0.937 0.100674 0.964415 0.09273397 0.937 0.115319 0.901645 0.100674 0.937 0.100674 0.937 0.115319 0.909585 0.09273397 0.937 0.100674 0.901645 0.100674 0.901645 0.065319 0.909585 0.09273397 0.901645 0.100674 0.937 0.065319 0.909585 0.09273397 0.901645 0.065319 0.937 0.02996402 0.937 0.065319 0.901645 0.065319 0.964415 0.03790402 0.937 0.065319 0.937 0.02996402 0.972355 0.02996402 0.964415 0.03790402 0.937 0.02996402 0.972355 0.065319 0.964415 0.03790402 0.972355 0.02996402 0.9870001 0.065319 0.972355 0.065319 0.972355 0.02996402 0.964415 0.09273397 0.972355 0.065319 0.9870001 0.065319 0.909585 0.09273397 0.887 0.065319 0.901645 0.100674 0.901645 0.065319 0.887 0.065319 0.909585 0.09273397 0.937 0.100674 0.901645 0.065319 0.909585 0.09273397 0.937 0.065319 0.901645 0.065319 0.937 0.100674 0.964415 0.09273397 0.937 0.065319 0.937 0.100674 0.972355 0.065319 0.937 0.065319 0.964415 0.09273397 0.972355 0.100674 0.972355 0.065319 0.964415 0.09273397 0.972355 0.02996402 0.964415 0.03790402 0.9870001 0.065319 0.937 0.01531898 0.964415 0.03790402 0.972355 0.02996402 0.937 0.02996402 0.937 0.01531898 0.972355 0.02996402 0.909585 0.03790402 0.937 0.01531898 0.937 0.02996402 0.901645 0.065319 0.909585 0.03790402 0.937 0.02996402 0.901645 0.065319 0.901645 0.02996402 0.887 0.065319 0.909585 0.03790402 0.901645 0.02996402 0.901645 0.065319 0.937 0.065319 0.909585 0.03790402 0.901645 0.065319 0.937 0.02996402 0.909585 0.03790402 0.937 0.065319 0.972355 0.065319 0.937 0.02996402 0.937 0.065319 0.937 0.100674 0.972355 0.100674 0.964415 0.09273397 0.937 0.115319 0.972355 0.100674 0.937 0.100674 0.909585 0.09273397 0.937 0.115319 0.937 0.100674 0.901645 0.100674 0.937 0.115319 0.909585 0.09273397 0.937 0.100674 0.972355 0.065319 0.964415 0.09273397 0.937 0.065319 0.972355 0.065319 0.937 0.100674 0.909585 0.09273397 0.937 0.065319 0.937 0.100674 0.964415 0.03790402 0.972355 0.065319 0.937 0.065319 0.909585 0.03790402 0.937 0.02996402 0.901645 0.02996402</float_array>
          <technique_common>
            <accessor source="#polygon0-mesh-map-0-array" count="144" stride="2">
              <param name="S" type="float"/>
              <param name="T" type="float"/>
            </accessor>
          </technique_common>
        </source>
        <vertices id="polygon0-mesh-vertices">
          <input semantic="POSITION" source="#polygon0-mesh-positions"/>
        </vertices>
        <triangles material="e18t_png-material" count="48">
          <input semantic="VERTEX" source="#polygon0-mesh-vertices" offset="0"/>
          <input semantic="NORMAL" source="#polygon0-mesh-normals" offset="1"/>
          <input semantic="TEXCOORD" source="#polygon0-mesh-map-0" offset="2" set="0"/>
          <p>2 0 0 1 1 1 0 2 2 3 3 3 1 1 4 2 0 5 4 4 6 3 3 7 2 0 8 5 5 9 3 3 10 4 4 11 6 6 12 5 5 13 4 4 14 7 7 15 5 5 16 6 6 17 8 8 18 7 7 19 6 6 20 9 9 21 7 7 22 8 8 23 10 10 24 9 9 25 8 8 26 11 11 27 9 9 28 10 10 29 12 12 30 11 11 31 10 10 32 13 13 33 11 11 34 12 12 35 0 2 36 13 13 37 12 12 38 14 14 39 13 13 40 0 2 41 1 1 42 14 14 43 0 2 44 15 15 45 14 14 46 1 1 47 16 16 48 15 15 49 1 1 50 17 17 51 15 15 52 16 16 53 18 18 54 17 17 55 16 16 56 19 19 57 17 17 58 18 18 59 9 9 60 19 19 61 18 18 62 11 11 63 19 19 64 9 9 65 20 20 66 2 0 67 0 2 68 21 21 69 2 0 70 20 20 71 22 22 72 21 21 73 20 20 74 23 23 75 21 21 76 22 22 77 24 24 78 23 23 79 22 22 80 8 8 81 23 23 82 24 24 83 10 10 84 8 8 85 24 24 86 18 18 87 7 7 88 9 9 89 5 5 90 7 7 91 18 18 92 16 16 93 5 5 94 18 18 95 3 3 96 5 5 97 16 16 98 1 1 99 3 3 100 16 16 101 21 21 102 4 4 103 2 0 104 25 25 105 4 4 106 21 21 107 23 23 108 25 25 109 21 21 110 6 6 111 25 25 112 23 23 113 8 8 114 6 6 115 23 23 116 22 22 117 10 10 118 24 24 119 12 12 120 10 10 121 22 22 122 20 20 123 12 12 124 22 22 125 0 2 126 12 12 127 20 20 128 13 13 129 19 19 130 11 11 131 15 15 132 19 19 133 13 13 134 14 14 135 15 15 136 13 13 137 17 17 138 19 19 139 15 15 140 25 25 141 6 6 142 4 4 143</p>
        </triangles>
      </mesh>
    </geometry>
    <geometry id="polygon3-mesh" name="polygon3">
      <mesh>
        <source id="polygon3-mesh-positions">
          <float_array id="polygon3-mesh-positions-array" count="78">-7.767767 2.767767 0 -7.767767 1 1.767767 -8.5 1 0 -7.370744 -0.370744 1.364506 -7.767767 -0.767767 0 -6 -1.5 0 -6 -0.767767 -1.767767 -4.629255 -0.370744 -1.364506 -4.232233 1 -1.767767 -3.5 1 0 -4.232233 2.767767 0 -4.629255 2.370744 1.364506 -6 3.5 0 -6 2.767767 1.767767 -7.370744 2.370744 1.364506 -6 1 2.5 -6 -0.767767 1.767767 -4.629255 -0.370744 1.364506 -4.232233 -0.767767 0 -4.232233 1 1.767767 -7.370744 2.370744 -1.364506 -7.767767 1 -1.767767 -6 2.767767 -1.767767 -6 1 -2.5 -4.629255 2.370744 -1.364506 -7.370744 -0.370744 -1.364506</float_array>
          <technique_common>
            <accessor source="#polygon3-mesh-positions-array" count="26" stride="3">
              <param name="X" type="float"/>
              <param name="Y" type="float"/>
              <param name="Z" type="float"/>
            </accessor>
          </technique_common>
        </source>
        <source id="polygon3-mesh-normals">
          <float_array id="polygon3-mesh-normals-array" count="78">-1 0 0 -0.7068473 2.7467e-4 0.7073661 -0.7071067 0.7071067 6.1039e-4 -0.5777874 -0.5777874 0.576475 -0.7071067 -0.7071067 -6.1039e-4 0 -1 0 -2.7467e-4 -0.7068473 -0.7073661 0.5777874 -0.5777874 -0.576475 0.7068473 2.7467e-4 -0.7073661 1 0 0 0.7071067 0.7071067 -6.1039e-4 0.5777874 0.5777874 0.576475 0 1 0 -2.7467e-4 0.7068473 0.7073661 -0.5781325 0.5781325 0.5757825 0 0 1 2.7467e-4 -0.7068473 0.7073661 0.5781325 -0.5781325 0.5757825 0.7071067 -0.7071067 6.1039e-4 0.7068473 -2.7467e-4 0.7073661 -0.5777874 0.5777874 -0.576475 -0.7068473 -2.7467e-4 -0.7073661 2.7467e-4 0.7068473 -0.7073661 0 0 -1 0.5781325 0.5781325 -0.5757825 -0.5781325 -0.5781325 -0.5757825</float_array>
          <technique_common>
            <accessor source="#polygon3-mesh-normals-array" count="26" stride="3">
              <param name="X" type="float"/>
              <param name="Y" type="float"/>
              <param name="Z" type="float"/>
            </accessor>
          </technique_common>
        </source>
        <source id="polygon3-mesh-map-0">
          <float_array id="polygon3-mesh-map-0-array" count="288">0.887 0.065319 0.901645 0.065319 0.901645 0.100674 0.909585 0.03790402 0.901645 0.065319 0.887 0.065319 0.901645 0.02996402 0.909585 0.03790402 0.887 0.065319 0.937 0.01531898 0.909585 0.03790402 0.901645 0.02996402 0.937 0.02996402 0.937 0.01531898 0.901645 0.02996402 0.964415 0.03790402 0.937 0.01531898 0.937 0.02996402 0.972355 0.065319 0.964415 0.03790402 0.937 0.02996402 0.9870001 0.065319 0.964415 0.03790402 0.972355 0.065319 0.972355 0.100674 0.9870001 0.065319 0.972355 0.065319 0.964415 0.09273397 0.9870001 0.065319 0.972355 0.100674 0.937 0.115319 0.964415 0.09273397 0.972355 0.100674 0.937 0.100674 0.964415 0.09273397 0.937 0.115319 0.901645 0.100674 0.937 0.100674 0.937 0.115319 0.909585 0.09273397 0.937 0.100674 0.901645 0.100674 0.901645 0.065319 0.909585 0.09273397 0.901645 0.100674 0.937 0.065319 0.909585 0.09273397 0.901645 0.065319 0.937 0.02996402 0.937 0.065319 0.901645 0.065319 0.964415 0.03790402 0.937 0.065319 0.937 0.02996402 0.972355 0.02996402 0.964415 0.03790402 0.937 0.02996402 0.972355 0.065319 0.964415 0.03790402 0.972355 0.02996402 0.9870001 0.065319 0.972355 0.065319 0.972355 0.02996402 0.964415 0.09273397 0.972355 0.065319 0.9870001 0.065319 0.909585 0.09273397 0.887 0.065319 0.901645 0.100674 0.901645 0.065319 0.887 0.065319 0.909585 0.09273397 0.937 0.100674 0.901645 0.065319 0.909585 0.09273397 0.937 0.065319 0.901645 0.065319 0.937 0.100674 0.964415 0.09273397 0.937 0.065319 0.937 0.100674 0.972355 0.065319 0.937 0.065319 0.964415 0.09273397 0.972355 0.100674 0.972355 0.065319 0.964415 0.09273397 0.972355 0.02996402 0.964415 0.03790402 0.9870001 0.065319 0.937 0.01531898 0.964415 0.03790402 0.972355 0.02996402 0.937 0.02996402 0.937 0.01531898 0.972355 0.02996402 0.909585 0.03790402 0.937 0.01531898 0.937 0.02996402 0.901645 0.065319 0.909585 0.03790402 0.937 0.02996402 0.901645 0.065319 0.901645 0.02996402 0.887 0.065319 0.909585 0.03790402 0.901645 0.02996402 0.901645 0.065319 0.937 0.065319 0.909585 0.03790402 0.901645 0.065319 0.937 0.02996402 0.909585 0.03790402 0.937 0.065319 0.972355 0.065319 0.937 0.02996402 0.937 0.065319 0.937 0.100674 0.972355 0.100674 0.964415 0.09273397 0.937 0.115319 0.972355 0.100674 0.937 0.100674 0.909585 0.09273397 0.937 0.115319 0.937 0.100674 0.901645 0.100674 0.937 0.115319 0.909585 0.09273397 0.937 0.100674 0.972355 0.065319 0.964415 0.09273397 0.937 0.065319 0.972355 0.065319 0.937 0.100674 0.909585 0.09273397 0.937 0.065319 0.937 0.100674 0.964415 0.03790402 0.972355 0.065319 0.937 0.065319 0.909585 0.03790402 0.937 0.02996402 0.901645 0.02996402</float_array>
          <technique_common>
            <accessor source="#polygon3-mesh-map-0-array" count="144" stride="2">
              <param name="S" type="float"/>
              <param name="T" type="float"/>
            </accessor>
          </technique_common>
        </source>
        <vertices id="polygon3-mesh-vertices">
          <input semantic="POSITION" source="#polygon3-mesh-positions"/>
        </vertices>
        <triangles material="e18t_png-material" count="48">
          <input semantic="VERTEX" source="#polygon3-mesh-vertices" offset="0"/>
          <input semantic="NORMAL" source="#polygon3-mesh-normals" offset="1"/>
          <input semantic="TEXCOORD" source="#polygon3-mesh-map-0" offset="2" set="0"/>
          <p>2 0 0 1 1 1 0 2 2 3 3 3 1 1 4 2 0 5 4 4 6 3 3 7 2 0 8 5 5 9 3 3 10 4 4 11 6 6 12 5 5 13 4 4 14 7 7 15 5 5 16 6 6 17 8 8 18 7 7 19 6 6 20 9 9 21 7 7 22 8 8 23 10 10 24 9 9 25 8 8 26 11 11 27 9 9 28 10 10 29 12 12 30 11 11 31 10 10 32 13 13 33 11 11 34 12 12 35 0 2 36 13 13 37 12 12 38 14 14 39 13 13 40 0 2 41 1 1 42 14 14 43 0 2 44 15 15 45 14 14 46 1 1 47 16 16 48 15 15 49 1 1 50 17 17 51 15 15 52 16 16 53 18 18 54 17 17 55 16 16 56 19 19 57 17 17 58 18 18 59 9 9 60 19 19 61 18 18 62 11 11 63 19 19 64 9 9 65 20 20 66 2 0 67 0 2 68 21 21 69 2 0 70 20 20 71 22 22 72 21 21 73 20 20 74 23 23 75 21 21 76 22 22 77 24 24 78 23 23 79 22 22 80 8 8 81 23 23 82 24 24 83 10 10 84 8 8 85 24 24 86 18 18 87 7 7 88 9 9 89 5 5 90 7 7 91 18 18 92 16 16 93 5 5 94 18 18 95 3 3 96 5 5 97 16 16 98 1 1 99 3 3 100 16 16 101 21 21 102 4 4 103 2 0 104 25 25 105 4 4 106 21 21 107 23 23 108 25 25 109 21 21 110 6 6 111 25 25 112 23 23 113 8 8 114 6 6 115 23 23 116 22 22 117 10 10 118 24 24 119 12 12 120 10 10 121 22 22 122 20 20 123 12 12 124 22 22 125 0 2 126 12 12 127 20 20 128 13 13 129 19 19 130 11 11 131 15 15 132 19 19 133 13 13 134 14 14 135 15 15 136 13 13 137 17 17 138 19 19 139 15 15 140 25 25 141 6 6 142 4 4 143</p>
        </triangles>
      </mesh>
    </geometry>
    <geometry id="polygon4-mesh" name="polygon4">
      <mesh>
        <source id="polygon4-mesh-positions">
          <float_array id="polygon4-mesh-positions-array" count="480">5.320647 9.37823 0 6.175643 10.43207 0 5.146945 9.658062 -1.229189 6.033344 10.66131 -1.006966 4.672382 10.42258 -2.129018 5.644577 11.28761 -1.744117 4.024117 11.46692 -2.458379 5.113511 12.14315 -2.013932 3.375853 12.51127 -2.129018 4.582445 12.99869 -1.744117 2.90129 13.27578 -1.229189 4.193677 13.62499 -1.006966 2.727588 13.55561 0 4.051378 13.85423 0 2.90129 13.27578 1.229189 4.193677 13.62499 1.006966 3.375852 12.51127 2.129018 4.582445 12.99869 1.744117 4.024117 11.46692 2.458379 5.113511 12.14315 2.013933 4.672382 10.42258 2.129018 5.644577 11.28761 1.744117 5.146945 9.658061 1.229189 6.033344 10.66131 1.006966 -5.320647 9.37823 0 -6.175643 10.43207 0 -5.146945 9.658062 1.229189 -6.033344 10.66131 1.006966 -4.672382 10.42258 2.129018 -5.644577 11.28761 1.744117 -4.024117 11.46692 2.458379 -5.113511 12.14315 2.013933 -3.375853 12.51127 2.129018 -4.582445 12.99869 1.744117 -2.90129 13.27578 1.229189 -4.193677 13.62499 1.006967 -2.727588 13.55561 0 -4.051378 13.85423 0 -2.90129 13.27578 -1.229189 -4.193677 13.62499 -1.006966 -3.375852 12.51127 -2.129018 -4.582445 12.99869 -1.744117 -4.024117 11.46692 -2.458379 -5.113511 12.14315 -2.013932 -4.672382 10.42258 -2.129018 -5.644577 11.28761 -1.744117 -5.146945 9.658061 -1.229189 -6.033344 10.66131 -1.006966 6.221173 7.154572 3.591796 4.676537 9 2.7 7.183592 7.154572 0 5.4 9 0 6.221173 7.154572 -3.591796 4.676537 9 -2.7 3.591795 7.154572 -6.221173 2.7 9 -4.676537 0 7.154572 -7.183591 0 9 -5.4 -3.591795 7.154572 -6.221173 -2.7 9 -4.676537 -6.221173 7.154572 -3.591796 -4.676537 9 -2.7 -7.183592 7.154572 0 -5.4 9 0 -6.221173 7.154572 3.591796 -4.676537 9 2.7 -3.591795 7.154572 6.221173 -2.7 9 4.676537 0 7.154572 7.183591 0 9 5.4 3.591795 7.154572 6.221173 2.7 9 4.676537 4.61733 8.656298 2.665817 5.331633 8.656298 0 4.61733 8.656298 -2.665817 2.665816 8.656298 -4.61733 0 8.656298 -5.331633 -2.665816 8.656298 -4.61733 -4.61733 8.656298 -2.665817 -5.331633 8.656298 0 -4.61733 8.656298 2.665817 -2.665816 8.656298 4.61733 0 8.656298 5.331633 2.665816 8.656298 4.61733 0 4.235546 2.458379 -1.015927 2.938936 1.759637 -1.229189 4.235546 2.129018 -1.759637 2.938936 1.015927 -2.129018 4.235546 1.229189 -2.031853 2.938936 0 -2.458379 4.235546 0 -1.759637 2.938936 -1.015927 -2.129018 4.235546 -1.229189 -1.015927 2.938936 -1.759637 -1.229189 4.235546 -2.129018 0 2.938936 -2.031853 0 4.235546 -2.458379 1.229189 4.235546 -2.129018 2.066491 13.98895 0 1.789633 13.98895 1.033245 0 14.4 0 1.033245 13.98895 1.789633 0 13.98895 2.06649 1.909188 12.81838 3.306811 0 12.81838 3.818377 2.494475 11.06649 4.320557 0 11.06649 4.988949 -2.494475 11.06649 4.320557 -1.909188 12.81838 3.306811 -1.033245 13.98895 1.789633 -1.789633 13.98895 1.033245 -2.066491 13.98895 0 0 5.181623 -3.818377 -1.909188 5.181623 -3.306811 -3.306811 5.181623 -1.909188 -3.818377 5.181623 0 -3.306811 5.181623 1.909188 -4.320557 6.933509 2.494475 -2.494475 6.933509 4.320557 -1.789633 13.98895 -1.033245 -1.033245 13.98895 -1.789633 0 13.98895 -2.06649 -1.909188 12.81838 -3.306811 0 12.81838 -3.818377 -2.494475 11.06649 -4.320557 0 11.06649 -4.988949 4.98895 6.933509 0 4.320557 6.933509 2.494475 2.494475 6.933509 4.320557 0 6.933509 4.988949 -1.909188 5.181623 3.306811 0 6.933509 -4.988949 -2.494475 6.933509 -4.320557 -4.320557 6.933509 -2.494475 -4.98895 6.933509 0 2.494475 11.06649 -4.320557 1.909188 12.81838 -3.306811 1.033245 13.98895 -1.789633 1.789633 13.98895 -1.033245 3.818377 5.181623 0 3.306811 5.181623 1.909188 1.909188 5.181623 3.306811 0 5.181623 3.818377 2.458379 4.235546 0 2.129018 4.235546 1.229189 1.229189 4.235546 2.129018 4.320557 6.933509 -2.494475 2.494475 6.933509 -4.320557 3.306811 5.181623 -1.909188 1.909188 5.181623 -3.306811 2.129018 4.235546 -1.229189 1.015927 2.938936 1.759637 1.759637 2.938936 1.015927 0 0.1382484 0 2.031853 2.938936 0 1.759637 2.938936 -1.015927 0 2.938936 2.031853 1.015927 2.938936 -1.759637 -7.505271 13.62781 0 7.505271 13.62781 0</float_array>
          <technique_common>
            <accessor source="#polygon4-mesh-positions-array" count="160" stride="3">
              <param name="X" type="float"/>
              <param name="Y" type="float"/>
              <param name="Z" type="float"/>
            </accessor>
          </technique_common>
        </source>
        <source id="polygon4-mesh-normals">
          <float_array id="polygon4-mesh-normals-array" count="480">0.8886032 -0.2522124 -0.3831102 0.8533181 -0.5213908 0 0.9832161 -0.1824455 0 0.7902331 -0.4197303 -0.4464956 0.7156839 0.01901364 -0.6981656 0.6178283 -0.1420053 -0.773384 0.51361 0.3035454 -0.8025367 0.3823454 0.2373178 -0.8930242 0.3246369 0.6574836 -0.679946 0.1468572 0.6166967 -0.773381 0.1986483 0.8840754 -0.4230243 -0.02551394 0.8944227 -0.4464941 0.2238274 0.9746288 0 -0.08859562 0.9960678 0 0.1986483 0.8840754 0.4230243 -0.02551394 0.8944227 0.4464941 0.3246369 0.6574836 0.679946 0.1468572 0.6166967 0.773381 0.51361 0.3035454 0.8025367 0.3823454 0.2373178 0.8930242 0.7156839 0.01901364 0.6981656 0.6178283 -0.1420053 0.773384 0.8886032 -0.2522124 0.3831102 0.7902331 -0.4197303 0.4464956 -0.8886032 -0.2522124 0.3831102 -0.8533181 -0.5213908 0 -0.9832161 -0.1824455 0 -0.7902331 -0.4197303 0.4464956 -0.7156839 0.01901364 0.6981656 -0.6178283 -0.1420053 0.773384 -0.51361 0.3035454 0.8025367 -0.3823454 0.2373178 0.8930242 -0.3246369 0.6574836 0.679946 -0.1468572 0.6166967 0.773381 -0.1986483 0.8840754 0.4230243 0.02551394 0.8944227 0.4464941 -0.2238274 0.9746288 0 0.08859562 0.9960678 0 -0.1986483 0.8840754 -0.4230243 0.02551394 0.8944227 -0.4464941 -0.3246369 0.6574836 -0.679946 -0.1468572 0.6166967 -0.773381 -0.51361 0.3035454 -0.8025367 -0.3823454 0.2373178 -0.8930242 -0.7156839 0.01901364 -0.6981656 -0.6178283 -0.1420053 -0.773384 -0.8886032 -0.2522124 -0.3831102 -0.7902331 -0.4197303 -0.4464956 0.7974512 -0.6033834 0 0.7492547 0.4717099 0.4648736 0.6906092 -0.6033865 0.3987277 0.8956812 0.444697 0 0.6906219 -0.6033672 -0.398735 0.7492547 0.4717099 -0.4648736 0.398702 -0.6033939 -0.6906176 0.4374971 0.4841309 -0.7577688 0 -0.6033834 -0.7974512 0 0.4841186 -0.8750025 -0.3987277 -0.6033865 -0.6906092 -0.4374971 0.4841309 -0.7577688 -0.6906092 -0.6033865 -0.3987277 -0.7492547 0.4717099 -0.4648736 -0.7974512 -0.6033834 0 -0.8956812 0.444697 0 -0.6906219 -0.6033672 0.398735 -0.7492547 0.4717099 0.4648736 -0.398702 -0.6033939 0.6906176 -0.4374971 0.4841309 0.7577688 0 -0.6033834 0.7974512 0 0.4841186 0.8750025 0.3987277 -0.6033865 0.6906092 0.4374971 0.4841309 0.7577688 0.2028902 -0.9792016 0 0.1756981 -0.9792033 0.1014453 0.1756981 -0.9792033 -0.1014453 0.1014453 -0.9792033 -0.1756981 0 -0.9792016 -0.2028902 -0.1014453 -0.9792033 -0.1756981 -0.1756981 -0.9792033 -0.1014453 -0.2028902 -0.9792016 0 -0.1756981 -0.9792033 0.1014453 -0.1014453 -0.9792033 0.1756981 0 -0.9792016 0.2028902 0.1014453 -0.9792033 0.1756981 -0.3907341 -0.6239599 0.6767577 -0.4476889 -0.4452779 0.7754368 0 -0.6239542 0.7814611 -0.7754368 -0.4452779 0.4476889 -0.6767577 -0.6239599 0.3907341 -0.8953956 -0.4452716 0 -0.7814611 -0.6239542 0 -0.7754368 -0.4452779 -0.4476889 -0.6767577 -0.6239599 -0.3907341 -0.4476889 -0.4452779 -0.7754368 -0.3907341 -0.6239599 -0.6767577 0 -0.4452716 -0.8953956 0 -0.6239542 -0.7814611 0.3907341 -0.6239599 -0.6767577 0.396875 0.9178727 0 0.3504241 0.911585 0.2149789 0 1 0 0.2048449 0.9122192 0.3548163 0 0.9122239 0.409692 0.3670266 0.6959345 0.6172249 0 0.6912927 0.722575 0.4695412 0.370109 0.8015924 0 0.3717537 0.9283314 -0.4695412 0.370109 0.8015924 -0.3670266 0.6959345 0.6172249 -0.2048449 0.9122192 0.3548163 -0.3504241 0.911585 0.2149789 -0.396875 0.9178727 0 0 -0.6853895 -0.7281768 -0.3640909 -0.6853944 -0.6306129 -0.6306129 -0.6853944 -0.3640909 -0.7281768 -0.6853895 0 -0.6306129 -0.6853944 0.3640909 -0.8039612 -0.3717516 0.464163 -0.464163 -0.3717516 0.8039612 -0.3504241 0.911585 -0.2149789 -0.2048449 0.9122192 -0.3548163 0 0.9122239 -0.409692 -0.3670266 0.6959345 -0.6172249 0 0.6912927 -0.722575 -0.4695412 0.370109 -0.8015924 0 0.3717537 -0.9283314 0.9283314 -0.3717537 0 0.8039612 -0.3717516 0.464163 0.464163 -0.3717516 0.8039612 0 -0.3717537 0.9283314 -0.3640909 -0.6853944 0.6306129 0 -0.3717537 -0.9283314 -0.464163 -0.3717516 -0.8039612 -0.8039612 -0.3717516 -0.464163 -0.9283314 -0.3717537 0 0.4695412 0.370109 -0.8015924 0.3670266 0.6959345 -0.6172249 0.2048449 0.9122192 -0.3548163 0.3504241 0.911585 -0.2149789 0.7281768 -0.6853895 0 0.6306129 -0.6853944 0.3640909 0.3640909 -0.6853944 0.6306129 0 -0.6853895 0.7281768 0.7814611 -0.6239542 0 0.6767577 -0.6239599 0.3907341 0.3907341 -0.6239599 0.6767577 0.8039612 -0.3717516 -0.464163 0.464163 -0.3717516 -0.8039612 0.6306129 -0.6853944 -0.3640909 0.3640909 -0.6853944 -0.6306129 0.6767577 -0.6239599 -0.3907341 0 -1 0 0.7754368 -0.4452779 0.4476889 0.4476889 -0.4452779 0.7754368 0.8953956 -0.4452716 0 0.7754368 -0.4452779 -0.4476889 0 -0.4452716 0.8953956 0.4476889 -0.4452779 -0.7754368 -0.8496181 0.5273986 0 0.8496181 0.5273986 0</float_array>
          <technique_common>
            <accessor source="#polygon4-mesh-normals-array" count="160" stride="3">
              <param name="X" type="float"/>
              <param name="Y" type="float"/>
              <param name="Z" type="float"/>
            </accessor>
          </technique_common>
        </source>
        <source id="polygon4-mesh-map-0">
          <float_array id="polygon4-mesh-map-0-array" count="1896">0.08682698 0.494947 0.005239963 0.25 0.005239963 0.494947 0.08682698 0.25 0.005239963 0.25 0.08682698 0.494947 0.168413 0.494947 0.08682698 0.25 0.08682698 0.494947 0.168413 0.25 0.08682698 0.25 0.168413 0.494947 0.25 0.494947 0.168413 0.25 0.168413 0.494947 0.25 0.25 0.168413 0.25 0.25 0.494947 0.331587 0.494947 0.25 0.25 0.25 0.494947 0.331587 0.25 0.25 0.25 0.331587 0.494947 0.413173 0.494947 0.331587 0.25 0.331587 0.494947 0.413173 0.25 0.331587 0.25 0.413173 0.494947 0.49476 0.494947 0.413173 0.25 0.413173 0.494947 0.49476 0.25 0.413173 0.25 0.49476 0.494947 0.413173 0.494947 0.49476 0.25 0.49476 0.494947 0.413173 0.25 0.49476 0.25 0.413173 0.494947 0.331587 0.494947 0.413173 0.25 0.413173 0.494947 0.331587 0.25 0.413173 0.25 0.331587 0.494947 0.25 0.494947 0.331587 0.25 0.331587 0.494947 0.25 0.25 0.331587 0.25 0.25 0.494947 0.168413 0.494947 0.25 0.25 0.25 0.494947 0.168413 0.25 0.25 0.25 0.168413 0.494947 0.08682698 0.494947 0.168413 0.25 0.168413 0.494947 0.08682698 0.25 0.168413 0.25 0.08682698 0.494947 0.005239963 0.494947 0.08682698 0.25 0.08682698 0.494947 0.005239963 0.25 0.08682698 0.25 0.005239963 0.494947 0.08682698 0.494947 0.005239963 0.25 0.005239963 0.494947 0.08682698 0.25 0.005239963 0.25 0.08682698 0.494947 0.168413 0.494947 0.08682698 0.25 0.08682698 0.494947 0.168413 0.25 0.08682698 0.25 0.168413 0.494947 0.25 0.494947 0.168413 0.25 0.168413 0.494947 0.25 0.25 0.168413 0.25 0.25 0.494947 0.331587 0.494947 0.25 0.25 0.25 0.494947 0.331587 0.25 0.25 0.25 0.331587 0.494947 0.413173 0.494947 0.331587 0.25 0.331587 0.494947 0.413173 0.25 0.331587 0.25 0.413173 0.494947 0.49476 0.494947 0.413173 0.25 0.413173 0.494947 0.49476 0.25 0.413173 0.25 0.49476 0.494947 0.413173 0.494947 0.49476 0.25 0.49476 0.494947 0.413173 0.25 0.49476 0.25 0.413173 0.494947 0.331587 0.494947 0.413173 0.25 0.413173 0.494947 0.331587 0.25 0.413173 0.25 0.331587 0.494947 0.25 0.494947 0.331587 0.25 0.331587 0.494947 0.25 0.25 0.331587 0.25 0.25 0.494947 0.168413 0.494947 0.25 0.25 0.25 0.494947 0.168413 0.25 0.25 0.25 0.168413 0.494947 0.08682698 0.494947 0.168413 0.25 0.168413 0.494947 0.08682698 0.25 0.168413 0.25 0.08682698 0.494947 0.005239963 0.494947 0.08682698 0.25 0.08682698 0.494947 0.005239963 0.25 0.08682698 0.25 0.005239963 0.494947 0.49476 0.267592 0.413173 0.494947 0.413173 0.267592 0.49476 0.494947 0.413173 0.494947 0.49476 0.267592 0.413173 0.267592 0.49476 0.494947 0.49476 0.267592 0.413173 0.494947 0.49476 0.494947 0.413173 0.267592 0.331587 0.267592 0.413173 0.494947 0.413173 0.267592 0.331587 0.494947 0.413173 0.494947 0.331587 0.267592 0.25 0.267592 0.331587 0.494947 0.331587 0.267592 0.25 0.494947 0.331587 0.494947 0.25 0.267592 0.168413 0.267592 0.25 0.494947 0.25 0.267592 0.168413 0.494947 0.25 0.494947 0.168413 0.267592 0.08682698 0.267592 0.168413 0.494947 0.168413 0.267592 0.08682698 0.494947 0.168413 0.494947 0.08682698 0.267592 0.005239963 0.267592 0.08682698 0.494947 0.08682698 0.267592 0.005239963 0.494947 0.08682698 0.494947 0.005239963 0.267592 0.08682698 0.267592 0.005239963 0.494947 0.005239963 0.267592 0.08682698 0.494947 0.005239963 0.494947 0.08682698 0.267592 0.168413 0.267592 0.08682698 0.494947 0.08682698 0.267592 0.168413 0.494947 0.08682698 0.494947 0.168413 0.267592 0.25 0.267592 0.168413 0.494947 0.168413 0.267592 0.25 0.494947 0.168413 0.494947 0.25 0.267592 0.331587 0.267592 0.25 0.494947 0.25 0.267592 0.331587 0.494947 0.25 0.494947 0.331587 0.267592 0.413173 0.267592 0.331587 0.494947 0.331587 0.267592 0.413173 0.494947 0.331587 0.494947 0.413173 0.267592 0.678027 0.106417 0.688199 0.08924502 0.66986 0.106417 0.699204 0.08924502 0.688199 0.08924502 0.678027 0.106417 0.66986 0.106417 0.699204 0.08924502 0.678027 0.106417 0.688199 0.08924502 0.699204 0.08924502 0.66986 0.106417 0.647545 0.106417 0.688199 0.08924502 0.66986 0.106417 0.658133 0.08924502 0.688199 0.08924502 0.647545 0.106417 0.617062 0.106417 0.658133 0.08924502 0.647545 0.106417 0.617062 0.08924502 0.658133 0.08924502 0.617062 0.106417 0.58658 0.106417 0.617062 0.08924502 0.617062 0.106417 0.575992 0.08924502 0.617062 0.08924502 0.58658 0.106417 0.564265 0.106417 0.575992 0.08924502 0.58658 0.106417 0.545926 0.08924502 0.575992 0.08924502 0.564265 0.106417 0.556097 0.106417 0.545926 0.08924502 0.564265 0.106417 0.534921 0.08924502 0.545926 0.08924502 0.556097 0.106417 0.564265 0.106417 0.534921 0.08924502 0.556097 0.106417 0.545926 0.08924502 0.534921 0.08924502 0.564265 0.106417 0.58658 0.106417 0.545926 0.08924502 0.564265 0.106417 0.575992 0.08924502 0.545926 0.08924502 0.58658 0.106417 0.617062 0.106417 0.575992 0.08924502 0.58658 0.106417 0.617062 0.08924502 0.575992 0.08924502 0.617062 0.106417 0.647545 0.106417 0.617062 0.08924502 0.617062 0.106417 0.658133 0.08924502 0.617062 0.08924502 0.647545 0.106417 0.66986 0.106417 0.658133 0.08924502 0.647545 0.106417 0.688199 0.08924502 0.658133 0.08924502 0.66986 0.106417 0.168413 0.494947 0.168413 0.25 0.25 0.494947 0.08682698 0.25 0.168413 0.25 0.168413 0.494947 0.08682698 0.494947 0.08682698 0.25 0.168413 0.494947 0.005239963 0.25 0.08682698 0.25 0.08682698 0.494947 0.005239963 0.494947 0.005239963 0.25 0.08682698 0.494947 0.08682698 0.25 0.005239963 0.25 0.005239963 0.494947 0.08682698 0.494947 0.08682698 0.25 0.005239963 0.494947 0.168413 0.25 0.08682698 0.25 0.08682698 0.494947 0.168413 0.494947 0.168413 0.25 0.08682698 0.494947 0.25 0.25 0.168413 0.25 0.168413 0.494947 0.25 0.494947 0.25 0.25 0.168413 0.494947 0.331587 0.494947 0.25 0.25 0.25 0.494947 0.676004 0.96457 0.801168 0.898536 0.749304 0.924446 0.652424 0.96457 0.801168 0.898536 0.676004 0.96457 0.5 0.991337 0.652424 0.96457 0.676004 0.96457 0.588002 0.96457 0.652424 0.96457 0.5 0.991337 0.5 0.96457 0.588002 0.96457 0.5 0.991337 0.662607 0.856183 0.588002 0.96457 0.5 0.96457 0.5 0.856183 0.662607 0.856183 0.5 0.96457 0.710212 0.693971 0.662607 0.856183 0.5 0.856183 0.5 0.693971 0.710212 0.693971 0.5 0.856183 0.727532 0.50263 0.710212 0.693971 0.5 0.693971 0.5 0.50263 0.727532 0.50263 0.5 0.693971 0.5 0.693971 0.272468 0.50263 0.5 0.50263 0.289788 0.693971 0.272468 0.50263 0.5 0.693971 0.5 0.856183 0.289788 0.693971 0.5 0.693971 0.337393 0.856183 0.289788 0.693971 0.5 0.856183 0.5 0.96457 0.337393 0.856183 0.5 0.856183 0.411998 0.96457 0.337393 0.856183 0.5 0.96457 0.5 0.991337 0.411998 0.96457 0.5 0.96457 0.347576 0.96457 0.411998 0.96457 0.5 0.991337 0.323996 0.96457 0.347576 0.96457 0.5 0.991337 0.216907 0.898536 0.347576 0.96457 0.323996 0.96457 0.250696 0.924446 0.216907 0.898536 0.323996 0.96457 0.75 0.265155 0.666667 0.342891 0.666667 0.265155 0.75 0.342891 0.666667 0.342891 0.75 0.265155 0.833333 0.265155 0.75 0.342891 0.75 0.265155 0.833333 0.342891 0.75 0.342891 0.833333 0.265155 0.916667 0.265155 0.833333 0.342891 0.833333 0.265155 0.916667 0.342891 0.833333 0.342891 0.916667 0.265155 0.833333 0.342891 0.916667 0.342891 0.916667 0.265155 0.833333 0.420628 0.916667 0.342891 0.833333 0.342891 0.75 0.420628 0.833333 0.420628 0.833333 0.342891 0.75 0.485435 0.833333 0.420628 0.75 0.420628 0.666667 0.485435 0.75 0.485435 0.75 0.420628 0.04520696 0.950372 0.037328 0.943641 0.03896796 0.946282 0.04781997 0.950372 0.037328 0.943641 0.04520696 0.950372 0.06471097 0.954251 0.04781997 0.950372 0.04520696 0.950372 0.05495899 0.950372 0.04781997 0.950372 0.06471097 0.954251 0.06471097 0.950372 0.05495899 0.950372 0.06471097 0.954251 0.04669195 0.939324 0.05495899 0.950372 0.06471097 0.950372 0.06471097 0.939324 0.04669195 0.939324 0.06471097 0.950372 0.04116797 0.92279 0.04669195 0.939324 0.06471097 0.939324 0.06471097 0.92279 0.04116797 0.92279 0.06471097 0.939324 0.03922796 0.903286 0.04116797 0.92279 0.06471097 0.92279 0.06471097 0.903286 0.03922796 0.903286 0.06471097 0.92279 0.833333 0.485435 0.916667 0.420628 0.916667 0.485435 0.833333 0.420628 0.916667 0.420628 0.833333 0.485435 0.75 0.485435 0.833333 0.420628 0.833333 0.485435 0.75 0.420628 0.833333 0.420628 0.75 0.485435 0.666667 0.485435 0.75 0.420628 0.75 0.485435 0.666667 0.420628 0.75 0.420628 0.666667 0.485435 0.75 0.420628 0.666667 0.420628 0.666667 0.485435 0.75 0.342891 0.666667 0.420628 0.75 0.420628 0.833333 0.342891 0.75 0.342891 0.75 0.420628 0.833333 0.265155 0.75 0.342891 0.833333 0.342891 0.916667 0.265155 0.833333 0.265155 0.833333 0.342891 0.75 0.342891 0.666667 0.420628 0.666667 0.342891 0.75 0.420628 0.666667 0.420628 0.75 0.342891 0.833333 0.342891 0.75 0.420628 0.75 0.342891 0.833333 0.420628 0.75 0.420628 0.833333 0.342891 0.916667 0.342891 0.833333 0.420628 0.833333 0.342891 0.916667 0.420628 0.833333 0.420628 0.916667 0.342891 0.833333 0.420628 0.916667 0.420628 0.916667 0.342891 0.833333 0.485435 0.916667 0.420628 0.833333 0.420628 0.75 0.485435 0.833333 0.485435 0.833333 0.420628 0.06471097 0.92279 0.09019297 0.903286 0.06471097 0.903286 0.08825397 0.92279 0.09019297 0.903286 0.06471097 0.92279 0.06471097 0.939324 0.08825397 0.92279 0.06471097 0.92279 0.08272999 0.939324 0.08825397 0.92279 0.06471097 0.939324 0.06471097 0.950372 0.08272999 0.939324 0.06471097 0.939324 0.074463 0.950372 0.08272999 0.939324 0.06471097 0.950372 0.06471097 0.954251 0.074463 0.950372 0.06471097 0.950372 0.08160096 0.950372 0.074463 0.950372 0.06471097 0.954251 0.08421397 0.950372 0.08160096 0.950372 0.06471097 0.954251 0.833333 0.420628 0.916667 0.342891 0.916667 0.420628 0.833333 0.342891 0.916667 0.342891 0.833333 0.420628 0.75 0.420628 0.833333 0.342891 0.833333 0.420628 0.75 0.342891 0.833333 0.342891 0.75 0.420628 0.666667 0.420628 0.75 0.342891 0.75 0.420628 0.666667 0.342891 0.75 0.342891 0.666667 0.420628 0.75 0.342891 0.666667 0.342891 0.666667 0.420628 0.75 0.265155 0.666667 0.342891 0.75 0.342891 0.833333 0.265155 0.75 0.265155 0.75 0.342891 0.09209299 0.943641 0.08421397 0.950372 0.09045398 0.946282 0.08160096 0.950372 0.08421397 0.950372 0.09209299 0.943641 0.09657198 0.936425 0.08160096 0.950372 0.09209299 0.943641 0.08272999 0.939324 0.08160096 0.950372 0.09657198 0.936425 0.10269 0.926569 0.08272999 0.939324 0.09657198 0.936425 0.08825397 0.92279 0.08272999 0.939324 0.10269 0.926569 0.108848 0.903286 0.08825397 0.92279 0.10269 0.926569 0.09019297 0.903286 0.08825397 0.92279 0.108848 0.903286 0.833333 0.342891 0.916667 0.265155 0.916667 0.342891 0.833333 0.265155 0.916667 0.265155 0.833333 0.342891 0.75 0.342891 0.833333 0.265155 0.833333 0.342891 0.75 0.265155 0.833333 0.265155 0.75 0.342891 0.666667 0.342891 0.75 0.265155 0.75 0.342891 0.666667 0.265155 0.75 0.265155 0.666667 0.342891 0.75 0.265155 0.666667 0.265155 0.666667 0.342891 0.75 0.420628 0.666667 0.485435 0.666667 0.420628 0.75 0.485435 0.666667 0.485435 0.75 0.420628 0.833333 0.420628 0.75 0.485435 0.75 0.420628 0.833333 0.485435 0.75 0.485435 0.833333 0.420628 0.916667 0.420628 0.833333 0.485435 0.833333 0.420628 0.916667 0.485435 0.833333 0.485435 0.916667 0.420628 0.833333 0.485435 0.916667 0.485435 0.916667 0.420628 0.833333 0.420628 0.75 0.485435 0.833333 0.485435 0.75 0.420628 0.75 0.485435 0.833333 0.420628 0.833333 0.342891 0.75 0.420628 0.833333 0.420628 0.75 0.342891 0.75 0.420628 0.833333 0.342891 0.833333 0.265155 0.75 0.342891 0.833333 0.342891 0.75 0.265155 0.75 0.342891 0.833333 0.265155 0.75 0.420628 0.666667 0.485435 0.75 0.485435 0.666667 0.420628 0.666667 0.485435 0.75 0.420628 0.75 0.342891 0.666667 0.420628 0.75 0.420628 0.666667 0.342891 0.666667 0.420628 0.75 0.342891 0.75 0.265155 0.666667 0.342891 0.75 0.342891 0.666667 0.265155 0.666667 0.342891 0.75 0.265155 0.916667 0.420628 0.833333 0.485435 0.916667 0.485435 0.833333 0.420628 0.833333 0.485435 0.916667 0.420628 0.916667 0.342891 0.833333 0.420628 0.916667 0.420628 0.833333 0.342891 0.833333 0.420628 0.916667 0.342891 0.916667 0.265155 0.833333 0.342891 0.916667 0.342891 0.833333 0.265155 0.833333 0.342891 0.916667 0.265155 0.25 0.00971502 0.413173 0.25 0.331587 0.25 0.49476 0.25 0.413173 0.25 0.25 0.00971502 0.413173 0.25 0.49476 0.25 0.25 0.00971502 0.49476 0.494947 0.49476 0.25 0.413173 0.25 0.413173 0.494947 0.49476 0.494947 0.413173 0.25 0.25 0.00971502 0.168413 0.25 0.08682698 0.25 0.25 0.25 0.168413 0.25 0.25 0.00971502 0.331587 0.25 0.25 0.25 0.25 0.00971502 0.25 0.494947 0.25 0.25 0.331587 0.25 0.331587 0.494947 0.25 0.494947 0.331587 0.25 0.413173 0.25 0.331587 0.494947 0.331587 0.25 0.413173 0.494947 0.331587 0.494947 0.413173 0.25 0.49476 0.25 0.413173 0.494947 0.413173 0.25 0.49476 0.494947 0.413173 0.494947 0.49476 0.25 0.08991396 0.731048 0.337393 0.856183 0.151064 0.827747 0.289788 0.693971 0.337393 0.856183 0.08991396 0.731048 0.06411898 0.50263 0.289788 0.693971 0.08991396 0.731048 0.272468 0.50263 0.289788 0.693971 0.06411898 0.50263 0.935881 0.50263 0.710212 0.693971 0.727532 0.50263 0.910086 0.731048 0.710212 0.693971 0.935881 0.50263 0.943249 0.63435 0.910086 0.731048 0.935881 0.50263 0.347576 0.96457 0.337393 0.856183 0.411998 0.96457 0.151064 0.827747 0.337393 0.856183 0.347576 0.96457 0.216907 0.898536 0.151064 0.827747 0.347576 0.96457 0.01613396 0.909497 0.01374596 0.903286 0.01449495 0.906856 0.02057397 0.903286 0.01374596 0.903286 0.01613396 0.909497 0.02061295 0.916712 0.02057397 0.903286 0.01613396 0.909497 0.04781997 0.950372 0.03284996 0.936425 0.037328 0.943641 0.04669195 0.939324 0.03284996 0.936425 0.04781997 0.950372 0.05495899 0.950372 0.04669195 0.939324 0.04781997 0.950372 0.652424 0.96457 0.848936 0.827747 0.801168 0.898536 0.662607 0.856183 0.848936 0.827747 0.652424 0.96457 0.588002 0.96457 0.662607 0.856183 0.652424 0.96457 0.331587 0.25 0.413173 0.25 0.25 0.00971502 0.413173 0.494947 0.413173 0.25 0.331587 0.25 0.331587 0.494947 0.413173 0.494947 0.331587 0.25 0.25 0.00971502 0.005239963 0.25 0.08682698 0.25 0.08682698 0.25 0.005239963 0.25 0.25 0.00971502 0.168413 0.25 0.08682698 0.25 0.25 0.00971502 0.25 0.00971502 0.25 0.25 0.168413 0.25 0.331587 0.25 0.25 0.25 0.25 0.00971502 0.413173 0.25 0.331587 0.25 0.25 0.00971502 0.25 0.00971502 0.49476 0.25 0.413173 0.25 0.413173 0.25 0.49476 0.25 0.25 0.00971502 0.331587 0.25 0.413173 0.25 0.25 0.00971502 0.25 0.00971502 0.25 0.25 0.331587 0.25 0.168413 0.25 0.25 0.25 0.25 0.00971502 0.08682698 0.25 0.168413 0.25 0.25 0.00971502 0.02057397 0.903286 0.04116797 0.92279 0.03922796 0.903286 0.02673095 0.926569 0.04116797 0.92279 0.02057397 0.903286 0.02061295 0.916712 0.02673095 0.926569 0.02057397 0.903286 0.25 0.00971502 0.005239963 0.25 0.08682698 0.25 0.08682698 0.25 0.005239963 0.25 0.25 0.00971502 0.168413 0.25 0.08682698 0.25 0.25 0.00971502 0.25 0.00971502 0.25 0.25 0.168413 0.25 0.331587 0.25 0.25 0.25 0.25 0.00971502 0.413173 0.25 0.331587 0.25 0.25 0.00971502 0.25 0.00971502 0.49476 0.25 0.413173 0.25 0.413173 0.25 0.49476 0.25 0.25 0.00971502 0.331587 0.25 0.413173 0.25 0.25 0.00971502 0.25 0.00971502 0.25 0.25 0.331587 0.25 0.168413 0.25 0.25 0.25 0.25 0.00971502 0.08682698 0.25 0.168413 0.25 0.25 0.00971502 0.910086 0.731048 0.662607 0.856183 0.710212 0.693971 0.848936 0.827747 0.662607 0.856183 0.910086 0.731048 0.113287 0.909497 0.115676 0.903286 0.108848 0.903286 0.114927 0.906856 0.115676 0.903286 0.113287 0.909497 0.108809 0.916712 0.108848 0.903286 0.10269 0.926569 0.113287 0.909497 0.108848 0.903286 0.108809 0.916712 0.02956497 0.563561 0.00643599 0.50263 0.06411898 0.50263 0.01368898 0.537651 0.00643599 0.50263 0.02956497 0.563561 0.005239963 0.25 0.25 0.00971502 0.08682698 0.25 0.08682698 0.25 0.25 0.00971502 0.005239963 0.25 0.168413 0.25 0.25 0.00971502 0.08682698 0.25 0.25 0.25 0.25 0.00971502 0.168413 0.25 0.935881 0.50263 0.970434 0.563561 0.943249 0.63435 0.993564 0.50263 0.970434 0.563561 0.935881 0.50263 0.05662494 0.634311 0.06411898 0.50263 0.08991396 0.731048 0.02956497 0.563561 0.06411898 0.50263 0.05662494 0.634311 0.25 0.25 0.331587 0.25 0.25 0.00971502 0.331587 0.494947 0.331587 0.25 0.25 0.25 0.02673095 0.926569 0.04669195 0.939324 0.04116797 0.92279 0.03284996 0.936425 0.04669195 0.939324 0.02673095 0.926569 0.08272999 0.939324 0.074463 0.950372 0.08160096 0.950372 0.986311 0.537651 0.970434 0.563561 0.993564 0.50263 0.168413 0.25 0.25 0.25 0.25 0.494947</float_array>
          <technique_common>
            <accessor source="#polygon4-mesh-map-0-array" count="948" stride="2">
              <param name="S" type="float"/>
              <param name="T" type="float"/>
            </accessor>
          </technique_common>
        </source>
        <vertices id="polygon4-mesh-vertices">
          <input semantic="POSITION" source="#polygon4-mesh-positions"/>
        </vertices>
        <triangles material="e18t_png-material" count="316">
          <input semantic="VERTEX" source="#polygon4-mesh-vertices" offset="0"/>
          <input semantic="NORMAL" source="#polygon4-mesh-normals" offset="1"/>
          <input semantic="TEXCOORD" source="#polygon4-mesh-map-0" offset="2" set="0"/>
          <p>2 0 0 1 1 1 0 2 2 3 3 3 1 1 4 2 0 5 4 4 6 3 3 7 2 0 8 5 5 9 3 3 10 4 4 11 6 6 12 5 5 13 4 4 14 7 7 15 5 5 16 6 6 17 8 8 18 7 7 19 6 6 20 9 9 21 7 7 22 8 8 23 10 10 24 9 9 25 8 8 26 11 11 27 9 9 28 10 10 29 12 12 30 11 11 31 10 10 32 13 13 33 11 11 34 12 12 35 14 14 36 13 13 37 12 12 38 15 15 39 13 13 40 14 14 41 16 16 42 15 15 43 14 14 44 17 17 45 15 15 46 16 16 47 18 18 48 17 17 49 16 16 50 19 19 51 17 17 52 18 18 53 20 20 54 19 19 55 18 18 56 21 21 57 19 19 58 20 20 59 22 22 60 21 21 61 20 20 62 23 23 63 21 21 64 22 22 65 0 2 66 23 23 67 22 22 68 1 1 69 23 23 70 0 2 71 26 24 72 25 25 73 24 26 74 27 27 75 25 25 76 26 24 77 28 28 78 27 27 79 26 24 80 29 29 81 27 27 82 28 28 83 30 30 84 29 29 85 28 28 86 31 31 87 29 29 88 30 30 89 32 32 90 31 31 91 30 30 92 33 33 93 31 31 94 32 32 95 34 34 96 33 33 97 32 32 98 35 35 99 33 33 100 34 34 101 36 36 102 35 35 103 34 34 104 37 37 105 35 35 106 36 36 107 38 38 108 37 37 109 36 36 110 39 39 111 37 37 112 38 38 113 40 40 114 39 39 115 38 38 116 41 41 117 39 39 118 40 40 119 42 42 120 41 41 121 40 40 122 43 43 123 41 41 124 42 42 125 44 44 126 43 43 127 42 42 128 45 45 129 43 43 130 44 44 131 46 46 132 45 45 133 44 44 134 47 47 135 45 45 136 46 46 137 24 26 138 47 47 139 46 46 140 25 25 141 47 47 142 24 26 143 50 48 144 49 49 145 48 50 146 51 51 147 49 49 148 50 48 149 52 52 150 51 51 151 50 48 152 53 53 153 51 51 154 52 52 155 54 54 156 53 53 157 52 52 158 55 55 159 53 53 160 54 54 161 56 56 162 55 55 163 54 54 164 57 57 165 55 55 166 56 56 167 58 58 168 57 57 169 56 56 170 59 59 171 57 57 172 58 58 173 60 60 174 59 59 175 58 58 176 61 61 177 59 59 178 60 60 179 62 62 180 61 61 181 60 60 182 63 63 183 61 61 184 62 62 185 64 64 186 63 63 187 62 62 188 65 65 189 63 63 190 64 64 191 66 66 192 65 65 193 64 64 194 67 67 195 65 65 196 66 66 197 68 68 198 67 67 199 66 66 200 69 69 201 67 67 202 68 68 203 70 70 204 69 69 205 68 68 206 71 71 207 69 69 208 70 70 209 48 50 210 71 71 211 70 70 212 49 49 213 71 71 214 48 50 215 73 72 216 48 50 217 72 73 218 50 48 219 48 50 220 73 72 221 74 74 222 50 48 223 73 72 224 52 52 225 50 48 226 74 74 227 75 75 228 52 52 229 74 74 230 54 54 231 52 52 232 75 75 233 76 76 234 54 54 235 75 75 236 56 56 237 54 54 238 76 76 239 77 77 240 56 56 241 76 76 242 58 58 243 56 56 244 77 77 245 78 78 246 58 58 247 77 77 248 60 60 249 58 58 250 78 78 251 79 79 252 60 60 253 78 78 254 62 62 255 60 60 256 79 79 257 80 80 258 62 62 259 79 79 260 64 64 261 62 62 262 80 80 263 81 81 264 64 64 265 80 80 266 66 66 267 64 64 268 81 81 269 82 82 270 66 66 271 81 81 272 68 68 273 66 66 274 82 82 275 83 83 276 68 68 277 82 82 278 70 70 279 68 68 280 83 83 281 72 73 282 70 70 283 83 83 284 48 50 285 70 70 286 72 73 287 86 84 288 85 85 289 84 86 290 87 87 291 85 85 292 86 84 293 88 88 294 87 87 295 86 84 296 89 89 297 87 87 298 88 88 299 90 90 300 89 89 301 88 88 302 91 91 303 89 89 304 90 90 305 92 92 306 91 91 307 90 90 308 93 93 309 91 91 310 92 92 311 94 94 312 93 93 313 92 92 314 95 95 315 93 93 316 94 94 317 96 96 318 95 95 319 94 94 320 97 97 321 95 95 322 96 96 323 98 98 324 14 14 325 12 12 326 99 99 327 14 14 328 98 98 329 100 100 330 99 99 331 98 98 332 101 101 333 99 99 334 100 100 335 102 102 336 101 101 337 100 100 338 103 103 339 101 101 340 102 102 341 104 104 342 103 103 343 102 102 344 105 105 345 103 103 346 104 104 347 106 106 348 105 105 349 104 104 350 71 71 351 105 105 352 106 106 353 69 69 354 71 71 355 106 106 356 106 106 357 67 67 358 69 69 359 107 107 360 67 67 361 106 106 362 104 104 363 107 107 364 106 106 365 108 108 366 107 107 367 104 104 368 102 102 369 108 108 370 104 104 371 109 109 372 108 108 373 102 102 374 100 100 375 109 109 376 102 102 377 110 110 378 109 109 379 100 100 380 111 111 381 110 110 382 100 100 383 34 34 384 110 110 385 111 111 386 36 36 387 34 34 388 111 111 389 94 94 390 112 112 391 96 96 392 113 113 393 112 112 394 94 94 395 92 92 396 113 113 397 94 94 398 114 114 399 113 113 400 92 92 401 90 90 402 114 114 403 92 92 404 115 115 405 114 114 406 90 90 407 116 116 408 115 115 409 90 90 410 117 117 411 115 115 412 116 116 413 118 118 414 117 117 415 116 116 416 81 81 417 117 117 418 118 118 419 82 82 420 81 81 421 118 118 422 111 111 423 38 38 424 36 36 425 119 119 426 38 38 427 111 111 428 100 100 429 119 119 430 111 111 431 120 120 432 119 119 433 100 100 434 121 121 435 120 120 436 100 100 437 122 122 438 120 120 439 121 121 440 123 123 441 122 122 442 121 121 443 124 124 444 122 122 445 123 123 446 125 125 447 124 124 448 123 123 449 59 59 450 124 124 451 125 125 452 57 57 453 59 59 454 125 125 455 72 73 456 126 126 457 73 72 458 127 127 459 126 126 460 72 73 461 83 83 462 127 127 463 72 73 464 128 128 465 127 127 466 83 83 467 82 82 468 128 128 469 83 83 470 129 129 471 128 128 472 82 82 473 118 118 474 129 129 475 82 82 476 130 130 477 129 129 478 118 118 479 116 116 480 130 130 481 118 118 482 88 88 483 130 130 484 116 116 485 90 90 486 88 88 487 116 116 488 113 113 489 131 131 490 112 112 491 132 132 492 131 131 493 113 113 494 114 114 495 132 132 496 113 113 497 133 133 498 132 132 499 114 114 500 115 115 501 133 133 502 114 114 503 134 134 504 133 133 505 115 115 506 117 117 507 134 134 508 115 115 509 80 80 510 134 134 511 117 117 512 81 81 513 80 80 514 117 117 515 125 125 516 55 55 517 57 57 518 135 135 519 55 55 520 125 125 521 123 123 522 135 135 523 125 125 524 136 136 525 135 135 526 123 123 527 121 121 528 136 136 529 123 123 530 137 137 531 136 136 532 121 121 533 100 100 534 137 137 535 121 121 536 138 138 537 137 137 538 100 100 539 98 98 540 138 138 541 100 100 542 127 127 543 139 139 544 126 126 545 140 140 546 139 139 547 127 127 548 128 128 549 140 140 550 127 127 551 141 141 552 140 140 553 128 128 554 129 129 555 141 141 556 128 128 557 142 142 558 141 141 559 129 129 560 130 130 561 142 142 562 129 129 563 86 84 564 142 142 565 130 130 566 88 88 567 86 84 568 130 130 569 10 10 570 98 98 571 12 12 572 138 138 573 98 98 574 10 10 575 8 8 576 138 138 577 10 10 578 136 136 579 138 138 580 8 8 581 6 6 582 136 136 583 8 8 584 135 135 585 136 136 586 6 6 587 53 53 588 135 135 589 6 6 590 55 55 591 135 135 592 53 53 593 140 140 594 143 143 595 139 139 596 144 144 597 143 143 598 140 140 599 141 141 600 144 144 601 140 140 602 145 145 603 144 144 604 141 141 605 142 142 606 145 145 607 141 141 608 84 86 609 145 145 610 142 142 611 86 84 612 84 86 613 142 142 614 132 132 615 76 76 616 131 131 617 77 77 618 76 76 619 132 132 620 133 133 621 77 77 622 132 132 623 78 78 624 77 77 625 133 133 626 134 134 627 78 78 628 133 133 629 79 79 630 78 78 631 134 134 632 80 80 633 79 79 634 134 134 635 146 146 636 75 75 637 74 74 638 147 147 639 75 75 640 146 146 641 148 148 642 147 147 643 146 146 644 149 149 645 147 147 646 148 148 647 150 150 648 149 149 649 148 148 650 97 97 651 149 149 652 150 150 653 147 147 654 76 76 655 75 75 656 131 131 657 76 76 658 147 147 659 149 149 660 131 131 661 147 147 662 112 112 663 131 131 664 149 149 665 97 97 666 112 112 667 149 149 668 96 96 669 112 112 670 97 97 671 126 126 672 74 74 673 73 72 674 146 146 675 74 74 676 126 126 677 139 139 678 146 146 679 126 126 680 148 148 681 146 146 682 139 139 683 143 143 684 148 148 685 139 139 686 150 150 687 148 148 688 143 143 689 153 151 690 152 152 691 151 153 692 154 154 693 152 152 694 153 151 695 155 155 696 154 154 697 153 151 698 143 143 699 154 154 700 155 155 701 150 150 702 143 143 703 155 155 704 153 151 705 85 85 706 87 87 707 156 156 708 85 85 709 153 151 710 151 153 711 156 156 712 153 151 713 84 86 714 156 156 715 151 153 716 145 145 717 84 86 718 151 153 719 152 152 720 145 145 721 151 153 722 144 144 723 145 145 724 152 152 725 154 154 726 144 144 727 152 152 728 143 143 729 144 144 730 154 154 731 30 30 732 108 108 733 32 32 734 107 107 735 108 108 736 30 30 737 65 65 738 107 107 739 30 30 740 67 67 741 107 107 742 65 65 743 49 49 744 105 105 745 71 71 746 18 18 747 105 105 748 49 49 749 20 20 750 18 18 751 49 49 752 110 110 753 108 108 754 109 109 755 32 32 756 108 108 757 110 110 758 34 34 759 32 32 760 110 110 761 46 46 762 63 63 763 24 26 764 61 61 765 63 63 766 46 46 767 44 44 768 61 61 769 46 46 770 119 119 771 40 40 772 38 38 773 122 122 774 40 40 775 119 119 776 120 120 777 122 122 778 119 119 779 99 99 780 16 16 781 14 14 782 103 103 783 16 16 784 99 99 785 101 101 786 103 103 787 99 99 788 157 157 789 155 155 790 153 151 791 150 150 792 155 155 793 157 157 794 97 97 795 150 150 796 157 157 797 158 158 798 25 25 799 27 27 800 47 47 801 25 25 802 158 158 803 45 45 804 47 47 805 158 158 806 158 158 807 43 43 808 45 45 809 41 41 810 43 43 811 158 158 812 39 39 813 41 41 814 158 158 815 158 158 816 37 37 817 39 39 818 35 35 819 37 37 820 158 158 821 33 33 822 35 35 823 158 158 824 158 158 825 31 31 826 33 33 827 29 29 828 31 31 829 158 158 830 27 27 831 29 29 832 158 158 833 61 61 834 124 124 835 59 59 836 42 42 837 124 124 838 61 61 839 44 44 840 42 42 841 61 61 842 159 159 843 1 1 844 3 3 845 23 23 846 1 1 847 159 159 848 21 21 849 23 23 850 159 159 851 159 159 852 19 19 853 21 21 854 17 17 855 19 19 856 159 159 857 15 15 858 17 17 859 159 159 860 159 159 861 13 13 862 15 15 863 11 11 864 13 13 865 159 159 866 9 9 867 11 11 868 159 159 869 159 159 870 7 7 871 9 9 872 5 5 873 7 7 874 159 159 875 3 3 876 5 5 877 159 159 878 18 18 879 103 103 880 105 105 881 16 16 882 103 103 883 18 18 884 2 0 885 51 51 886 53 53 887 0 2 888 51 51 889 2 0 890 4 4 891 53 53 892 6 6 893 2 0 894 53 53 895 4 4 896 26 24 897 63 63 898 65 65 899 24 26 900 63 63 901 26 24 902 89 89 903 153 151 904 87 87 905 91 91 906 153 151 907 89 89 908 93 93 909 153 151 910 91 91 911 95 95 912 153 151 913 93 93 914 49 49 915 22 22 916 20 20 917 51 51 918 22 22 919 49 49 920 28 28 921 65 65 922 30 30 923 26 24 924 65 65 925 28 28 926 95 95 927 157 157 928 153 151 929 97 97 930 157 157 931 95 95 932 42 42 933 122 122 934 124 124 935 40 40 936 122 122 937 42 42 938 136 136 939 137 137 940 138 138 941 0 2 942 22 22 943 51 51 944 85 85 945 156 156 946 84 86 947</p>
        </triangles>
      </mesh>
    </geometry>
  </library_geometries>
  <library_controllers>
    <controller id="Armature_polygon0-skin" name="Armature">
      <skin source="#polygon0-mesh">
        <bind_shape_matrix>0.09999999 0 0 0 0 -1.62921e-8 -0.09999999 0 0 0.09999999 -1.62921e-8 0 0 0 0 1</bind_shape_matrix>
        <source id="Armature_polygon0-skin-joints">
          <Name_array id="Armature_polygon0-skin-joints-array" count="5">e18_all hips ball_bi ball_l ball_r</Name_array>
          <technique_common>
            <accessor source="#Armature_polygon0-skin-joints-array" count="5" stride="1">
              <param name="JOINT" type="name"/>
            </accessor>
          </technique_common>
        </source>
        <source id="Armature_polygon0-skin-bind_poses">
          <float_array id="Armature_polygon0-skin-bind_poses-array" count="80">10 0 0 0 0 -1.62921e-6 10 0 0 -10 -1.62921e-6 0 0 0 0 1 10 0 0 0 0 -1.62921e-6 10 -9 0 -10 -1.62921e-6 0 0 0 0 1 10 0 0 0 0 -1.62921e-6 10 -9 0 -10 -1.62921e-6 0 0 0 0 1 10 0 0 -6 -1.19209e-7 -1.62921e-6 10 -1 0 -10 -1.62921e-6 0 0 0 0 1 10 0 0 6 1.19209e-7 -1.62921e-6 10 -1 0 -10 -1.62921e-6 0 0 0 0 1</float_array>
          <technique_common>
            <accessor source="#Armature_polygon0-skin-bind_poses-array" count="5" stride="16">
              <param name="TRANSFORM" type="float4x4"/>
            </accessor>
          </technique_common>
        </source>
        <source id="Armature_polygon0-skin-weights">
          <float_array id="Armature_polygon0-skin-weights-array" count="26">1 1 1 1 1 1 1 1 1 1 1 1 1 1 1 1 1 1 1 1 1 1 1 1 1 1</float_array>
          <technique_common>
            <accessor source="#Armature_polygon0-skin-weights-array" count="26" stride="1">
              <param name="WEIGHT" type="float"/>
            </accessor>
          </technique_common>
        </source>
        <joints>
          <input semantic="JOINT" source="#Armature_polygon0-skin-joints"/>
          <input semantic="INV_BIND_MATRIX" source="#Armature_polygon0-skin-bind_poses"/>
        </joints>
        <vertex_weights count="26">
          <input semantic="JOINT" source="#Armature_polygon0-skin-joints" offset="0"/>
          <input semantic="WEIGHT" source="#Armature_polygon0-skin-weights" offset="1"/>
          <vcount>1 1 1 1 1 1 1 1 1 1 1 1 1 1 1 1 1 1 1 1 1 1 1 1 1 1 </vcount>
          <v>3 0 3 1 3 2 3 3 3 4 3 5 3 6 3 7 3 8 3 9 3 10 3 11 3 12 3 13 3 14 3 15 3 16 3 17 3 18 3 19 3 20 3 21 3 22 3 23 3 24 3 25</v>
        </vertex_weights>
      </skin>
    </controller>
    <controller id="Armature_polygon3-skin" name="Armature">
      <skin source="#polygon3-mesh">
        <bind_shape_matrix>0.09999999 0 0 0 0 -1.62921e-8 -0.09999999 0 0 0.09999999 -1.62921e-8 0 0 0 0 1</bind_shape_matrix>
        <source id="Armature_polygon3-skin-joints">
          <Name_array id="Armature_polygon3-skin-joints-array" count="5">e18_all hips ball_bi ball_l ball_r</Name_array>
          <technique_common>
            <accessor source="#Armature_polygon3-skin-joints-array" count="5" stride="1">
              <param name="JOINT" type="name"/>
            </accessor>
          </technique_common>
        </source>
        <source id="Armature_polygon3-skin-bind_poses">
          <float_array id="Armature_polygon3-skin-bind_poses-array" count="80">10 0 0 0 0 -1.62921e-6 10 0 0 -10 -1.62921e-6 0 0 0 0 1 10 0 0 0 0 -1.62921e-6 10 -9 0 -10 -1.62921e-6 0 0 0 0 1 10 0 0 0 0 -1.62921e-6 10 -9 0 -10 -1.62921e-6 0 0 0 0 1 10 0 0 -6 -1.19209e-7 -1.62921e-6 10 -1 0 -10 -1.62921e-6 0 0 0 0 1 10 0 0 6 1.19209e-7 -1.62921e-6 10 -1 0 -10 -1.62921e-6 0 0 0 0 1</float_array>
          <technique_common>
            <accessor source="#Armature_polygon3-skin-bind_poses-array" count="5" stride="16">
              <param name="TRANSFORM" type="float4x4"/>
            </accessor>
          </technique_common>
        </source>
        <source id="Armature_polygon3-skin-weights">
          <float_array id="Armature_polygon3-skin-weights-array" count="26">1 1 1 1 1 1 1 1 1 1 1 1 1 1 1 1 1 1 1 1 1 1 1 1 1 1</float_array>
          <technique_common>
            <accessor source="#Armature_polygon3-skin-weights-array" count="26" stride="1">
              <param name="WEIGHT" type="float"/>
            </accessor>
          </technique_common>
        </source>
        <joints>
          <input semantic="JOINT" source="#Armature_polygon3-skin-joints"/>
          <input semantic="INV_BIND_MATRIX" source="#Armature_polygon3-skin-bind_poses"/>
        </joints>
        <vertex_weights count="26">
          <input semantic="JOINT" source="#Armature_polygon3-skin-joints" offset="0"/>
          <input semantic="WEIGHT" source="#Armature_polygon3-skin-weights" offset="1"/>
          <vcount>1 1 1 1 1 1 1 1 1 1 1 1 1 1 1 1 1 1 1 1 1 1 1 1 1 1 </vcount>
          <v>4 0 4 1 4 2 4 3 4 4 4 5 4 6 4 7 4 8 4 9 4 10 4 11 4 12 4 13 4 14 4 15 4 16 4 17 4 18 4 19 4 20 4 21 4 22 4 23 4 24 4 25</v>
        </vertex_weights>
      </skin>
    </controller>
    <controller id="Armature_polygon4-skin" name="Armature">
      <skin source="#polygon4-mesh">
        <bind_shape_matrix>0.09999999 0 0 0 0 -1.62921e-8 -0.09999999 0 0 0.09999999 -1.62921e-8 0 0 0 0 1</bind_shape_matrix>
        <source id="Armature_polygon4-skin-joints">
          <Name_array id="Armature_polygon4-skin-joints-array" count="5">e18_all hips ball_bi ball_l ball_r</Name_array>
          <technique_common>
            <accessor source="#Armature_polygon4-skin-joints-array" count="5" stride="1">
              <param name="JOINT" type="name"/>
            </accessor>
          </technique_common>
        </source>
        <source id="Armature_polygon4-skin-bind_poses">
          <float_array id="Armature_polygon4-skin-bind_poses-array" count="80">10 0 0 0 0 -1.62921e-6 10 0 0 -10 -1.62921e-6 0 0 0 0 1 10 0 0 0 0 -1.62921e-6 10 -9 0 -10 -1.62921e-6 0 0 0 0 1 10 0 0 0 0 -1.62921e-6 10 -9 0 -10 -1.62921e-6 0 0 0 0 1 10 0 0 -6 -1.19209e-7 -1.62921e-6 10 -1 0 -10 -1.62921e-6 0 0 0 0 1 10 0 0 6 1.19209e-7 -1.62921e-6 10 -1 0 -10 -1.62921e-6 0 0 0 0 1</float_array>
          <technique_common>
            <accessor source="#Armature_polygon4-skin-bind_poses-array" count="5" stride="16">
              <param name="TRANSFORM" type="float4x4"/>
            </accessor>
          </technique_common>
        </source>
        <source id="Armature_polygon4-skin-weights">
          <float_array id="Armature_polygon4-skin-weights-array" count="160">1 1 1 1 1 1 1 1 1 1 1 1 1 1 1 1 1 1 1 1 1 1 1 1 1 1 1 1 1 1 1 1 1 1 1 1 1 1 1 1 1 1 1 1 1 1 1 1 1 1 1 1 1 1 1 1 1 1 1 1 1 1 1 1 1 1 1 1 1 1 1 1 1 1 1 1 1 1 1 1 1 1 1 1 1 1 1 1 1 1 1 1 1 1 1 1 1 1 1 1 1 1 1 1 1 1 1 1 1 1 1 1 1 1 1 1 1 1 1 1 1 1 1 1 1 1 1 1 1 1 1 1 1 1 1 1 1 1 1 1 1 1 1 1 1 1 1 1 1 1 1 1 1 1 1 1 1 1 1 1</float_array>
          <technique_common>
            <accessor source="#Armature_polygon4-skin-weights-array" count="160" stride="1">
              <param name="WEIGHT" type="float"/>
            </accessor>
          </technique_common>
        </source>
        <joints>
          <input semantic="JOINT" source="#Armature_polygon4-skin-joints"/>
          <input semantic="INV_BIND_MATRIX" source="#Armature_polygon4-skin-bind_poses"/>
        </joints>
        <vertex_weights count="160">
          <input semantic="JOINT" source="#Armature_polygon4-skin-joints" offset="0"/>
          <input semantic="WEIGHT" source="#Armature_polygon4-skin-weights" offset="1"/>
          <vcount>1 1 1 1 1 1 1 1 1 1 1 1 1 1 1 1 1 1 1 1 1 1 1 1 1 1 1 1 1 1 1 1 1 1 1 1 1 1 1 1 1 1 1 1 1 1 1 1 1 1 1 1 1 1 1 1 1 1 1 1 1 1 1 1 1 1 1 1 1 1 1 1 1 1 1 1 1 1 1 1 1 1 1 1 1 1 1 1 1 1 1 1 1 1 1 1 1 1 1 1 1 1 1 1 1 1 1 1 1 1 1 1 1 1 1 1 1 1 1 1 1 1 1 1 1 1 1 1 1 1 1 1 1 1 1 1 1 1 1 1 1 1 1 1 1 1 1 1 1 1 1 1 1 1 1 1 1 1 1 1 </vcount>
          <v>1 0 1 1 1 2 1 3 1 4 1 5 1 6 1 7 1 8 1 9 1 10 1 11 1 12 1 13 1 14 1 15 1 16 1 17 1 18 1 19 1 20 1 21 1 22 1 23 1 24 1 25 1 26 1 27 1 28 1 29 1 30 1 31 1 32 1 33 1 34 1 35 1 36 1 37 1 38 1 39 1 40 1 41 1 42 1 43 1 44 1 45 1 46 1 47 1 48 1 49 1 50 1 51 1 52 1 53 1 54 1 55 1 56 1 57 1 58 1 59 1 60 1 61 1 62 1 63 1 64 1 65 1 66 1 67 1 68 1 69 1 70 1 71 1 72 1 73 1 74 1 75 1 76 1 77 1 78 1 79 1 80 1 81 1 82 1 83 1 84 1 85 1 86 1 87 1 88 1 89 1 90 1 91 1 92 1 93 1 94 1 95 1 96 1 97 1 98 1 99 1 100 1 101 1 102 1 103 1 104 1 105 1 106 1 107 1 108 1 109 1 110 1 111 1 112 1 113 1 114 1 115 1 116 1 117 1 118 1 119 1 120 1 121 1 122 1 123 1 124 1 125 1 126 1 127 1 128 1 129 1 130 1 131 1 132 1 133 1 134 1 135 1 136 1 137 1 138 1 139 1 140 1 141 1 142 1 143 1 144 1 145 1 146 1 147 1 148 1 149 1 150 1 151 1 152 1 153 1 154 1 155 1 156 1 157 1 158 1 159</v>
        </vertex_weights>
      </skin>
    </controller>
  </library_controllers>
  <library_visual_scenes>
    <visual_scene id="Scene" name="Scene">
      <node id="Armature" name="Armature" type="NODE">
        <matrix sid="transform">0.09999999 0 0 0 0 -1.62921e-8 -0.09999999 0 0 0.09999999 -1.62921e-8 0 0 0 0 1</matrix>
        <node id="Armature_e18_all" name="e18_all" sid="e18_all" type="JOINT">
          <matrix sid="transform">1 0 0 0 0 1 0 0 0 0 1 0 0 0 0 1</matrix>
          <node id="Armature_hips" name="hips" sid="hips" type="JOINT">
            <matrix sid="transform">1 0 0 0 0 1 0 9 0 0 1 0 0 0 0 1</matrix>
            <node id="Armature_ball_bi" name="ball_bi" sid="ball_bi" type="JOINT">
              <matrix sid="transform">1 0 0 0 0 1 0 0 0 0 1 0 0 0 0 1</matrix>
              <node id="Armature_ball_l" name="ball_l" sid="ball_l" type="JOINT">
                <matrix sid="transform">1 0 0 6 0 1 0 -8 0 0 1 0 0 0 0 1</matrix>
                <extra>
                  <technique profile="blender">
                    <layer sid="layer" type="string">0</layer>
                    <tip_x sid="tip_x" type="float">0</tip_x>
                    <tip_y sid="tip_y" type="float">9</tip_y>
                    <tip_z sid="tip_z" type="float">0</tip_z>
                  </technique>
                </extra>
              </node>
              <node id="Armature_ball_r" name="ball_r" sid="ball_r" type="JOINT">
                <matrix sid="transform">1 0 0 -6 0 1 0 -8 0 0 1 0 0 0 0 1</matrix>
                <extra>
                  <technique profile="blender">
                    <layer sid="layer" type="string">0</layer>
                    <tip_x sid="tip_x" type="float">0</tip_x>
                    <tip_y sid="tip_y" type="float">9</tip_y>
                    <tip_z sid="tip_z" type="float">0</tip_z>
                  </technique>
                </extra>
              </node>
              <extra>
                <technique profile="blender">
                  <layer sid="layer" type="string">0</layer>
                  <tip_x sid="tip_x" type="float">0</tip_x>
                  <tip_y sid="tip_y" type="float">9</tip_y>
                  <tip_z sid="tip_z" type="float">0</tip_z>
                </technique>
              </extra>
            </node>
            <extra>
              <technique profile="blender">
                <layer sid="layer" type="string">0</layer>
                <tip_x sid="tip_x" type="float">0</tip_x>
                <tip_y sid="tip_y" type="float">9</tip_y>
                <tip_z sid="tip_z" type="float">0</tip_z>
              </technique>
            </extra>
          </node>
          <extra>
            <technique profile="blender">
              <layer sid="layer" type="string">0</layer>
              <tip_x sid="tip_x" type="float">0</tip_x>
              <tip_y sid="tip_y" type="float">9</tip_y>
              <tip_z sid="tip_z" type="float">0</tip_z>
            </technique>
          </extra>
        </node>
      </node>
      <node id="polygon0" name="polygon0" type="NODE">
        <translate sid="location">0 0 0</translate>
        <rotate sid="rotationZ">0 0 1 0</rotate>
        <rotate sid="rotationY">0 1 0 0</rotate>
        <rotate sid="rotationX">1 0 0 0</rotate>
        <scale sid="scale">1 1 1</scale>
        <instance_controller url="#Armature_polygon0-skin">
          <skeleton>#Armature_e18_all</skeleton>
          <bind_material>
            <technique_common>
              <instance_material symbol="e18t_png-material" target="#e18t_png-material">
                <bind_vertex_input semantic="polygon0_UVs0" input_semantic="TEXCOORD" input_set="0"/>
              </instance_material>
            </technique_common>
          </bind_material>
        </instance_controller>
      </node>
      <node id="polygon3" name="polygon3" type="NODE">
        <translate sid="location">0 0 0</translate>
        <rotate sid="rotationZ">0 0 1 0</rotate>
        <rotate sid="rotationY">0 1 0 0</rotate>
        <rotate sid="rotationX">1 0 0 0</rotate>
        <scale sid="scale">1 1 1</scale>
        <instance_controller url="#Armature_polygon3-skin">
          <skeleton>#Armature_e18_all</skeleton>
          <bind_material>
            <technique_common>
              <instance_material symbol="e18t_png-material" target="#e18t_png-material">
                <bind_vertex_input semantic="polygon3_UVs0" input_semantic="TEXCOORD" input_set="0"/>
              </instance_material>
            </technique_common>
          </bind_material>
        </instance_controller>
      </node>
      <node id="polygon4" name="polygon4" type="NODE">
        <translate sid="location">0 0 0</translate>
        <rotate sid="rotationZ">0 0 1 0</rotate>
        <rotate sid="rotationY">0 1 0 0</rotate>
        <rotate sid="rotationX">1 0 0 0</rotate>
        <scale sid="scale">1 1 1</scale>
        <instance_controller url="#Armature_polygon4-skin">
          <skeleton>#Armature_e18_all</skeleton>
          <bind_material>
            <technique_common>
              <instance_material symbol="e18t_png-material" target="#e18t_png-material">
                <bind_vertex_input semantic="polygon4_UVs0" input_semantic="TEXCOORD" input_set="0"/>
              </instance_material>
            </technique_common>
          </bind_material>
        </instance_controller>
      </node>
    </visual_scene>
  </library_visual_scenes>
  <scene>
    <instance_visual_scene url="#Scene"/>
  </scene>
</COLLADA>